{"glyphs":{"0":{"ha":1323,"x_min":34,"x_max":1242,"o":"m 231 959 l 1045 959 q 1236 810 1190 959 l 1242 764 l 1242 193 q 1146 16 1242 83 q 1066 -7 1100 -7 l 210 -7 q 71 73 130 -7 q 34 193 34 134 l 34 758 q 130 934 34 869 q 231 959 175 959 m 311 764 l 311 203 l 965 203 l 965 764 l 311 764 z "},"1":{"ha":582,"x_min":34,"x_max":499,"o":"m 39 942 l 494 942 l 499 937 l 499 -2 l 494 -7 l 232 -7 l 227 -2 l 227 735 l 39 735 l 34 739 l 34 937 l 39 942 z "},"2":{"ha":1310,"x_min":34,"x_max":1236,"o":"m 195 954 l 1074 954 q 1204 871 1141 954 q 1236 758 1236 808 l 1236 560 q 1140 385 1236 450 q 1040 359 1095 359 l 309 359 l 309 189 l 1231 189 l 1236 184 q 1183 55 1236 127 q 1063 -2 1124 -2 l 1058 -7 l 39 -7 l 34 -2 l 34 371 q 130 546 34 481 q 230 571 174 571 l 960 571 l 960 747 l 39 747 l 34 751 l 34 758 q 123 928 34 862 q 195 954 165 954 z "},"3":{"ha":1329,"x_min":27,"x_max":1244,"o":"m 191 973 l 1081 973 q 1213 890 1149 973 q 1244 775 1244 825 l 1244 196 q 1162 28 1244 96 q 1081 -5 1105 -5 l 1078 -7 l 207 -7 q 202 0 202 -7 q 45 113 104 0 q 27 191 27 168 l 29 194 l 966 194 l 966 196 l 963 372 l 32 372 l 27 376 l 27 581 l 32 586 l 966 586 l 966 764 l 32 764 l 27 768 l 27 775 q 117 948 27 880 q 191 973 161 973 z "},"4":{"ha":1340,"x_min":41,"x_max":1259,"o":"m 45 970 l 317 970 l 321 965 l 321 574 l 955 574 l 955 571 l 762 378 l 234 378 q 47 536 91 378 q 41 562 46 557 l 41 965 l 45 970 m 985 970 l 1254 970 l 1259 965 l 1259 -2 l 1254 -7 l 985 -7 l 980 -2 l 980 965 l 985 970 z "},"5":{"ha":1331,"x_min":27,"x_max":1249,"o":"m 32 969 l 1050 969 q 1235 840 1184 969 q 1249 775 1249 795 l 1246 773 l 307 773 l 307 600 l 1050 600 q 1242 449 1196 600 l 1249 396 l 1249 195 q 1152 16 1249 83 q 1070 -7 1105 -7 l 205 -7 q 64 74 124 -7 q 27 195 27 136 l 27 201 l 32 206 l 968 206 l 968 384 l 226 384 q 34 534 80 384 l 27 588 l 27 965 l 32 969 z "},"6":{"ha":1310,"x_min":34,"x_max":1234,"o":"m 39 952 l 1038 952 q 1220 825 1171 952 q 1234 761 1234 781 l 1232 759 l 309 759 l 309 589 l 1038 589 q 1227 441 1181 589 l 1234 389 l 1234 191 q 1138 16 1234 82 q 1059 -7 1093 -7 l 209 -7 q 71 73 129 -7 q 34 191 34 133 l 34 947 l 39 952 m 309 377 l 309 202 l 959 202 l 959 377 l 309 377 z "},"7":{"ha":1316,"x_min":34,"x_max":1242,"o":"m 231 959 l 1238 959 l 1242 954 l 1242 767 l 469 -7 l 100 -7 l 100 -5 l 865 764 l 39 764 l 34 769 q 100 913 34 840 q 231 959 155 959 z "},"8":{"ha":1388,"x_min":47,"x_max":1249,"o":"m 243 954 l 1053 954 q 1242 806 1197 954 l 1249 760 l 1249 191 q 1154 16 1249 82 q 1074 -7 1107 -7 l 222 -7 q 84 73 142 -7 q 47 191 47 134 l 47 753 q 143 928 47 864 q 243 954 188 954 m 323 760 l 323 589 l 971 589 l 971 687 l 974 760 l 323 760 m 323 378 l 323 203 l 974 203 l 974 378 l 323 378 z "},"9":{"ha":1331,"x_min":34,"x_max":1255,"o":"m 198 969 l 1091 969 q 1223 886 1160 969 q 1255 770 1255 821 l 1255 -2 l 1251 -7 l 214 -7 q 165 5 208 -2 q 62 93 96 30 q 34 190 34 155 l 36 192 l 975 192 l 975 366 l 233 366 q 41 516 87 366 l 34 569 l 34 770 q 124 944 34 876 q 198 969 168 969 m 314 759 l 314 581 l 975 581 l 975 759 l 314 759 z "}," ":{"ha":345,"x_min":0,"x_max":0,"o":""}," ":{"ha":345,"x_min":0,"x_max":0,"o":""},"!":{"ha":593,"x_min":33,"x_max":504,"o":"m 37 956 l 499 956 l 504 951 l 504 842 l 502 840 l 504 837 l 504 170 l 502 161 l 504 152 l 504 67 q 486 56 503 63 l 495 47 l 504 50 l 504 33 l 499 26 l 499 24 l 504 18 l 504 -1 l 499 -5 l 449 -5 l 449 -1 q 456 6 456 -1 l 458 6 l 460 3 l 463 3 l 472 26 l 467 40 l 467 45 q 481 56 472 56 l 481 58 q 474 63 481 63 l 472 65 l 472 67 l 474 70 l 472 72 l 465 70 q 449 83 449 75 l 440 83 q 417 52 440 57 q 399 60 408 60 l 397 60 l 399 50 l 397 47 q 413 26 407 47 l 408 20 l 408 18 q 417 11 417 16 l 415 -1 l 422 1 l 433 -1 l 433 -5 l 304 -5 q 294 11 300 -5 q 288 26 291 11 l 283 26 q 269 -3 273 26 l 267 -5 l 233 -5 l 229 -1 l 229 441 l 235 450 l 235 457 l 229 466 l 229 536 l 233 543 l 233 546 l 229 553 l 229 634 l 235 644 l 229 662 l 229 746 l 205 746 l 201 751 l 210 780 q 185 801 185 791 q 165 787 170 787 l 162 789 l 158 783 l 160 780 l 160 778 q 144 746 157 746 l 71 746 q 66 753 66 746 l 64 753 l 56 746 l 37 746 l 33 751 l 33 951 l 37 956 m 117 951 l 117 946 l 119 946 l 119 951 l 117 951 m 162 944 l 155 935 l 155 930 l 169 928 l 172 930 l 172 937 q 162 944 172 941 m 185 928 l 185 924 l 197 917 l 199 928 l 192 932 l 190 932 l 185 928 m 338 932 l 338 930 l 342 926 l 342 932 l 338 932 m 140 930 l 137 917 l 144 917 l 149 921 l 149 926 l 140 930 m 158 921 l 158 914 l 165 914 l 165 919 l 167 919 l 165 926 l 162 926 l 158 921 m 258 910 l 256 910 l 249 914 l 247 914 l 244 912 l 242 912 q 249 905 242 905 l 251 903 l 251 899 l 233 897 l 231 899 l 229 897 l 229 894 l 231 892 q 242 882 231 886 l 242 876 l 249 876 q 258 889 249 885 q 274 882 258 882 q 286 878 274 878 l 292 871 l 294 871 l 294 876 q 272 924 294 904 l 258 910 m 203 912 q 197 901 203 901 l 197 899 l 201 894 q 210 910 210 898 l 210 912 l 203 912 m 356 912 l 356 910 l 360 905 l 360 912 l 356 912 m 101 907 l 101 903 l 103 903 l 115 907 l 115 910 l 108 910 l 101 907 m 62 907 l 62 899 l 71 899 l 71 903 l 66 907 l 62 907 m 169 905 l 169 897 l 174 897 l 176 899 l 178 899 l 176 905 l 169 905 m 321 905 l 321 903 l 326 899 l 331 903 l 321 905 m 217 903 l 217 897 l 222 897 l 222 899 l 217 903 m 110 894 l 110 889 l 115 894 l 110 894 m 208 894 l 208 889 l 210 889 l 210 894 l 208 894 m 71 878 l 71 876 l 76 871 l 81 871 l 83 880 l 81 882 l 76 882 l 71 878 m 49 878 l 49 873 l 51 873 l 58 880 l 56 880 l 49 878 m 121 865 l 121 862 l 126 857 l 128 857 l 128 865 l 121 865 m 165 857 l 165 853 l 167 853 l 167 857 l 165 857 m 180 848 l 180 844 l 187 842 l 187 844 l 183 848 l 180 848 m 226 842 l 226 835 l 231 830 l 233 830 l 240 835 q 233 846 237 846 l 231 846 l 226 842 m 313 842 l 313 830 l 321 830 l 321 837 l 317 842 l 313 842 m 347 842 l 345 840 l 345 833 l 351 833 l 351 837 l 347 842 m 180 840 l 178 837 l 178 835 l 187 835 l 187 837 l 180 840 m 304 840 l 308 835 l 308 840 l 304 840 m 467 840 l 467 835 l 470 835 l 470 840 l 467 840 m 486 828 l 486 825 l 490 821 l 492 821 l 492 830 l 486 828 m 247 821 l 247 817 l 251 817 l 251 821 l 247 821 m 283 817 l 283 803 l 286 805 l 294 805 q 299 796 294 796 l 304 810 l 290 821 l 288 821 l 283 817 m 417 810 l 420 808 l 429 808 l 431 819 l 424 819 q 417 810 420 819 m 454 819 l 454 805 l 456 805 l 456 819 l 454 819 m 484 810 l 484 805 l 486 805 l 490 810 l 484 810 m 388 808 l 388 803 l 395 803 l 395 808 l 388 808 m 262 803 l 262 798 l 267 803 l 262 803 m 399 803 l 399 801 l 404 801 l 404 803 l 399 803 m 144 798 q 137 780 144 780 l 133 785 q 126 771 133 779 l 126 769 l 155 762 l 146 776 l 151 798 l 144 798 m 378 798 l 378 793 l 383 793 l 378 798 m 192 796 l 192 793 l 197 793 l 197 796 l 192 796 m 96 787 l 96 785 l 101 785 l 101 787 l 96 787 m 126 787 l 126 783 l 128 783 l 128 787 l 126 787 m 321 778 l 321 773 l 328 773 l 328 783 l 326 783 l 321 778 m 481 776 l 486 764 l 490 764 l 490 766 l 488 769 l 488 771 l 495 778 l 495 780 l 490 780 l 490 783 q 481 776 481 779 m 105 776 l 105 769 l 108 769 l 110 776 l 105 776 m 256 771 l 256 764 l 264 766 l 264 776 l 260 776 l 256 771 m 363 773 l 363 769 q 374 758 372 769 l 378 758 l 383 762 l 383 766 q 368 773 372 766 l 363 773 m 274 771 l 274 764 l 276 764 l 281 769 l 279 771 l 274 771 m 306 766 l 306 762 l 317 753 q 333 762 333 756 l 331 764 l 331 766 l 319 760 l 311 766 l 306 766 m 347 762 l 347 758 l 351 753 q 356 760 356 753 l 353 766 l 351 766 l 347 762 m 90 764 l 90 760 l 92 760 l 92 764 l 90 764 m 397 760 l 397 758 l 401 758 l 401 760 l 397 760 m 115 755 l 115 751 l 117 751 l 117 755 l 115 755 m 388 751 l 385 751 l 383 753 l 381 753 l 376 744 q 392 728 376 737 l 399 728 l 404 732 l 390 746 l 397 748 l 397 755 l 395 755 l 388 751 m 399 744 l 399 739 l 406 741 l 406 744 l 399 744 m 415 741 l 415 734 l 422 728 l 427 734 l 415 741 m 247 739 l 240 726 l 242 723 l 244 723 l 256 730 q 247 739 254 737 m 347 723 l 349 721 l 356 721 l 356 728 l 351 728 l 347 723 m 447 728 l 449 721 l 456 721 l 456 723 l 452 728 l 447 728 m 262 709 q 272 701 264 702 l 276 712 l 274 714 l 269 714 l 262 709 m 313 701 l 317 701 l 321 705 l 321 707 l 319 707 l 313 701 m 447 698 l 447 694 l 452 694 l 452 691 l 458 694 l 458 698 l 454 703 l 452 703 l 447 698 m 358 691 l 358 687 l 363 687 l 363 684 q 372 694 370 686 l 365 698 l 358 691 m 317 691 l 324 691 l 324 696 l 321 696 l 317 691 m 338 682 l 342 682 l 342 687 l 338 682 m 431 680 l 431 677 l 435 677 l 435 680 l 431 680 m 401 666 l 401 662 l 404 662 l 404 666 l 401 666 m 477 650 l 477 648 l 481 648 l 481 650 l 477 650 m 399 632 l 395 625 l 395 618 l 399 614 q 406 627 404 614 l 399 632 m 317 625 l 317 621 l 319 621 l 319 625 l 317 625 m 313 614 l 313 610 l 317 610 l 317 614 l 313 614 m 306 598 l 304 591 q 313 580 307 581 l 315 582 l 315 585 q 308 598 308 587 l 306 598 m 429 598 l 429 595 l 433 591 l 435 593 l 435 598 l 429 598 m 240 589 l 247 585 l 251 589 l 251 591 l 247 595 l 240 589 m 290 595 l 290 593 l 294 593 l 294 595 l 290 595 m 315 593 l 315 589 l 331 587 l 331 595 l 315 593 m 233 593 l 233 587 l 237 587 l 235 593 l 233 593 m 274 589 l 283 585 l 283 593 l 279 593 l 274 589 m 331 570 l 331 566 l 333 566 l 333 570 l 331 570 m 269 548 l 269 543 l 274 538 l 283 538 l 281 550 l 269 548 m 326 550 l 326 548 l 331 548 l 331 550 l 326 550 m 319 541 l 319 538 l 331 538 l 331 541 l 319 541 m 470 541 l 470 536 l 474 541 l 470 541 m 262 536 l 262 532 l 264 532 l 264 536 l 262 536 m 422 511 l 427 511 l 427 516 l 422 511 m 290 503 l 292 500 l 296 500 l 296 507 l 294 507 l 290 503 m 308 507 l 313 503 l 315 505 l 315 507 l 308 507 m 321 503 l 321 498 l 324 498 l 324 503 l 321 503 m 431 434 l 435 434 l 435 439 l 431 434 m 454 418 l 456 416 l 458 416 l 463 422 l 463 425 l 460 425 l 454 418 m 262 416 l 262 411 l 269 404 l 272 407 l 272 416 l 262 416 m 458 400 l 458 395 l 460 395 l 460 400 l 458 400 m 383 379 l 383 377 l 385 366 l 383 363 l 390 363 q 397 368 390 368 l 395 382 l 383 379 m 463 370 l 458 363 l 458 359 l 463 359 l 467 363 l 467 366 l 463 370 m 410 357 l 408 345 l 408 343 q 417 350 417 347 l 417 352 l 413 357 l 410 357 m 237 354 l 237 347 l 235 336 l 244 336 l 249 340 l 249 347 l 247 345 l 242 345 l 242 354 l 237 354 m 392 352 l 392 347 l 395 347 l 395 352 l 392 352 m 333 343 l 333 340 l 340 340 l 340 343 l 333 343 m 237 318 l 237 315 l 242 320 l 242 322 l 237 318 m 276 322 l 276 320 l 281 313 l 279 307 l 281 309 l 283 309 l 290 307 l 292 309 l 292 313 l 283 322 l 276 322 m 306 320 l 304 309 l 306 307 l 308 307 l 319 309 q 306 320 315 317 m 358 315 l 358 311 l 360 311 l 360 315 l 358 315 m 397 309 l 397 304 l 404 304 l 404 309 l 397 309 m 249 307 q 254 295 250 295 l 260 300 l 258 307 l 249 307 m 372 290 q 383 283 372 283 l 376 275 l 378 273 l 385 273 l 392 279 l 392 283 l 383 283 l 385 295 l 383 298 l 372 290 m 281 258 l 281 254 l 299 241 l 301 241 l 301 245 l 304 245 l 311 243 l 311 245 l 313 248 l 313 250 l 311 252 l 308 252 l 299 250 l 299 256 l 304 256 l 304 266 l 288 266 l 281 258 m 313 261 l 317 256 l 321 256 l 321 266 l 317 266 l 313 261 m 237 258 l 237 252 l 242 241 l 244 241 l 247 256 l 247 258 l 237 258 m 333 258 l 336 252 l 340 252 l 345 256 l 345 258 l 333 258 m 317 252 l 315 250 l 315 245 l 319 241 l 324 245 l 324 250 l 317 252 m 272 243 l 272 229 l 276 229 l 276 227 l 279 229 l 290 229 l 292 222 l 286 216 l 286 213 l 288 202 l 292 202 q 299 222 299 202 l 301 222 q 290 241 301 234 l 283 238 l 283 241 l 286 243 l 286 245 l 279 250 l 272 243 m 296 186 l 296 181 l 304 170 l 311 170 q 328 211 321 170 l 326 211 q 311 188 319 208 l 296 186 m 356 204 l 356 202 l 360 197 l 363 197 l 368 202 l 368 209 l 360 209 l 356 204 m 463 188 l 463 181 l 470 181 l 470 184 l 465 188 l 463 188 m 342 170 l 349 168 l 349 174 l 347 174 l 342 170 m 392 165 l 392 161 l 395 161 l 395 165 l 392 165 m 247 159 l 247 154 l 249 154 l 249 159 l 247 159 m 321 154 l 317 142 l 319 140 l 324 140 l 336 142 q 328 154 332 154 l 321 154 m 481 138 l 481 131 q 490 120 490 131 l 492 120 q 497 127 497 120 l 492 149 q 481 138 486 148 m 258 142 l 258 140 l 262 136 l 269 136 l 272 142 l 264 147 l 262 147 l 258 142 m 324 129 l 324 115 l 328 111 l 331 111 l 338 117 l 338 120 l 333 129 l 324 129 m 467 117 l 467 113 l 470 113 l 470 117 l 467 117 m 267 88 l 267 85 l 269 83 l 269 81 q 288 102 288 92 l 286 102 l 267 88 m 408 97 l 415 88 l 422 88 l 422 92 l 424 95 l 422 97 l 415 99 l 408 97 m 370 92 l 370 85 l 376 85 l 376 88 l 372 92 l 370 92 m 467 85 l 465 83 l 465 81 l 467 79 l 470 79 l 472 81 l 472 83 l 470 85 l 467 85 m 326 79 l 331 75 l 338 77 l 338 79 l 333 83 l 331 83 l 326 79 m 383 81 l 383 77 l 385 77 l 385 81 l 383 81 m 328 63 l 338 60 l 342 67 l 342 70 l 336 70 l 328 63 m 244 67 l 244 63 l 249 63 l 249 67 l 244 67 m 301 60 l 301 56 l 306 56 l 301 60 m 336 52 l 336 47 l 338 47 l 338 52 l 336 52 m 240 28 l 240 26 l 244 22 l 247 22 l 247 24 l 242 28 l 240 28 m 484 28 l 484 26 l 488 26 l 488 28 l 484 28 m 360 20 l 358 18 l 358 15 l 374 11 l 376 13 l 376 15 l 360 20 m 388 13 l 388 11 l 397 8 l 397 15 l 388 13 m 401 8 l 401 6 l 406 6 l 406 8 l 401 8 z "},"\"":{"ha":456,"x_min":0,"x_max":0,"o":""},"#":{"ha":1305,"x_min":33,"x_max":1236,"o":"m 199 959 l 652 959 q 659 950 659 959 l 661 950 q 666 957 666 950 l 668 959 l 730 959 l 730 957 l 725 950 l 730 945 l 732 945 q 736 959 736 945 l 1074 959 q 1204 877 1141 959 q 1236 768 1236 809 l 1236 692 q 1227 688 1227 692 l 1236 686 l 1236 210 l 1234 184 l 1236 178 q 1183 50 1236 125 q 1074 -7 1126 -1 l 1072 -9 l 912 -9 l 912 -3 l 910 -3 q 905 -9 905 -3 l 589 -9 l 589 -3 l 579 -3 l 570 -9 q 566 -3 566 -9 l 562 -3 l 564 -5 l 564 -7 l 562 -9 l 559 -9 l 557 -7 l 554 -9 l 532 -9 l 529 -7 l 527 -9 l 210 -9 q 163 4 207 -2 q 58 93 96 28 q 37 157 37 147 l 49 155 l 49 157 q 33 186 33 165 l 35 189 l 49 189 l 56 184 l 58 184 l 64 189 l 73 189 l 81 184 l 83 184 l 90 189 l 472 189 q 490 178 481 189 l 497 178 l 497 189 l 960 189 l 960 239 l 958 321 l 960 323 l 960 326 l 958 334 l 958 357 l 960 359 l 960 362 l 958 364 l 37 364 l 33 369 l 33 483 l 39 492 l 33 498 l 33 574 l 37 574 l 37 569 l 39 569 l 49 576 l 78 576 l 81 569 l 78 555 l 81 553 l 87 555 l 103 551 l 103 553 l 98 560 l 98 562 l 101 565 l 101 567 q 87 574 87 567 l 90 576 l 110 576 l 117 574 l 128 576 l 233 576 l 240 572 l 244 576 l 960 576 l 960 751 l 828 751 l 828 754 q 846 768 828 758 l 850 777 l 837 795 l 832 800 l 832 802 l 837 808 l 819 813 q 798 790 819 790 l 791 783 l 789 783 l 793 770 l 791 768 l 796 763 l 796 756 l 791 751 l 675 751 l 673 754 q 668 765 669 754 l 666 768 l 661 768 l 648 751 l 593 751 l 593 761 q 589 751 589 761 l 37 751 l 33 756 l 33 770 q 41 788 33 788 l 37 795 l 37 797 l 41 804 l 39 806 l 39 808 q 51 825 45 825 l 49 836 l 49 838 l 53 843 l 69 815 l 73 815 l 81 822 l 81 825 l 69 822 l 66 825 l 69 827 l 69 836 l 60 836 l 60 838 q 69 857 69 848 l 64 861 q 71 865 64 865 l 71 872 l 66 877 q 199 959 123 959 m 914 943 l 914 939 l 919 934 l 924 939 l 924 943 l 914 943 m 686 936 q 675 927 686 931 l 668 929 l 666 927 l 666 925 l 680 918 l 684 918 q 691 932 691 920 l 686 936 m 582 920 l 582 918 l 586 922 l 586 925 l 582 920 m 714 916 l 721 916 l 721 920 l 718 920 l 714 916 m 1126 911 l 1124 909 l 1124 904 l 1128 900 l 1133 904 l 1126 911 m 855 890 l 855 886 l 864 884 l 867 886 l 867 900 l 864 900 l 855 890 m 691 886 l 696 886 l 703 893 l 698 897 q 691 886 692 897 m 87 893 l 87 890 l 94 884 l 96 886 l 96 890 l 87 893 m 634 888 l 632 882 l 636 882 l 641 886 l 639 888 l 634 888 m 153 884 l 158 879 l 158 884 l 153 884 m 98 882 l 98 879 l 103 879 l 103 882 l 98 882 m 121 879 l 121 877 l 126 877 l 126 879 l 121 879 m 138 877 l 138 872 l 146 859 l 151 859 l 151 875 l 138 877 m 703 865 l 700 863 l 700 857 l 703 857 l 707 861 l 703 865 m 133 861 l 133 857 l 135 857 l 135 861 l 133 861 m 1167 852 l 1165 850 l 1165 847 l 1174 838 l 1181 845 q 1167 852 1181 849 m 785 845 l 787 838 l 793 838 l 798 843 l 798 845 l 796 847 l 796 850 l 785 845 m 880 850 l 880 845 l 882 845 l 882 850 l 880 850 m 939 840 l 942 838 l 944 838 l 951 845 l 946 850 q 939 840 943 850 m 142 845 l 142 840 l 146 840 l 146 845 l 142 845 m 643 829 l 646 827 l 648 827 l 650 829 l 650 833 l 648 833 l 643 829 m 1026 831 l 1019 820 l 1021 820 l 1028 831 l 1026 831 m 705 825 l 707 822 l 709 822 l 711 825 l 711 829 l 709 829 l 705 825 m 96 818 l 96 813 l 101 802 l 106 806 l 103 818 l 96 818 m 121 818 l 121 813 l 123 813 l 128 818 l 121 818 m 46 811 l 49 808 l 49 806 l 56 808 l 53 815 l 51 815 l 46 811 m 128 811 l 135 811 l 135 815 l 133 815 l 128 811 m 711 811 l 711 808 l 714 808 l 718 813 l 718 815 l 716 815 l 711 811 m 869 811 l 869 808 q 876 804 869 804 l 887 806 l 889 804 l 889 811 l 876 815 l 873 815 l 869 811 m 155 804 l 155 800 l 158 800 l 158 804 l 155 804 m 589 788 l 589 786 l 593 781 l 593 788 l 589 788 m 878 779 l 885 772 l 889 777 l 889 779 l 885 783 l 882 783 l 878 779 m 85 770 l 90 765 q 101 772 101 768 l 101 777 l 96 781 l 85 770 m 1213 779 l 1213 768 l 1220 768 l 1224 772 l 1222 779 l 1213 779 m 618 772 l 618 765 l 623 770 l 621 772 l 618 772 m 108 761 l 110 758 l 115 758 l 115 765 l 113 765 l 108 761 m 123 763 l 123 758 l 128 758 l 128 763 l 123 763 m 1026 749 l 1026 747 l 1031 736 l 1040 736 l 1040 743 q 1026 749 1038 749 m 1099 722 l 1099 720 l 1106 711 l 1113 713 l 1113 722 l 1108 726 l 1103 726 l 1099 722 m 1135 704 l 1140 699 l 1145 706 l 1142 708 l 1140 708 l 1135 704 m 1192 690 l 1192 683 l 1199 683 l 1199 686 l 1195 690 l 1192 690 m 1160 688 l 1158 686 l 1158 683 l 1167 674 l 1170 674 l 1172 681 l 1160 688 m 1117 672 q 1126 661 1126 667 l 1124 654 l 1126 651 l 1128 651 q 1138 667 1138 655 l 1138 669 q 1124 676 1135 676 l 1122 676 l 1117 672 m 1092 654 l 1095 642 l 1097 642 l 1108 644 l 1108 647 l 1101 654 l 1092 654 m 1065 637 l 1065 633 l 1067 631 l 1067 629 q 1076 635 1076 632 l 1076 637 l 1065 637 m 1220 631 l 1220 629 l 1224 624 l 1227 626 l 1227 629 l 1224 631 l 1220 631 m 1167 624 l 1165 622 l 1165 619 l 1167 617 l 1172 617 l 1172 619 l 1167 624 m 153 567 l 153 565 l 158 565 l 158 572 l 153 567 m 1126 572 l 1133 565 l 1133 567 l 1128 572 l 1126 572 m 64 562 l 66 562 l 71 567 l 69 567 l 64 562 m 113 567 l 113 562 l 119 562 l 119 565 l 113 567 m 185 565 l 185 558 l 192 558 l 192 562 l 195 565 l 192 567 l 185 565 m 121 558 l 128 547 q 106 524 123 547 q 92 517 99 524 l 90 519 l 87 519 l 85 512 l 90 508 l 87 505 l 85 505 l 78 508 l 76 505 l 76 503 l 83 501 l 85 503 l 90 503 l 98 496 l 101 498 l 103 498 l 106 496 l 108 496 l 115 498 l 119 494 l 126 494 q 138 512 132 494 q 149 530 149 514 l 126 565 q 121 558 121 565 m 71 558 l 71 553 l 73 553 l 73 558 l 71 558 m 142 555 l 142 553 l 151 551 q 144 555 151 555 l 142 555 m 39 551 l 39 547 l 41 547 l 41 551 l 39 551 m 345 540 l 349 540 l 349 544 l 345 540 m 62 542 l 62 537 q 71 526 66 527 l 76 526 l 78 535 l 62 542 m 94 537 l 94 535 l 98 535 l 98 537 l 94 537 m 700 535 l 700 530 l 703 530 l 703 535 l 700 535 m 85 528 l 85 526 l 90 526 l 90 528 l 85 528 m 185 515 l 199 505 l 201 508 l 201 517 l 197 526 l 192 526 q 185 515 187 526 m 71 522 l 71 519 l 76 515 l 83 517 l 83 522 l 71 522 m 217 522 l 215 519 l 215 517 l 222 515 l 222 517 l 217 522 m 290 519 l 290 517 l 294 517 l 294 519 l 290 519 m 203 508 l 203 503 l 208 503 l 203 508 m 174 505 l 176 503 l 176 501 q 167 492 174 492 l 167 490 l 178 478 l 180 478 l 187 494 q 178 505 183 505 l 174 505 m 199 501 l 199 496 l 203 496 l 203 501 l 199 501 m 313 498 l 313 490 l 322 490 l 324 498 l 322 496 l 319 496 l 313 498 m 53 496 l 53 494 l 58 494 l 58 496 l 53 496 m 201 485 l 201 483 l 212 494 l 212 496 l 210 496 l 201 485 m 85 490 l 90 490 l 90 494 l 85 490 m 94 492 l 94 490 l 101 490 l 101 494 l 94 492 m 286 494 l 286 490 l 294 490 l 294 494 l 286 494 m 274 490 l 274 480 l 283 480 l 283 487 l 281 490 l 281 492 l 274 490 m 190 483 l 197 480 l 195 478 l 195 473 l 197 473 l 199 480 l 197 490 l 190 483 m 133 473 l 128 469 l 128 467 l 133 467 l 135 469 l 135 473 l 133 473 m 249 471 l 249 467 l 252 467 l 252 471 l 249 471 m 277 453 q 283 448 277 448 l 290 451 l 292 448 l 292 455 l 288 455 l 277 453 m 370 453 l 370 451 l 374 446 l 376 448 l 376 451 l 374 453 l 370 453 m 1108 451 l 1108 446 l 1110 446 l 1110 451 l 1108 451 m 233 448 l 233 444 l 235 444 l 235 448 l 233 448 m 106 437 l 106 435 l 110 435 l 110 437 l 106 437 m 69 433 l 69 428 l 76 428 l 76 433 l 69 433 m 404 430 l 404 423 l 408 419 l 411 421 l 411 426 l 406 430 l 404 430 m 244 419 l 244 414 l 249 414 l 249 419 l 244 419 m 399 416 l 399 412 l 401 412 l 401 416 l 399 416 m 1099 416 l 1099 414 l 1103 414 l 1103 416 l 1099 416 m 315 414 l 315 410 l 317 403 l 322 408 l 315 414 m 1124 410 l 1124 408 l 1128 408 l 1128 410 l 1124 410 m 356 408 l 356 398 q 363 394 356 394 l 370 396 l 358 408 l 356 408 m 1115 403 l 1115 401 l 1120 401 l 1120 403 l 1115 403 m 1117 398 l 1117 394 l 1120 394 l 1120 398 l 1117 398 m 299 396 l 299 391 l 304 391 l 304 396 l 299 396 m 821 396 l 821 387 l 825 387 l 823 396 l 821 396 m 431 394 l 431 387 l 433 387 l 433 394 l 431 394 m 1092 394 l 1095 387 l 1099 387 l 1099 389 l 1095 394 l 1092 394 m 525 389 l 525 387 l 529 387 l 529 389 l 525 389 m 272 385 l 272 380 l 274 380 l 274 385 l 272 385 m 817 385 l 817 382 l 821 382 l 821 385 l 817 385 m 1085 235 l 1081 227 l 1085 223 l 1090 223 l 1090 230 l 1085 235 m 395 184 l 395 178 l 399 182 l 397 184 l 395 184 m 85 175 l 85 173 l 90 173 l 94 178 l 94 180 l 90 180 l 85 175 m 286 173 l 286 168 q 292 157 292 168 l 294 159 l 309 159 l 311 157 l 313 157 q 319 163 313 163 q 304 178 319 178 l 290 178 l 286 173 m 507 175 l 507 170 l 511 170 l 511 175 l 507 175 m 340 173 l 340 168 l 345 168 l 345 173 l 340 173 m 358 173 l 358 170 l 363 166 l 363 168 l 358 173 m 493 166 l 490 157 l 500 159 l 500 161 l 495 166 l 493 166 m 1058 166 l 1056 155 l 1060 150 l 1063 150 l 1065 153 l 1067 153 l 1065 166 l 1058 166 m 1156 166 l 1154 163 l 1154 155 l 1158 155 l 1163 159 l 1163 163 l 1156 166 m 452 163 l 452 159 l 456 159 l 456 163 l 452 163 m 1133 163 l 1133 159 l 1138 163 l 1133 163 m 356 161 l 354 159 l 354 155 l 356 157 l 358 157 q 363 148 358 148 l 366 148 l 366 157 l 356 161 m 438 155 l 438 153 l 443 153 l 443 155 l 438 155 m 448 155 l 448 150 l 454 148 l 454 150 l 450 155 l 448 155 m 502 148 l 509 143 l 511 145 l 511 148 l 507 153 l 502 148 m 493 150 l 493 148 l 497 148 l 497 150 l 493 150 m 538 150 l 538 145 l 543 145 l 543 150 l 538 150 m 919 148 l 914 141 l 914 138 l 919 134 l 926 141 l 919 148 m 450 145 l 450 143 q 458 132 454 133 l 463 132 l 463 136 l 465 136 q 458 145 462 145 l 452 143 l 450 145 m 641 145 l 641 141 l 643 141 l 643 145 l 641 145 m 237 116 l 242 116 l 254 130 l 254 143 q 237 116 245 143 m 479 141 l 479 134 l 486 134 l 486 136 l 481 141 l 479 141 m 493 136 l 493 132 l 497 127 l 502 132 l 497 136 l 493 136 m 518 130 l 525 123 l 532 127 l 525 136 l 518 130 m 1099 132 l 1099 127 l 1103 127 l 1103 132 l 1099 132 m 825 130 l 825 123 l 828 123 l 832 127 l 832 130 l 825 130 m 309 125 l 309 121 l 315 121 l 311 125 l 309 125 m 488 125 l 488 123 l 490 121 l 488 109 l 488 100 l 484 100 l 484 98 l 490 98 q 500 104 490 103 l 500 109 q 488 125 500 121 m 502 125 l 502 116 l 507 111 l 511 111 q 505 125 508 125 l 502 125 m 853 116 l 853 109 l 857 104 l 862 104 l 860 116 l 853 116 m 924 109 l 921 106 l 921 104 l 928 104 l 924 109 m 889 106 q 878 91 888 91 l 878 86 l 880 86 l 887 88 l 889 86 l 889 84 l 896 86 l 896 96 l 894 106 l 889 106 m 507 104 l 507 93 l 511 88 l 513 88 l 513 100 l 509 104 l 507 104 m 1124 102 l 1120 98 l 1113 100 l 1108 96 l 1110 88 l 1117 88 l 1128 100 l 1126 102 l 1124 102 m 411 98 l 411 93 l 413 93 l 413 98 l 411 98 m 616 98 l 616 91 l 623 91 l 623 93 l 618 98 l 616 98 m 477 93 l 477 88 l 484 88 l 479 93 l 477 93 m 1019 77 l 1024 73 q 1033 79 1033 76 l 1033 81 l 1028 86 l 1026 86 q 1019 77 1023 86 m 479 75 l 479 71 l 484 71 l 488 75 l 484 79 l 479 75 m 917 75 l 917 66 l 924 66 l 924 79 l 921 79 l 917 75 m 1133 75 l 1133 71 l 1138 66 l 1145 68 l 1145 77 l 1133 75 m 106 75 l 106 73 l 113 71 l 117 71 l 117 73 l 108 75 l 106 75 m 648 71 l 648 68 l 652 64 l 657 64 l 657 68 l 659 68 l 657 75 l 652 75 l 648 71 m 1067 68 l 1069 56 l 1069 50 q 1056 27 1056 35 q 1076 4 1076 11 l 1101 16 l 1110 47 q 1085 61 1101 61 l 1078 71 l 1072 71 l 1069 68 l 1067 68 m 490 64 l 490 59 l 495 59 l 495 64 l 490 64 m 562 61 l 559 59 q 566 47 562 47 l 568 47 l 568 54 l 562 61 m 643 61 l 643 56 l 648 56 l 648 61 l 643 61 m 616 59 l 616 54 l 623 54 l 618 59 l 616 59 m 458 50 l 463 50 l 463 54 l 458 50 m 602 54 l 602 43 l 609 36 l 614 41 q 602 54 610 50 m 939 52 l 939 45 l 942 45 l 946 50 l 946 52 l 939 52 m 187 41 l 187 39 l 197 39 l 197 41 l 192 45 l 187 41 m 807 45 l 807 36 l 810 36 l 810 45 l 807 45 m 294 41 l 294 39 l 304 34 l 306 36 l 306 39 l 301 43 l 294 41 m 577 43 l 575 41 l 575 39 l 577 36 l 579 36 l 582 39 l 582 41 l 579 43 l 577 43 m 545 41 l 545 34 l 547 34 l 552 39 l 550 41 l 545 41 m 438 39 l 438 34 l 440 34 l 440 39 l 438 39 m 869 34 l 869 31 l 871 31 l 876 36 l 876 39 l 873 39 l 869 34 m 488 36 l 488 31 l 493 31 l 493 36 l 488 36 m 518 29 l 518 24 l 522 24 l 522 29 l 518 29 m 534 29 l 534 24 l 538 24 l 534 29 m 962 22 l 967 18 l 967 27 l 962 22 m 311 24 l 311 22 l 315 22 l 315 24 l 311 24 m 167 18 l 167 11 l 174 11 l 178 16 l 174 20 l 167 18 m 611 20 l 609 18 l 609 11 l 616 11 l 616 16 l 611 20 m 976 18 l 976 9 l 981 14 l 976 18 m 600 9 l 600 -1 l 609 -3 l 611 -1 l 611 2 l 604 9 l 600 9 m 520 4 l 520 -1 l 525 -5 l 527 -5 l 527 -3 l 520 4 m 208 -3 l 208 -5 l 215 -5 l 215 -3 l 208 -3 z "},"$":{"ha":1323,"x_min":33,"x_max":1246,"o":"m 37 967 l 308 967 l 313 962 l 313 572 l 328 572 l 347 568 l 347 572 l 349 572 l 351 570 l 353 572 l 934 572 q 892 522 934 551 q 826 456 892 514 q 748 378 817 442 l 661 378 l 659 380 l 656 378 l 622 378 l 620 380 l 617 378 l 225 378 q 39 536 83 378 q 33 561 38 556 l 33 683 l 35 685 l 33 687 l 33 962 l 37 967 m 973 967 l 980 967 l 989 965 l 998 967 l 1010 967 l 1012 965 l 1015 967 l 1230 967 l 1237 962 l 1244 967 l 1246 965 l 1246 -1 l 1241 -5 l 1216 -5 l 1209 -1 l 1202 -5 l 1126 -5 q 1111 1 1118 1 q 1118 6 1111 6 l 1120 8 l 1120 11 l 1118 13 l 1115 13 l 1103 8 l 1101 22 l 1095 22 l 1090 1 l 1083 1 q 1069 18 1083 9 q 1065 11 1069 11 q 1076 4 1065 4 l 1076 -1 l 1072 -5 l 973 -5 l 968 -1 l 968 36 l 970 45 l 968 52 l 975 52 q 968 56 975 56 l 968 68 l 973 75 l 968 79 l 968 93 q 975 98 968 98 l 975 107 q 968 111 968 107 l 968 146 l 973 153 l 973 155 l 968 155 l 968 270 l 973 275 l 970 277 l 970 281 l 973 283 l 973 286 l 968 290 l 968 327 l 973 343 l 968 348 l 968 726 q 975 731 968 731 l 975 735 q 968 740 968 735 l 968 962 l 973 967 m 1037 960 l 1042 960 l 1042 965 l 1037 960 m 1046 962 l 1046 956 l 1048 956 l 1048 962 l 1046 962 m 1076 958 l 1076 956 l 1081 956 l 1081 958 l 1076 958 m 1003 956 l 1000 954 l 1000 949 l 1003 949 q 1010 954 1003 954 l 1010 956 l 1003 956 m 1060 956 l 1060 951 l 1067 951 l 1067 956 l 1060 956 m 1173 956 l 1171 954 l 1171 949 l 1173 949 l 1177 954 l 1175 956 l 1173 956 m 1010 947 l 1015 942 l 1017 944 l 1017 947 l 1010 947 m 994 935 l 994 930 l 1000 932 l 1000 935 l 994 935 m 1108 935 l 1108 930 l 1111 930 l 1111 935 l 1108 935 m 1131 932 l 1131 928 l 1133 928 l 1133 932 l 1131 932 m 1040 926 l 1048 926 l 1048 930 l 1044 930 l 1040 926 m 1065 926 l 1065 924 l 1072 924 l 1072 926 l 1065 926 m 1076 926 l 1076 924 l 1083 924 l 1083 926 l 1076 926 m 982 921 l 982 914 l 985 914 l 989 919 l 987 921 l 982 921 m 1044 917 q 1055 909 1044 911 l 1053 921 l 1048 921 l 1044 917 m 1010 914 l 1010 912 l 1015 912 l 1015 914 l 1010 914 m 970 903 l 975 899 l 977 901 l 977 903 l 970 903 m 1046 899 l 1046 896 l 1055 894 l 1058 896 l 1058 899 l 1051 903 l 1046 899 m 1063 896 l 1065 894 l 1072 894 l 1072 901 l 1067 901 l 1063 896 m 1209 901 l 1209 899 l 1214 899 l 1214 901 l 1209 901 m 998 899 l 998 896 l 1003 896 l 1003 899 l 998 899 m 1005 896 l 1005 894 l 1010 894 l 1012 896 l 1012 899 l 1005 896 m 1083 894 l 1083 889 l 1088 894 l 1083 894 m 1033 884 l 1033 878 l 1035 878 l 1040 882 l 1040 884 l 1033 884 m 1042 850 l 1044 848 l 1053 848 l 1053 854 l 1046 854 l 1042 850 m 1035 846 l 1035 843 l 1040 843 l 1040 846 l 1035 846 m 1040 825 q 1030 809 1040 809 l 1030 806 q 1046 800 1030 803 l 1046 798 l 1040 756 l 1042 756 q 1083 795 1083 771 q 1048 825 1048 803 l 1040 825 m 74 781 l 71 779 l 74 772 l 76 772 l 79 779 l 76 781 l 74 781 m 970 747 l 975 747 l 980 751 l 975 751 l 970 747 m 1076 735 l 1076 733 l 1083 733 l 1083 735 l 1076 735 m 1106 731 l 1106 724 l 1111 724 l 1111 731 l 1106 731 m 101 722 l 104 720 l 111 720 l 111 726 l 106 726 l 101 722 m 64 722 l 62 720 l 62 710 l 74 710 l 74 715 l 64 722 m 85 715 l 92 705 l 94 705 l 94 713 l 90 717 l 87 715 l 85 715 m 1090 705 l 1090 701 l 1093 701 l 1097 705 l 1090 705 m 94 701 l 94 696 l 99 692 l 101 694 l 101 696 l 97 701 l 94 701 m 1019 699 l 1019 692 l 1023 692 l 1023 699 l 1019 699 m 44 696 l 44 692 l 51 685 l 53 687 q 46 696 50 696 l 44 696 m 998 648 l 998 642 l 1000 642 l 1005 646 l 1003 648 l 998 648 m 1019 584 l 1019 582 l 1021 582 l 1030 584 l 1030 587 l 1025 587 l 1019 584 m 512 559 l 512 554 l 517 549 l 526 552 l 526 559 l 517 564 l 512 559 m 294 545 l 294 543 l 301 543 l 301 549 l 298 549 l 294 545 m 663 547 l 663 545 l 668 545 l 668 547 l 663 547 m 326 538 l 333 536 l 338 543 l 335 545 l 333 545 l 326 538 m 305 541 l 305 531 l 315 531 l 315 534 l 313 541 l 305 541 m 434 517 l 441 506 l 441 497 l 439 494 l 439 492 l 471 479 l 475 479 q 491 501 489 490 l 500 504 l 500 517 l 482 517 l 464 536 q 457 529 457 536 l 436 517 l 434 517 m 296 517 l 298 515 l 298 513 l 305 515 l 305 517 l 301 522 l 296 517 m 821 519 l 826 515 l 829 515 l 824 519 l 821 519 m 585 517 l 581 513 l 585 504 q 599 513 599 509 l 585 517 m 810 517 l 810 513 l 814 513 l 814 517 l 810 517 m 991 513 l 991 511 l 998 511 l 998 513 l 991 513 m 351 486 l 351 479 l 356 479 l 356 486 l 351 486 m 652 481 l 652 471 l 661 471 l 661 476 l 656 481 l 652 481 m 783 474 l 783 469 l 787 469 l 783 474 m 512 467 l 512 465 l 524 451 l 524 456 l 521 458 l 521 460 l 524 469 l 521 471 l 517 471 l 512 467 m 994 453 l 994 451 l 998 451 l 998 453 l 994 453 m 489 451 l 489 444 l 491 442 l 491 439 l 498 444 l 496 451 l 489 451 m 1037 451 l 1037 449 l 1042 444 l 1044 444 l 1037 451 m 730 442 l 730 439 l 734 435 l 736 435 l 736 442 l 730 442 m 1103 428 l 1101 426 l 1101 423 l 1108 426 l 1108 428 l 1103 428 m 1143 428 l 1138 410 l 1141 408 l 1143 408 l 1149 412 l 1156 412 l 1159 410 l 1161 410 q 1168 414 1161 414 q 1143 428 1168 428 m 1173 428 l 1177 423 l 1177 428 l 1173 428 m 572 414 l 576 410 l 583 410 l 583 414 l 578 419 l 576 419 l 572 414 m 1129 412 l 1133 412 l 1133 416 l 1129 412 m 1069 398 l 1067 405 l 1060 398 l 1067 396 q 1085 410 1079 396 l 1083 410 l 1069 398 m 1090 393 l 1093 391 l 1097 391 l 1101 396 l 1101 398 l 1095 398 l 1090 393 m 1053 382 l 1053 380 l 1058 385 l 1058 387 l 1053 382 m 1177 382 l 1177 375 l 1181 375 l 1181 382 l 1177 382 m 1021 357 l 1021 353 l 1023 353 l 1023 357 l 1021 357 m 975 338 l 980 338 l 980 343 l 975 338 m 996 336 l 994 325 l 1003 307 l 991 288 q 1007 272 1003 288 l 1012 267 l 1015 267 q 1033 277 1033 272 l 1030 283 l 1035 283 l 1035 286 l 1015 293 l 1017 295 l 1017 297 l 1015 304 q 1023 311 1023 308 l 1012 313 l 1007 309 l 1003 323 l 1005 330 l 1003 330 q 998 336 998 330 l 996 336 m 1005 336 l 1005 332 l 1010 336 l 1005 336 m 1025 307 l 1023 293 l 1040 293 l 1030 307 l 1025 307 m 985 297 l 985 295 l 989 295 l 989 297 l 985 297 m 980 270 l 980 267 q 987 260 987 267 l 991 260 l 991 263 l 982 270 l 980 270 m 1000 263 l 1000 256 l 1003 256 l 1003 263 l 1000 263 m 1141 227 q 1154 219 1143 219 l 1156 222 l 1156 224 l 1141 227 m 1175 219 l 1177 212 l 1181 217 l 1181 219 l 1175 219 m 1033 192 l 1033 185 l 1035 185 l 1035 192 l 1033 192 m 985 151 l 985 146 l 989 151 l 985 151 m 1072 149 l 1067 141 l 1069 134 l 1074 134 l 1081 141 l 1072 149 m 998 141 l 1000 139 l 1003 139 l 1007 144 l 1005 146 l 1003 146 l 998 141 m 1028 144 l 1028 139 l 1030 139 l 1030 144 l 1028 144 m 1149 144 l 1149 141 l 1154 141 l 1154 144 l 1149 144 m 1007 134 l 1012 134 l 1012 139 l 1007 134 m 1166 127 l 1166 125 l 1171 125 l 1171 127 l 1166 127 m 1012 125 l 1012 121 l 1015 121 l 1015 125 l 1012 125 m 1175 123 l 1175 119 l 1179 119 l 1175 123 m 1191 123 l 1191 119 l 1193 119 l 1193 123 l 1191 123 m 980 116 l 982 114 l 985 114 l 989 121 l 985 121 l 980 116 m 1058 119 l 1053 107 l 1067 107 l 1067 111 l 1069 111 l 1067 119 l 1058 119 m 1012 114 l 1012 109 l 1017 109 l 1017 114 l 1012 114 m 1095 107 l 1095 100 l 1099 100 l 1099 107 l 1095 107 m 996 104 l 996 98 l 1000 102 l 1000 104 l 996 104 m 1044 104 l 1044 98 l 1046 98 l 1051 102 l 1048 104 l 1044 104 m 1179 100 l 1179 98 l 1184 98 l 1184 104 l 1179 100 m 1021 100 l 1021 96 l 1028 96 l 1028 100 l 1021 100 m 1076 100 l 1076 89 l 1081 89 l 1088 96 l 1083 100 l 1076 100 m 1138 98 l 1138 86 l 1147 77 l 1149 77 q 1156 91 1156 79 l 1147 98 l 1141 96 l 1138 98 m 985 84 l 989 79 l 991 79 l 996 84 l 994 91 l 991 91 l 985 84 m 1152 91 l 1152 84 l 1147 84 l 1143 89 l 1145 91 l 1152 91 m 1230 89 l 1230 86 l 1234 82 l 1237 89 l 1230 89 m 973 84 l 973 79 l 977 79 l 977 84 l 973 84 m 1184 84 l 1184 79 l 1189 79 l 1189 84 l 1184 84 m 1025 77 l 1030 77 l 1035 82 l 1030 82 l 1025 77 m 1044 82 l 1044 79 l 1048 75 l 1048 82 l 1044 82 m 980 79 l 977 71 l 985 71 l 985 79 l 980 79 m 1081 73 l 1081 71 l 1085 66 l 1090 66 l 1090 68 l 1085 73 l 1081 73 m 1017 71 l 1015 68 l 1015 63 l 1023 63 l 1017 71 m 1035 68 l 1035 66 l 1040 66 l 1040 68 l 1035 68 m 1048 68 l 1048 63 l 1051 63 l 1051 68 l 1048 68 m 982 61 l 985 59 l 985 56 q 977 52 985 52 l 977 43 l 989 43 l 985 54 l 987 54 l 989 52 l 996 54 l 996 59 l 991 63 l 982 61 m 1067 63 l 1067 59 l 1072 63 l 1067 63 m 998 59 l 998 56 l 1003 56 l 1003 59 l 998 59 m 1012 50 l 1015 47 l 1015 45 l 1012 38 l 1015 36 l 1017 36 l 1021 50 l 1019 59 q 1012 50 1013 59 m 1115 59 l 1115 54 l 1118 54 l 1124 56 l 1124 59 l 1115 59 m 1033 56 l 1028 47 q 1037 33 1033 33 l 1040 33 q 1033 56 1038 56 m 1053 50 l 1055 47 l 1058 47 l 1060 50 l 1060 54 l 1058 54 l 1053 50 m 1078 52 l 1078 47 l 1088 45 l 1088 52 l 1078 52 m 1106 52 l 1106 45 l 1113 45 l 1113 50 l 1106 52 m 1163 50 l 1163 45 l 1166 45 l 1166 50 l 1163 50 m 1067 47 l 1067 41 l 1069 41 l 1074 45 l 1072 47 l 1067 47 m 1044 38 l 1058 31 l 1055 24 l 1048 24 l 1046 26 l 1044 26 l 1044 20 l 1053 15 l 1055 15 q 1063 26 1059 15 q 1048 43 1059 37 l 1044 38 m 1108 41 l 1108 36 q 1120 43 1120 39 l 1115 43 l 1108 41 m 1003 41 l 1007 36 l 1007 41 l 1003 41 m 1083 36 l 1097 33 l 1099 36 l 1099 41 l 1088 41 l 1083 36 m 1147 41 l 1147 38 l 1152 38 l 1152 41 l 1147 41 m 1168 36 l 1168 33 l 1171 33 l 1175 38 l 1175 41 l 1173 41 l 1168 36 m 1136 33 l 1136 29 l 1145 29 l 1145 33 l 1141 38 l 1136 33 m 1065 26 l 1065 24 l 1069 24 l 1069 31 l 1065 26 m 1083 29 l 1083 24 l 1088 24 l 1083 29 m 1138 24 l 1138 22 l 1143 22 l 1143 24 l 1138 24 m 1147 24 l 1143 18 l 1143 15 q 1156 22 1156 18 l 1147 24 m 1173 24 l 1173 18 l 1177 18 l 1177 24 l 1173 24 m 1083 20 l 1083 15 l 1088 11 l 1090 13 l 1090 20 l 1083 20 m 1138 11 l 1138 6 l 1143 6 l 1143 11 l 1138 11 m 1191 8 l 1189 6 l 1189 1 l 1191 1 l 1196 6 l 1193 8 l 1191 8 m 1103 6 l 1113 -3 l 1111 -3 l 1103 4 l 1103 6 m 1159 4 l 1163 -1 l 1166 1 l 1166 4 l 1159 4 m 1090 -1 l 1095 -1 l 1095 -5 l 1090 -1 z "},"%":{"ha":1325,"x_min":33,"x_max":1243,"o":"m 37 960 l 79 960 l 87 953 l 90 953 q 94 960 90 960 l 267 960 q 271 950 267 950 l 275 950 l 275 960 l 549 960 l 583 955 l 587 960 l 592 960 l 592 958 l 608 960 l 629 960 l 635 953 l 631 948 q 642 941 642 947 q 622 907 642 919 l 622 905 q 633 898 622 901 q 680 909 652 898 l 682 907 l 682 911 q 659 950 659 938 l 665 960 l 950 960 l 947 948 l 959 960 l 962 960 l 968 955 l 975 960 l 1046 960 q 1236 808 1192 960 l 1243 767 l 1241 765 l 1097 765 l 1087 772 q 1083 765 1087 765 l 310 765 l 310 593 l 1044 593 q 1133 570 1133 585 q 1177 543 1156 570 l 1177 540 l 1170 540 q 1165 547 1165 540 l 1161 547 q 1143 538 1161 538 l 1120 565 q 1108 558 1120 560 l 1108 556 l 1128 540 l 1128 538 q 1120 531 1120 536 q 1138 522 1122 522 l 1138 513 q 1156 522 1146 513 q 1184 494 1177 494 l 1191 496 l 1191 501 l 1186 501 l 1181 519 l 1186 531 l 1179 538 l 1181 540 l 1184 540 q 1211 496 1211 506 l 1209 494 q 1243 375 1237 488 l 1243 196 q 1122 3 1243 60 q 1067 -8 1088 -8 l 849 -8 l 838 20 q 801 -8 801 15 l 785 -8 l 778 -3 l 771 -8 l 716 -8 l 711 -3 l 700 -6 l 695 -6 q 677 12 677 4 l 675 15 l 672 15 q 663 -1 663 5 l 665 -8 l 587 -8 l 587 -6 l 590 -3 l 590 -1 l 569 22 l 567 22 l 567 17 l 565 17 l 567 15 l 567 12 l 565 3 l 569 -8 l 551 -8 q 544 5 549 5 l 542 5 q 537 -8 542 -8 l 209 -8 q 69 72 129 -8 q 33 191 33 134 l 33 198 l 37 203 l 535 203 l 537 191 l 539 191 q 544 201 544 191 l 546 203 l 966 203 l 966 379 l 230 379 q 39 528 85 379 l 33 581 l 33 749 l 35 760 l 33 774 l 33 955 l 37 960 m 425 955 l 425 950 l 431 950 l 427 955 l 425 955 m 645 958 l 650 958 l 650 955 l 645 955 l 645 958 m 425 943 l 427 937 l 431 937 l 436 941 l 434 948 l 431 948 l 425 943 m 237 943 l 235 937 l 241 932 l 248 946 l 245 943 l 243 943 l 237 946 l 237 943 m 496 943 l 496 941 l 500 937 l 503 939 l 503 941 l 500 943 l 496 943 m 977 941 l 977 937 l 980 937 l 980 941 l 977 941 m 633 939 l 633 935 l 635 935 l 635 939 l 633 939 m 954 928 l 962 937 l 966 937 l 966 939 l 964 939 q 954 928 954 937 m 248 932 l 250 930 l 253 930 l 253 937 l 248 932 m 308 930 l 308 928 l 313 928 l 313 930 l 308 930 m 524 930 l 524 925 l 530 925 l 530 930 l 524 930 m 555 930 l 560 925 l 565 925 l 560 930 l 555 930 m 945 928 l 945 918 l 950 913 l 950 916 l 947 928 l 945 928 m 954 925 l 954 921 l 957 921 l 957 925 l 954 925 m 416 918 l 416 911 l 422 911 l 422 918 l 416 918 m 452 918 l 452 911 l 459 911 l 459 913 l 454 918 l 452 918 m 549 918 l 549 911 l 551 911 l 555 916 l 553 918 l 549 918 m 99 916 l 99 911 l 104 911 l 104 916 l 99 916 m 317 911 l 315 909 l 315 902 l 319 898 l 323 898 l 323 905 l 317 911 m 602 907 l 599 905 l 599 902 l 604 898 l 606 900 l 606 902 l 602 907 m 952 907 l 952 905 q 987 882 962 882 q 1000 875 989 875 l 1005 875 l 1007 882 q 998 888 998 882 l 987 888 l 980 884 l 977 884 l 962 898 l 964 900 l 964 902 l 952 907 m 863 898 l 865 895 l 867 895 l 869 898 l 869 902 l 867 902 l 863 898 m 1005 900 l 1005 893 l 1007 893 l 1007 900 l 1005 900 m 519 898 l 519 891 l 526 891 l 526 898 l 519 898 m 980 898 l 980 895 l 984 895 l 984 898 l 980 898 m 475 891 l 477 884 l 482 884 l 484 886 l 487 886 l 479 895 l 475 891 m 592 893 l 592 891 q 602 884 592 887 l 602 888 l 597 893 l 592 893 m 665 886 l 665 884 l 672 877 l 675 888 l 672 891 l 670 891 l 665 886 m 1012 891 l 1012 886 l 1017 891 l 1012 891 m 652 888 l 652 884 l 659 884 l 659 888 l 652 888 m 713 888 l 711 886 l 711 882 l 718 882 l 718 884 l 713 888 m 427 884 l 422 880 l 425 873 l 431 873 l 436 877 l 427 884 m 1133 884 l 1133 880 l 1136 880 l 1136 884 l 1133 884 m 461 882 l 466 877 l 468 877 l 464 882 l 461 882 m 597 880 l 597 873 l 606 863 l 610 863 l 615 868 q 606 882 615 880 l 597 880 m 966 882 l 964 880 l 964 877 q 975 843 972 843 l 987 854 l 987 857 q 966 882 987 877 m 494 880 l 491 877 l 491 875 l 496 870 l 505 870 l 505 877 l 494 880 m 684 880 l 684 875 l 688 875 l 688 880 l 684 880 m 633 870 l 642 861 l 650 861 q 638 875 646 871 l 633 870 m 1007 875 l 1012 870 l 1014 873 l 1014 875 l 1007 875 m 652 870 l 652 863 q 661 857 652 860 l 665 863 l 659 870 l 652 870 m 345 865 l 345 859 l 353 854 l 356 854 l 358 857 l 361 857 q 345 865 358 865 m 572 861 l 572 857 l 578 857 l 578 861 l 572 861 m 340 859 l 340 854 l 342 854 l 342 859 l 340 859 m 409 854 l 411 847 l 413 847 l 418 852 l 413 857 l 411 854 l 409 854 m 663 854 l 663 843 l 670 836 l 675 840 l 672 847 l 675 850 l 668 854 l 663 854 m 461 845 q 477 831 477 842 l 482 831 l 479 843 l 484 847 l 477 852 l 475 852 q 461 845 461 850 m 638 829 l 659 824 l 661 831 q 654 852 661 846 q 640 831 650 852 l 638 829 m 271 845 l 275 840 l 283 840 l 283 845 l 278 850 l 275 850 l 271 845 m 60 847 l 60 845 l 64 845 l 64 847 l 60 847 m 1161 843 l 1161 838 l 1168 838 l 1168 843 l 1161 843 m 1188 843 l 1186 831 l 1193 838 l 1188 843 m 326 840 l 326 833 l 331 833 l 331 836 l 326 840 m 977 831 l 977 827 l 998 787 l 1005 792 l 1002 799 l 1005 802 q 977 831 996 802 m 69 829 l 67 827 l 67 820 l 71 815 l 76 815 l 76 822 l 69 829 m 670 829 l 670 827 l 672 824 l 670 813 l 670 810 l 675 806 l 680 810 l 680 824 l 675 829 l 670 829 m 1138 824 l 1143 824 l 1143 829 l 1138 824 m 530 827 l 530 824 l 535 820 l 537 822 l 537 824 l 535 827 l 530 827 m 640 822 l 640 820 l 647 820 l 647 822 l 640 822 m 321 820 l 317 808 l 323 802 l 328 802 l 328 804 l 323 820 l 321 820 m 450 810 l 452 808 l 457 808 l 464 815 l 461 817 l 457 817 l 450 810 m 544 817 l 544 813 l 549 817 l 544 817 m 1177 815 l 1177 810 l 1179 810 l 1179 815 l 1177 815 m 1147 808 l 1147 806 l 1152 806 l 1152 808 l 1147 808 m 345 797 l 345 792 l 347 792 l 347 797 l 345 797 m 342 790 l 342 783 l 345 783 l 345 790 l 342 790 m 436 787 l 436 781 l 439 781 l 443 785 l 443 787 l 436 787 m 842 779 l 842 774 l 846 774 l 846 779 l 842 779 m 92 776 l 92 772 l 94 772 l 94 776 l 92 776 m 1083 776 l 1083 774 l 1087 774 l 1087 776 l 1083 776 m 79 758 l 79 751 l 83 751 l 83 753 l 79 758 m 74 737 l 69 726 l 76 719 l 81 719 l 81 721 l 76 737 l 74 737 m 97 714 l 97 709 l 99 709 l 99 714 l 97 714 m 94 707 l 94 701 l 97 701 l 97 707 l 94 707 m 957 581 l 957 576 l 959 576 l 959 581 l 957 581 m 1080 581 l 1080 579 l 1085 579 l 1085 581 l 1080 581 m 1124 572 l 1124 568 l 1126 568 l 1126 572 l 1124 572 m 941 568 q 934 561 941 561 l 934 558 l 941 556 l 943 565 l 943 568 l 941 568 m 1074 568 l 1074 563 l 1076 563 l 1076 568 l 1074 568 m 1028 565 l 1028 563 l 1032 563 l 1032 565 l 1028 565 m 1042 565 l 1048 558 l 1050 558 l 1050 561 l 1046 565 l 1042 565 m 947 563 l 947 561 l 952 561 l 952 563 l 947 563 m 947 556 l 947 553 l 952 553 l 952 556 l 947 556 m 1106 549 l 1106 547 l 1110 547 l 1110 549 l 1106 549 m 861 547 l 861 543 l 863 543 l 867 547 l 861 547 m 895 540 q 909 533 895 535 l 906 545 l 895 540 m 936 533 l 916 535 l 916 533 q 909 528 916 528 l 899 531 q 888 522 889 526 l 888 519 l 890 519 l 897 524 l 899 524 l 904 519 l 899 515 q 911 505 906 515 l 929 515 l 939 515 l 939 513 q 932 508 939 508 l 932 505 l 939 505 l 941 508 l 943 505 l 943 503 l 941 501 l 941 498 l 943 496 l 945 496 l 947 498 l 947 501 l 945 510 l 947 517 l 945 519 l 947 522 l 950 522 l 950 517 l 952 517 l 952 519 l 950 526 l 957 533 l 950 538 l 943 538 l 936 533 m 867 535 l 865 533 l 865 531 q 869 524 869 531 l 872 524 l 874 533 l 867 535 m 1147 533 l 1149 531 l 1149 524 l 1147 524 l 1143 528 l 1147 533 m 876 528 l 876 526 l 881 526 l 881 528 l 876 528 m 920 531 l 922 531 l 927 526 l 920 526 l 920 531 m 828 522 l 838 515 l 840 515 l 840 526 l 833 526 l 828 522 m 1106 526 l 1106 522 l 1110 526 l 1106 526 m 680 524 q 686 508 682 508 l 688 508 l 693 513 l 693 517 q 680 524 693 522 m 1115 522 l 1120 510 l 1128 510 l 1131 517 l 1117 522 l 1115 522 m 1037 517 l 1037 515 l 1042 515 l 1042 517 l 1037 517 m 869 515 l 869 513 l 876 505 l 876 508 l 874 515 l 869 515 m 1195 515 l 1195 508 l 1200 508 l 1200 510 l 1195 515 m 1067 505 l 1067 503 l 1083 503 l 1087 508 l 1083 513 l 1080 513 q 1067 505 1073 505 m 1106 513 l 1106 508 l 1110 513 l 1106 513 m 980 498 l 987 498 l 996 508 l 996 510 l 994 510 l 980 498 m 1092 510 l 1092 505 l 1095 505 l 1095 510 l 1092 510 m 876 490 l 861 492 q 824 471 839 471 l 817 473 l 817 471 q 787 441 787 448 q 753 423 753 429 l 755 423 q 856 478 787 433 q 897 492 882 480 l 902 492 l 899 494 l 899 496 l 904 503 l 892 508 l 890 508 q 879 490 886 508 l 876 490 m 924 505 l 924 503 l 929 503 l 929 505 l 924 505 m 1140 505 l 1140 503 l 1154 498 l 1154 501 l 1149 505 l 1140 505 m 1198 503 l 1202 498 l 1202 503 l 1198 503 m 1037 494 l 1037 490 l 1039 490 l 1039 494 l 1037 494 m 1076 487 l 1076 485 l 1080 485 l 1080 487 l 1076 487 m 1050 476 l 1050 473 l 1055 469 l 1060 469 l 1060 476 l 1050 476 m 1065 467 l 1065 465 l 1072 465 l 1072 467 l 1065 467 m 1002 453 l 1002 450 l 1007 450 l 1007 453 l 1002 453 m 1035 453 l 1035 448 l 1042 446 l 1042 448 l 1037 453 l 1035 453 m 1090 448 l 1090 446 l 1095 446 l 1095 448 l 1090 448 m 1044 432 l 1050 432 l 1053 446 q 1044 432 1044 444 m 1110 430 l 1115 430 l 1120 435 l 1115 435 l 1110 430 m 1021 430 q 1012 405 1017 411 l 1021 400 l 1023 400 q 1032 409 1024 409 l 1032 414 q 1021 430 1025 430 m 1060 427 l 1065 423 l 1067 425 l 1067 427 l 1060 427 m 1005 420 l 1005 416 l 1010 416 l 1010 420 l 1005 420 m 1055 418 l 1055 409 l 1058 409 l 1058 418 l 1055 418 m 1067 416 l 1067 412 l 1072 412 l 1067 416 m 1101 416 l 1101 412 l 1110 409 l 1110 412 l 1106 416 l 1101 416 m 1117 407 l 1122 402 l 1122 407 l 1117 407 m 916 402 l 916 400 l 918 393 l 922 393 l 922 402 l 916 402 m 945 402 l 945 398 l 947 398 l 947 402 l 945 402 m 1128 402 l 1126 400 l 1126 398 l 1133 398 l 1128 402 m 1193 400 l 1193 398 l 1198 398 l 1198 400 l 1193 400 m 1007 398 l 1007 393 l 1012 393 l 1007 398 m 899 393 q 909 382 904 382 l 911 384 l 911 387 l 909 393 l 899 393 m 1021 393 l 1021 387 l 1025 391 l 1025 393 l 1021 393 m 1080 393 l 1080 391 l 1085 391 l 1085 393 l 1080 393 m 1216 379 l 1218 377 l 1218 375 l 1216 372 l 1216 370 l 1221 370 l 1221 379 l 1216 379 m 1025 375 l 1025 370 l 1032 368 l 1032 370 l 1028 375 l 1025 375 m 1007 372 l 1005 363 l 1007 361 l 1010 361 l 1014 368 l 1014 372 l 1007 372 m 1163 354 l 1163 345 l 1165 345 l 1168 354 l 1163 354 m 1050 342 l 1055 342 l 1055 347 l 1050 342 m 1012 338 l 1017 334 l 1017 338 l 1012 338 m 1177 322 l 1181 322 l 1181 327 l 1177 322 m 1152 320 l 1152 315 l 1156 311 l 1158 320 l 1152 320 m 987 297 l 989 288 l 991 288 l 991 297 l 987 297 m 987 286 l 984 279 l 989 279 l 989 286 l 987 286 m 980 258 l 980 253 l 982 253 l 982 258 l 980 258 m 970 216 l 972 214 l 972 212 l 970 205 l 972 205 l 984 216 l 977 221 l 970 216 m 1120 201 l 1120 191 l 1131 178 q 1149 194 1143 182 l 1149 198 q 1133 212 1141 212 q 1120 201 1124 209 m 1092 210 l 1083 194 l 1083 191 l 1085 191 l 1099 201 l 1092 210 m 750 191 l 750 189 l 760 186 l 762 189 l 762 191 l 760 194 l 758 194 l 750 191 m 1092 194 l 1087 186 l 1090 184 l 1092 184 l 1097 189 l 1092 194 m 594 189 q 587 182 594 182 l 587 171 l 592 166 l 594 166 q 608 173 606 166 l 608 182 l 602 189 l 594 189 m 627 176 l 627 166 l 635 166 l 635 176 l 627 176 m 365 136 l 368 120 l 374 120 l 381 127 l 381 134 l 365 136 m 758 130 l 758 125 l 760 125 l 764 130 l 758 130 m 413 98 q 436 70 423 70 l 446 72 l 452 70 q 471 90 471 78 l 471 102 q 443 120 460 120 q 413 98 429 120 m 165 113 l 170 109 l 170 113 l 165 113 m 574 104 l 572 102 l 572 98 l 576 93 l 583 93 l 583 102 l 574 104 m 842 77 q 824 50 842 66 l 821 42 l 824 40 l 836 42 l 838 42 l 842 38 l 842 26 l 849 26 l 863 38 l 863 42 q 846 60 853 60 l 849 72 l 842 77 m 565 56 l 578 50 q 592 63 592 50 q 585 75 591 75 q 565 56 565 75 m 505 60 l 514 58 l 514 72 l 512 72 q 505 60 508 72 m 1113 70 l 1113 63 l 1117 63 l 1122 68 l 1122 70 l 1113 70 m 766 50 l 766 40 l 778 35 l 778 38 q 771 50 775 50 l 766 50 m 425 35 l 418 24 l 420 17 l 416 12 l 416 10 l 441 17 l 441 24 q 425 35 434 35 m 720 35 l 720 28 l 728 28 l 728 35 l 720 35 m 624 5 l 624 3 l 633 3 l 633 10 l 629 10 l 624 5 m 454 8 l 454 3 l 459 8 l 454 8 m 856 3 l 856 1 l 861 1 l 861 3 l 856 3 z "},"&":{"ha":1326,"x_min":43,"x_max":1253,"o":"m 240 962 l 545 962 l 556 953 l 570 962 l 687 962 l 699 956 l 699 962 l 724 962 l 724 958 l 712 956 l 710 958 l 710 956 q 728 949 711 949 q 737 953 728 953 l 740 956 l 740 958 l 730 958 l 730 962 l 737 962 l 744 958 l 760 958 l 760 962 l 795 962 l 797 960 l 799 960 l 797 958 l 797 956 q 806 937 800 937 l 810 937 q 831 960 831 937 l 833 962 l 989 962 l 1015 960 l 1023 962 q 1028 949 1023 949 l 1035 949 l 1035 951 l 1033 962 l 1147 962 l 1158 960 l 1173 962 l 1248 962 l 1253 958 l 1253 829 l 1246 821 l 1253 809 l 1253 770 l 833 349 l 799 326 q 747 264 799 309 l 479 -4 l 471 -4 l 465 1 l 458 -4 l 456 -2 l 444 -4 l 414 -4 l 387 -2 l 359 -4 l 321 -4 l 318 -2 l 316 -4 l 311 -4 l 311 -2 l 316 5 l 302 14 l 300 12 l 300 9 l 307 1 l 307 -4 l 277 -4 l 277 1 l 275 1 l 268 -4 l 110 -4 l 110 -2 l 130 19 l 137 16 l 137 19 q 181 69 137 32 q 369 257 363 257 q 501 390 369 265 l 515 387 l 515 390 l 511 397 l 511 399 l 552 440 l 554 440 l 554 435 l 561 435 l 561 438 l 559 450 l 597 488 l 604 484 l 607 484 l 607 486 l 604 498 l 875 768 l 279 768 l 279 770 l 281 777 l 277 777 l 275 774 l 273 774 l 275 772 l 275 768 l 48 768 l 43 772 q 105 912 43 839 l 108 914 l 110 914 l 121 912 l 121 909 l 117 903 l 117 898 l 121 894 l 128 894 q 133 905 129 905 l 135 903 l 137 903 l 144 905 l 151 903 l 165 921 l 163 924 l 163 926 l 167 937 q 158 944 158 937 q 170 951 158 948 l 174 946 l 178 946 l 176 949 l 176 951 q 203 958 184 958 l 206 956 l 208 956 l 213 960 l 220 960 q 238 944 220 944 l 238 946 l 243 953 l 240 962 m 385 956 q 394 944 389 945 l 403 944 l 403 946 q 394 960 403 956 l 385 956 m 517 958 l 522 953 l 522 958 l 517 958 m 1211 956 l 1209 953 l 1209 951 l 1214 946 l 1218 946 l 1218 953 l 1211 956 m 497 942 q 506 921 498 921 l 513 924 l 513 921 l 515 924 l 527 924 l 529 921 l 531 921 l 529 919 l 529 916 l 534 909 q 543 916 543 913 l 543 919 q 517 951 534 919 l 506 953 q 499 942 499 953 l 497 942 m 772 953 l 772 949 l 777 953 l 772 953 m 884 953 l 884 951 l 888 951 l 888 953 l 884 953 m 744 951 l 744 946 l 747 946 l 747 951 l 744 951 m 595 949 q 577 928 595 943 l 577 921 q 586 916 577 916 l 586 912 l 577 912 l 577 905 l 586 905 l 593 909 l 595 909 l 597 907 l 600 907 q 611 928 611 916 q 595 949 611 937 m 185 946 l 185 944 l 192 944 l 192 946 l 185 946 m 250 944 l 243 935 l 252 935 l 256 939 l 250 944 m 295 944 l 295 939 l 300 935 l 304 935 l 304 937 l 302 944 l 295 944 m 316 944 l 321 939 l 321 944 l 316 944 m 471 944 l 471 939 l 479 939 l 479 942 l 471 944 m 486 944 l 490 939 l 492 939 l 488 944 l 486 944 m 552 937 l 556 937 l 556 942 l 552 937 m 369 939 l 369 937 l 376 935 l 376 939 l 369 939 m 419 939 l 414 924 q 435 907 414 911 q 449 921 443 921 l 449 928 q 428 939 439 939 l 419 939 m 572 937 l 572 935 l 577 935 l 577 937 l 572 937 m 692 937 q 707 916 695 920 l 712 916 l 726 921 q 712 937 716 937 l 707 937 l 699 935 l 692 937 m 371 930 l 371 928 l 376 924 l 380 924 l 380 926 l 376 930 l 371 930 m 820 924 l 827 924 l 827 928 l 824 928 l 820 924 m 898 926 l 902 921 l 902 926 l 898 926 m 989 926 l 987 919 l 989 916 l 991 916 l 998 919 l 998 926 l 989 926 m 254 924 l 254 919 l 252 919 l 254 912 l 263 912 l 268 916 l 268 919 l 263 924 l 254 924 m 564 919 l 564 916 l 574 916 l 572 924 l 568 924 l 564 919 m 403 919 l 401 916 l 401 914 l 403 912 l 410 912 l 410 916 l 403 919 m 453 919 l 453 907 l 467 903 l 476 909 q 460 919 473 919 l 453 919 m 675 919 l 675 914 l 680 914 l 675 919 m 850 916 l 847 914 l 847 907 l 854 909 l 854 912 l 850 916 m 1099 907 l 1106 907 l 1111 912 l 1108 914 l 1106 914 l 1099 907 m 829 909 l 827 901 l 829 898 l 831 898 l 836 903 l 836 905 l 831 909 l 829 909 m 909 909 l 909 905 l 913 909 l 909 909 m 1065 909 l 1065 903 l 1069 903 l 1069 909 l 1065 909 m 623 907 l 623 905 l 627 905 l 627 907 l 623 907 m 859 903 l 861 901 l 863 901 l 863 907 l 859 903 m 795 905 l 795 898 l 797 898 l 802 903 l 802 905 l 795 905 m 1158 905 l 1158 903 q 1170 889 1164 903 l 1173 889 l 1177 894 q 1161 905 1177 899 l 1158 905 m 1188 905 l 1188 901 l 1193 905 l 1188 905 m 416 898 l 421 898 l 421 903 l 416 898 m 346 896 l 346 887 l 355 887 q 361 901 359 887 l 350 901 l 346 896 m 486 901 l 483 894 l 486 891 l 494 891 l 497 898 l 486 901 m 673 896 l 673 889 l 675 889 l 680 898 l 680 901 l 677 901 l 673 896 m 206 898 l 211 894 l 215 894 l 215 898 l 206 898 m 705 894 l 710 889 l 712 889 l 717 894 l 717 898 l 705 894 m 749 898 l 747 891 q 753 884 753 891 l 760 884 l 753 894 l 755 896 l 755 898 l 749 898 m 854 896 l 854 894 l 859 894 l 863 887 l 870 889 l 870 898 l 854 896 m 137 871 l 146 864 q 172 884 172 864 l 153 896 q 137 871 142 896 m 412 896 l 412 891 l 414 891 l 414 896 l 412 896 m 579 894 q 570 873 572 886 q 593 864 583 873 q 607 882 593 882 l 607 887 l 579 894 m 726 894 l 722 887 l 726 882 l 730 887 l 730 889 l 726 894 m 373 889 l 373 884 l 378 889 l 373 889 m 785 880 l 787 859 l 790 859 q 797 864 790 864 q 808 878 797 872 l 804 889 l 795 889 l 785 880 m 1111 889 l 1111 887 l 1115 878 l 1122 878 q 1111 889 1120 889 m 369 880 l 369 876 l 376 876 l 376 880 l 369 880 m 536 878 l 538 876 l 538 873 l 545 876 l 545 878 l 536 878 m 604 871 l 604 869 q 623 852 604 852 l 627 861 l 618 878 q 604 871 610 871 m 1023 878 l 1023 873 l 1030 873 l 1030 878 l 1023 878 m 1118 869 l 1118 861 l 1126 861 l 1126 866 l 1129 866 l 1126 873 l 1122 873 l 1118 869 m 1095 866 l 1095 861 l 1099 861 l 1095 866 m 474 859 l 474 854 q 486 846 479 846 q 497 823 494 841 l 522 811 l 529 814 l 536 811 q 549 846 549 828 l 538 859 l 529 861 l 515 857 l 513 859 l 511 857 l 501 857 l 492 864 l 479 864 l 474 859 m 364 848 l 378 843 l 385 843 l 387 852 l 373 861 q 364 848 364 859 m 1101 861 l 1101 857 l 1106 857 l 1101 861 m 987 859 l 987 857 l 991 857 l 991 859 l 987 859 m 570 854 l 570 852 l 577 852 l 577 854 l 570 854 m 330 852 l 328 846 l 330 843 l 332 843 l 339 846 l 339 852 l 330 852 m 634 852 l 627 843 l 637 843 l 641 848 l 641 850 l 634 852 m 295 846 l 302 836 l 313 836 l 313 843 l 307 850 l 302 850 l 295 846 m 426 850 l 426 843 l 442 832 l 451 839 q 426 850 436 850 m 932 846 l 935 843 l 939 843 l 943 848 l 941 850 l 937 850 l 932 846 m 1184 846 l 1184 843 l 1188 843 l 1188 841 l 1196 843 l 1196 846 l 1191 850 l 1188 850 l 1184 846 m 804 848 l 804 846 l 808 846 l 808 848 l 804 848 m 957 846 l 957 843 l 962 843 l 962 846 l 957 846 m 270 839 l 270 836 l 275 836 l 275 839 l 270 839 m 998 839 l 998 836 l 1005 836 l 1005 839 l 998 839 m 1232 839 l 1232 836 l 1236 836 l 1236 839 l 1232 839 m 732 836 l 732 829 l 737 834 l 737 836 l 732 836 m 1019 836 l 1019 834 l 1023 829 l 1028 834 l 1028 836 l 1019 836 m 639 832 l 639 827 l 637 827 l 639 821 l 652 821 l 652 827 l 648 832 l 639 832 m 838 827 l 838 816 l 852 811 l 861 818 q 845 827 857 827 l 838 827 m 1161 825 l 1161 821 l 1168 814 l 1170 814 l 1173 825 l 1173 827 l 1161 825 m 1198 827 l 1198 823 l 1202 823 l 1202 827 l 1198 827 m 820 821 l 820 814 l 827 821 l 827 825 l 824 825 l 820 821 m 1005 825 l 1005 821 l 1010 821 l 1010 825 l 1005 825 m 385 816 l 385 811 l 396 800 l 406 800 l 414 809 l 401 821 l 394 821 l 385 816 m 1175 821 l 1179 816 l 1181 816 l 1177 821 l 1175 821 m 714 814 l 719 814 l 719 818 l 714 814 m 126 806 l 126 802 l 128 800 l 128 798 q 149 804 149 800 l 144 816 l 135 816 l 126 806 m 978 814 l 982 809 l 982 814 l 978 814 m 802 806 l 806 806 l 806 811 l 802 806 m 730 804 l 730 795 l 742 795 l 747 809 l 735 809 l 730 804 m 870 809 l 868 802 l 870 800 l 880 800 l 882 806 l 870 809 m 458 806 l 458 804 l 463 804 l 463 806 l 458 806 m 591 806 l 591 802 l 600 802 l 600 806 l 591 806 m 1026 802 l 1026 800 l 1028 800 l 1035 806 l 1030 806 l 1026 802 m 1133 806 l 1131 800 l 1138 800 l 1140 806 l 1133 806 m 364 804 l 364 800 l 371 800 l 371 804 l 364 804 m 524 793 l 524 779 l 531 772 q 556 793 556 772 l 538 804 q 524 793 528 801 m 561 795 l 566 791 l 566 795 l 561 795 m 732 791 l 732 788 q 742 781 732 781 q 760 788 760 783 l 755 788 l 753 786 l 751 786 l 744 793 l 732 791 m 197 777 l 197 774 l 203 774 l 203 777 l 197 777 m 945 772 q 960 766 945 768 l 960 777 l 950 777 l 945 772 m 945 761 l 950 761 l 950 766 l 945 761 m 1017 745 l 1019 743 l 1023 743 l 1028 747 l 1028 751 l 1023 751 l 1017 745 m 971 749 l 966 743 l 971 738 l 978 745 l 971 749 m 1046 743 l 1046 740 l 1051 740 l 1051 743 l 1046 743 m 1090 743 l 1090 736 l 1095 740 l 1093 743 l 1090 743 m 913 740 l 913 736 l 916 736 l 920 740 l 913 740 m 859 726 l 859 720 l 863 720 l 868 724 l 868 726 l 863 731 l 859 726 m 1099 722 l 1103 722 l 1103 726 l 1099 722 m 842 715 l 842 713 l 847 713 l 847 715 l 842 715 m 948 701 l 953 701 l 953 706 l 948 701 m 920 690 l 920 688 l 923 685 l 923 683 q 935 694 929 683 l 932 696 l 927 696 l 920 690 m 1060 694 l 1060 688 l 1065 688 l 1069 692 l 1069 694 l 1060 694 m 824 674 l 829 669 l 833 669 l 842 674 l 842 676 l 833 681 l 831 681 l 824 674 m 859 676 l 859 671 l 861 671 l 865 676 l 859 676 m 923 663 l 923 658 l 927 658 l 927 663 l 923 663 m 810 653 l 810 651 l 822 648 l 822 653 l 810 653 m 669 550 l 669 545 l 673 545 l 669 550 m 722 538 l 722 534 l 726 530 l 728 532 l 730 532 l 728 538 l 722 538 m 687 520 l 689 513 l 699 513 l 699 518 l 694 523 l 692 523 l 689 520 l 687 520 m 769 513 l 769 509 l 774 509 l 774 513 l 769 513 m 701 509 q 689 502 701 502 l 692 500 l 692 498 l 680 486 l 673 488 l 673 486 q 666 481 673 481 l 659 484 l 659 477 l 675 460 l 677 460 q 684 472 678 472 l 689 472 l 719 456 l 722 456 l 726 460 l 726 463 q 701 509 713 509 m 634 498 l 632 486 l 634 484 l 637 484 l 639 495 l 637 498 l 634 498 m 785 493 l 787 486 l 792 486 l 792 493 l 785 493 m 755 488 l 755 481 l 758 481 l 758 488 l 755 488 m 621 475 l 623 468 l 629 468 l 629 472 l 621 475 m 611 445 l 611 440 l 616 445 l 611 445 m 694 431 l 694 429 l 705 427 l 705 433 l 701 433 l 699 435 l 694 431 m 744 424 l 744 420 l 747 420 l 747 424 l 744 424 m 774 422 l 774 415 l 779 415 l 779 422 l 774 422 m 671 408 l 673 399 l 677 399 q 684 413 682 399 l 682 413 l 671 408 m 701 410 l 701 408 l 705 408 l 705 410 l 701 410 m 758 408 l 758 401 l 762 397 l 769 397 l 769 406 l 758 408 m 687 406 l 687 401 l 692 401 l 687 406 m 710 395 l 707 392 l 710 385 l 712 385 l 714 392 l 712 395 l 710 395 m 724 387 l 722 385 l 722 380 l 728 380 l 728 383 l 724 387 m 817 387 l 815 385 l 815 380 l 822 380 l 822 383 l 817 387 m 609 385 q 591 372 600 372 l 589 374 l 586 372 l 586 369 l 589 367 l 589 365 l 582 347 l 586 332 q 618 317 614 324 q 629 323 629 319 l 625 337 q 637 362 625 345 l 609 385 m 747 362 l 747 360 l 751 355 l 753 355 l 753 365 l 747 362 m 515 347 l 513 344 l 513 340 l 524 337 l 524 344 l 515 347 m 772 347 l 772 337 l 777 332 l 779 332 l 781 344 l 779 347 l 772 347 m 795 347 l 795 342 l 802 342 l 797 347 l 795 347 m 744 337 l 744 332 l 742 330 l 747 326 l 753 328 l 753 330 l 747 337 l 744 337 m 556 330 l 556 326 l 564 323 l 566 326 l 566 328 l 556 330 m 488 323 l 488 317 l 492 312 l 494 312 q 501 326 499 312 l 499 326 l 488 323 m 664 314 l 671 310 l 677 317 l 677 321 l 673 321 l 673 323 q 664 314 666 321 m 501 317 l 506 312 l 506 317 l 501 317 m 552 312 l 554 302 l 566 305 l 564 312 l 552 312 m 572 307 l 572 305 l 579 298 l 584 298 l 586 305 l 577 312 l 572 307 m 774 305 l 777 302 l 779 302 l 779 310 l 774 305 m 572 282 l 574 280 l 577 280 q 591 284 577 284 l 591 296 l 584 296 l 572 282 m 531 282 l 531 280 l 536 280 l 536 282 l 531 282 m 696 271 l 696 262 l 703 255 l 707 255 l 717 259 l 717 269 l 707 277 l 703 277 l 696 271 m 602 255 l 604 252 l 607 252 l 607 259 l 602 255 m 602 245 l 602 241 l 607 241 l 607 245 l 602 245 m 549 241 l 549 237 l 554 232 l 559 232 l 559 241 l 549 241 m 641 237 l 646 227 l 652 227 l 652 241 l 646 241 l 641 237 m 366 225 l 366 220 l 369 220 l 369 225 l 366 225 m 604 225 l 602 211 l 609 207 l 616 214 q 607 225 607 218 l 604 225 m 549 222 l 547 216 l 549 214 l 556 214 l 556 222 l 549 222 m 574 222 l 574 218 l 577 218 l 577 222 l 574 222 m 632 209 l 632 197 l 634 197 l 637 207 l 634 209 l 632 209 m 479 195 l 479 172 l 481 172 l 481 195 l 479 195 m 318 165 l 318 159 l 323 154 l 330 159 l 328 165 l 318 165 m 629 165 l 629 156 l 634 156 l 639 161 l 639 165 l 629 165 m 435 163 l 431 149 l 437 144 l 449 144 l 451 159 l 437 163 l 435 163 m 295 156 l 295 154 l 300 149 l 300 152 l 295 156 m 348 149 l 350 142 l 357 144 l 357 149 l 353 154 l 348 149 m 536 136 l 552 134 l 556 142 q 543 152 554 152 l 541 149 q 534 136 536 149 l 536 136 m 325 138 l 323 129 l 325 126 l 332 126 l 332 134 l 328 138 l 325 138 m 252 126 l 248 115 l 250 113 l 252 113 q 256 119 252 119 l 254 126 l 252 126 m 233 108 l 231 97 l 238 92 l 245 92 l 252 97 l 248 108 l 233 108 m 568 108 l 568 106 l 572 106 l 572 108 l 568 108 m 311 97 l 307 87 l 311 87 l 311 85 l 307 81 l 309 74 q 330 94 330 82 l 311 97 m 508 87 l 511 85 l 511 83 q 527 92 527 85 l 524 94 q 508 87 508 92 m 403 92 l 403 87 l 406 87 l 406 92 l 403 92 m 261 74 l 258 76 l 254 76 q 261 71 254 71 l 263 69 l 263 67 l 258 60 l 261 58 l 266 58 q 277 67 266 67 l 279 69 l 279 71 q 273 85 273 74 q 261 74 267 83 m 288 85 l 288 81 l 291 81 l 291 85 l 288 85 m 364 79 l 364 71 q 371 67 371 71 l 373 67 l 378 81 l 378 85 q 364 79 364 82 m 504 79 l 504 74 l 506 74 l 506 79 l 504 79 m 286 76 l 286 71 l 288 71 l 288 76 l 286 76 m 291 76 l 291 74 l 300 74 l 300 76 l 291 76 m 268 71 l 273 71 l 273 69 l 268 69 l 268 71 m 380 64 l 380 56 l 382 58 l 394 56 l 398 56 l 403 60 l 403 62 q 394 67 394 62 l 380 64 m 511 64 l 511 60 l 515 64 l 511 64 m 492 56 l 494 53 l 497 53 l 501 60 l 501 62 l 499 62 l 492 56 m 428 60 l 426 49 l 428 42 l 431 42 l 439 60 l 428 60 m 339 42 l 339 39 l 343 39 l 343 37 l 359 49 l 359 51 l 353 51 l 339 42 m 481 44 l 481 39 q 494 46 494 42 l 492 46 l 481 44 m 254 39 l 258 39 l 258 44 l 254 39 m 387 42 l 389 39 l 389 37 l 387 35 l 387 33 q 398 12 387 21 l 394 5 l 419 1 l 424 5 l 426 5 l 426 1 q 437 16 437 3 l 431 16 l 424 12 l 421 12 l 416 16 l 419 26 q 394 39 394 36 l 394 44 l 391 44 l 389 42 l 387 42 m 323 33 l 323 31 l 328 31 l 328 33 l 323 33 m 465 33 l 465 28 l 474 26 l 476 28 l 476 31 l 465 33 m 336 28 l 336 24 l 341 24 l 341 28 l 336 28 m 465 24 l 465 21 l 469 21 l 469 24 l 465 24 m 471 19 l 479 9 l 483 16 l 483 19 l 479 24 l 476 24 l 471 19 m 321 14 l 321 12 l 325 3 l 328 3 l 332 12 l 332 21 l 330 21 l 321 14 m 350 19 l 350 16 l 355 16 l 355 19 l 350 19 m 371 19 l 369 12 l 373 12 l 373 19 l 371 19 m 334 12 l 339 12 l 339 16 l 334 12 m 449 12 l 449 7 l 451 7 l 451 12 l 449 12 m 222 9 l 222 5 l 224 5 l 224 9 l 222 9 m 359 9 l 359 5 l 361 5 l 361 9 l 359 9 m 366 9 l 366 7 l 371 7 l 371 9 l 366 9 z "},"'":{"ha":235,"x_min":0,"x_max":0,"o":""},"(":{"ha":1331,"x_min":33,"x_max":1253,"o":"m 197 967 l 231 967 l 245 962 l 250 967 l 368 967 l 384 951 l 397 951 l 397 956 l 405 960 l 402 967 l 481 967 q 511 962 500 967 l 518 965 l 525 962 l 530 967 l 827 967 l 844 962 l 858 967 l 1013 967 l 1021 960 l 1033 967 l 1088 967 q 1128 956 1124 964 l 1126 954 l 1126 951 l 1131 951 l 1135 956 q 1162 928 1151 956 l 1162 926 l 1177 926 q 1241 833 1205 926 l 1244 824 l 1236 821 q 1248 801 1238 808 l 1253 780 l 1253 773 q 1239 759 1239 773 q 1253 750 1253 753 l 1253 724 q 1246 720 1253 720 l 1236 724 l 1227 711 l 1232 694 q 1227 688 1227 694 l 1230 676 l 1236 676 l 1248 685 l 1253 680 l 1253 614 l 1241 616 l 1236 616 l 1236 614 q 1253 602 1242 614 l 1253 526 l 1244 517 l 1253 503 l 1253 427 l 1251 415 l 1253 401 l 1253 343 q 1236 336 1253 338 l 1236 327 l 1239 325 q 1251 320 1239 320 l 1253 317 l 1253 168 l 1246 168 l 1253 158 l 1253 128 l 1251 128 l 1244 133 l 1241 133 l 1239 123 q 1246 119 1246 123 l 1248 121 l 1253 121 l 1253 98 q 1225 115 1225 98 l 1211 115 l 1202 105 q 1225 89 1202 92 l 1227 89 l 1244 94 l 1246 92 l 1246 89 l 1248 92 l 1253 92 l 1253 87 l 1248 82 l 1246 84 l 1239 77 q 1234 84 1234 77 l 1232 84 q 1204 68 1228 68 l 1204 61 l 1208 56 l 1211 56 l 1211 61 l 1216 61 q 1220 47 1216 47 l 1239 59 l 1239 68 l 1244 68 l 1244 59 l 1246 59 l 1248 61 l 1251 61 l 1253 59 l 1253 38 l 1244 36 l 1244 33 l 1253 33 l 1253 -3 l 1248 -8 l 1239 -8 l 1230 -6 l 1220 -8 l 1208 -8 q 1204 -1 1204 -8 l 1202 -1 l 1193 -8 l 1177 -8 l 1167 -1 l 1156 -1 l 1146 -8 l 1135 -8 l 1131 -3 l 1131 -1 l 1135 3 l 1135 -1 l 1139 -1 l 1139 3 q 1119 10 1126 5 l 1114 10 l 1107 3 l 1109 -3 l 1107 -3 l 1098 -8 l 1088 -8 l 1088 -3 l 1091 -1 l 1091 1 l 1088 3 l 1086 1 l 1082 1 q 1070 15 1082 12 l 1070 22 l 1068 22 l 1057 17 l 1057 13 l 1061 5 l 1061 1 l 1059 1 l 1052 3 l 1040 -8 l 1006 -8 l 989 10 l 966 13 q 947 3 954 10 l 950 1 l 950 -3 l 945 -8 l 943 -6 l 932 -8 l 929 -8 q 924 -1 924 -8 l 916 -1 q 911 -8 916 -8 l 908 -8 q 904 3 904 -8 l 897 10 q 913 15 907 10 l 916 13 l 918 13 q 929 29 918 20 l 929 31 l 927 33 l 927 36 l 929 38 q 911 43 916 38 l 913 31 l 913 29 q 906 24 913 24 l 895 26 l 897 10 l 890 10 l 876 17 l 876 15 l 873 13 l 873 10 l 876 -3 l 876 -8 l 865 -8 l 858 -3 l 853 -8 l 747 -8 l 740 -3 l 737 -3 l 730 -8 l 728 -6 l 726 -8 l 719 -8 l 719 -6 l 721 5 l 707 -8 l 696 -8 l 696 -3 l 707 -3 l 707 1 l 696 5 l 694 5 q 686 -8 694 -8 l 631 -8 l 627 -3 l 631 1 l 620 3 q 610 -8 615 -7 l 245 -8 q 229 8 245 8 l 229 5 l 231 -6 l 229 -8 l 213 -8 q 164 3 205 -3 q 77 71 92 35 q 33 184 42 113 l 33 189 l 35 191 l 814 191 l 827 189 l 839 191 l 973 191 l 973 260 l 978 264 l 978 258 l 987 264 l 989 255 l 996 260 l 1013 260 l 1013 264 q 1003 269 1003 264 l 1003 292 l 1001 292 l 994 288 l 987 288 l 985 290 l 983 290 l 978 281 l 980 274 l 978 274 l 973 279 l 973 315 l 975 317 l 973 320 l 973 364 l 231 364 q 120 396 166 364 q 93 419 105 404 l 95 431 l 81 431 l 81 447 q 65 458 65 447 l 62 461 q 56 475 58 462 l 58 475 q 67 481 67 475 l 65 481 l 56 479 q 44 512 44 491 q 56 519 50 519 l 56 524 l 42 514 q 33 560 37 519 l 33 625 l 37 632 l 35 639 l 37 639 l 49 634 l 49 639 q 33 646 33 640 l 33 762 q 56 861 33 816 q 70 865 70 861 l 70 867 l 62 877 q 169 962 87 930 l 197 967 m 793 962 l 793 958 l 798 958 l 798 962 l 793 962 m 721 956 l 721 946 l 732 946 l 737 960 l 726 960 l 721 956 m 862 960 l 860 954 l 862 951 l 871 951 l 873 958 l 862 960 m 581 958 l 585 954 l 589 954 l 589 958 l 581 958 m 513 944 l 513 930 l 520 923 q 545 944 545 923 l 527 956 q 513 944 517 952 m 264 949 l 264 946 q 273 954 273 949 l 269 954 l 264 949 m 483 954 l 483 951 l 486 944 l 488 944 l 492 949 l 488 954 l 483 954 m 1019 951 l 1017 944 l 1019 942 l 1026 942 l 1026 946 l 1021 951 l 1019 951 m 215 949 l 210 942 l 210 939 l 215 939 l 220 944 l 215 949 m 125 932 l 125 930 l 130 930 l 134 935 l 134 939 l 132 939 l 125 932 m 745 939 l 745 935 l 747 935 l 751 939 l 745 939 m 169 935 l 169 930 l 171 923 l 178 926 q 169 935 176 932 m 182 928 l 182 926 l 190 926 l 190 928 l 182 928 m 405 923 l 405 921 l 409 921 l 409 923 l 405 923 m 904 923 l 904 916 l 908 916 l 908 918 l 904 923 m 957 918 l 959 916 l 959 914 l 957 907 l 964 903 l 968 907 l 962 918 l 957 918 m 243 914 l 243 911 l 248 907 l 248 914 l 243 914 m 1126 905 l 1126 900 q 1139 893 1126 896 l 1146 903 l 1146 914 q 1126 905 1126 910 m 705 911 l 703 905 l 705 903 l 707 903 l 714 905 l 714 911 l 705 911 m 515 907 l 515 903 l 520 903 l 515 907 m 289 900 l 289 891 l 300 893 q 289 900 300 897 m 816 893 l 823 893 l 827 898 l 825 900 l 823 900 l 816 893 m 883 900 l 883 895 l 885 895 l 885 900 l 883 900 m 271 893 l 271 888 l 277 888 l 277 893 l 271 893 m 220 888 l 220 884 l 227 884 l 227 891 l 220 888 m 906 891 l 906 886 l 911 891 l 906 891 m 95 886 q 88 882 95 882 l 88 880 l 93 875 l 100 882 l 95 886 m 377 886 l 377 884 l 382 884 l 382 886 l 377 886 m 906 877 l 906 867 l 916 865 l 916 872 l 911 877 l 906 877 m 1093 872 l 1098 872 l 1098 877 l 1093 872 m 499 865 l 499 861 l 502 859 l 502 856 q 522 863 522 859 l 518 875 l 509 875 l 499 865 m 705 875 l 709 870 l 709 875 l 705 875 m 233 865 l 238 865 l 238 870 l 233 865 m 254 865 q 269 849 254 854 l 280 859 l 280 861 q 264 870 276 870 l 259 870 l 254 865 m 834 865 l 834 863 l 839 863 l 839 865 l 834 865 m 740 863 l 740 859 l 747 859 l 747 863 l 740 863 m 1047 863 l 1045 861 l 1045 859 l 1052 859 l 1047 863 m 957 856 l 962 852 l 966 852 l 966 856 l 962 861 l 957 856 m 1170 856 l 1170 852 l 1174 847 l 1179 847 l 1179 849 l 1172 856 l 1170 856 m 1190 856 l 1195 852 l 1195 856 l 1190 856 m 148 844 l 148 836 l 162 836 l 167 849 l 164 852 q 148 844 148 849 m 218 847 l 227 847 l 227 852 l 222 852 l 218 847 m 289 852 l 287 849 l 287 840 l 296 840 l 303 847 l 303 849 l 289 852 m 994 842 l 1001 831 l 1008 838 l 1008 842 l 1001 849 l 994 842 m 555 847 l 553 840 l 559 840 l 562 847 l 555 847 m 927 844 l 927 838 l 932 833 l 939 836 l 943 831 l 943 836 l 939 836 l 939 840 l 941 842 l 941 844 l 927 844 m 1100 840 l 1103 838 l 1107 838 l 1107 844 l 1105 844 l 1100 840 m 957 838 l 957 833 l 959 833 l 959 838 l 957 838 m 647 831 l 650 829 l 652 829 l 656 833 l 656 836 l 652 836 l 647 831 m 959 814 q 964 805 964 814 l 975 801 l 978 801 l 985 805 l 1006 805 l 1013 801 l 1015 801 l 1019 805 q 1001 821 1013 821 q 975 836 986 821 q 959 814 959 831 m 171 831 l 171 824 l 178 824 l 178 831 l 171 831 m 714 824 l 714 821 l 721 821 l 721 824 l 714 824 m 1158 821 l 1158 817 l 1162 812 l 1165 812 l 1170 817 l 1165 824 l 1158 821 m 735 821 l 735 819 l 740 814 l 745 819 l 745 821 l 735 821 m 916 812 l 916 808 l 920 808 l 920 812 l 916 812 m 791 810 l 791 805 l 793 805 l 793 810 l 791 810 m 1126 808 l 1121 793 l 1128 789 l 1139 789 l 1142 803 l 1128 808 l 1126 808 m 58 803 l 58 798 l 65 798 l 65 805 l 58 803 m 1086 805 l 1086 803 l 1091 798 l 1093 801 l 1093 803 l 1091 805 l 1086 805 m 132 801 l 130 793 l 132 791 l 134 791 l 141 793 l 141 801 l 132 801 m 860 801 q 876 789 867 789 l 876 796 l 871 801 l 860 801 m 248 789 l 243 782 l 245 782 l 257 785 l 257 787 l 248 789 m 1015 782 l 1013 773 l 1019 768 l 1021 770 l 1021 782 l 1015 782 m 273 780 l 277 775 l 277 780 l 273 780 m 333 780 l 333 775 l 338 780 l 333 780 m 446 775 l 446 773 l 453 766 l 460 766 l 463 768 l 465 768 l 458 775 l 458 778 l 446 775 m 520 762 l 525 762 l 525 766 l 520 762 m 1033 764 l 1038 759 l 1038 764 l 1033 764 m 1170 757 l 1172 747 l 1188 747 l 1188 755 l 1181 762 l 1177 762 l 1170 757 m 312 757 l 312 579 l 848 579 l 850 576 l 853 579 l 973 579 l 973 736 l 978 743 l 978 745 l 973 757 l 312 757 m 261 755 l 261 752 l 266 752 l 266 755 l 261 755 m 167 747 l 174 747 l 174 752 l 171 752 l 167 747 m 1042 752 l 1042 747 l 1045 747 l 1045 752 l 1042 752 m 1144 750 l 1144 747 l 1149 747 l 1149 750 l 1144 750 m 1021 745 l 1021 739 l 1026 739 l 1026 741 l 1021 745 m 1086 736 l 1086 727 l 1095 718 q 1105 724 1105 721 l 1105 729 q 1091 736 1103 736 l 1086 736 m 74 722 l 74 720 l 77 718 l 77 715 q 85 722 85 719 l 81 727 l 79 727 l 74 722 m 1019 722 l 1015 711 l 1021 704 q 1026 711 1026 704 l 1021 722 l 1019 722 m 141 713 l 146 708 l 148 711 l 148 713 l 141 713 m 159 706 l 169 704 l 171 706 l 171 711 l 164 711 l 159 706 m 1042 699 l 1040 690 l 1042 688 l 1045 688 l 1045 699 l 1042 699 m 1070 688 l 1070 685 l 1077 685 l 1077 688 l 1070 688 m 1200 662 q 1213 653 1200 656 l 1220 662 l 1220 673 q 1200 662 1201 673 m 1093 660 l 1093 655 l 1095 655 l 1095 660 l 1093 660 m 1177 657 l 1177 650 l 1188 653 l 1183 657 l 1177 657 m 980 639 l 978 637 l 978 634 q 989 625 979 628 l 989 637 l 980 639 m 171 637 l 171 632 l 176 632 l 176 637 l 171 637 m 227 637 l 224 634 q 231 625 228 625 l 233 627 l 233 634 l 227 637 m 1091 629 l 1091 627 l 1095 627 l 1095 629 l 1091 629 m 1121 623 l 1119 621 l 1119 618 l 1126 618 l 1121 623 m 37 609 l 42 600 l 49 602 l 49 609 l 44 614 l 37 609 m 1070 609 l 1068 600 l 1075 595 l 1080 595 l 1082 597 l 1084 597 q 1075 609 1080 608 l 1070 609 m 37 586 l 37 583 l 42 583 l 42 586 l 37 586 m 134 586 l 134 576 l 139 572 l 141 572 q 146 579 146 572 l 144 586 l 134 586 m 1063 574 l 1063 570 l 1068 565 l 1077 565 l 1077 572 l 1070 579 l 1068 579 l 1063 574 m 187 576 l 187 574 q 192 565 192 574 l 197 565 l 197 563 l 203 565 l 203 567 q 190 576 203 572 l 187 576 m 44 570 l 44 565 l 49 570 l 49 574 l 44 570 m 756 563 l 756 560 l 758 560 l 763 570 l 763 572 q 756 563 760 572 m 1126 558 l 1126 555 l 1133 555 l 1133 558 l 1126 558 m 136 553 l 144 547 l 146 547 l 146 553 l 136 553 m 975 553 l 970 549 l 973 547 l 973 544 l 970 537 l 973 537 q 983 544 983 541 l 983 547 l 975 553 m 770 547 l 772 530 l 774 530 q 781 542 774 537 q 774 551 778 551 l 770 547 m 883 547 l 890 540 l 897 540 l 897 544 l 890 551 l 888 551 l 883 547 m 1105 547 l 1109 542 l 1112 544 l 1112 551 l 1109 551 l 1105 547 m 964 549 l 964 544 l 968 549 l 964 549 m 1151 544 l 1151 542 l 1156 542 l 1156 544 l 1151 544 m 950 542 l 950 537 l 952 537 l 952 542 l 950 542 m 1160 540 l 1160 537 l 1165 532 l 1167 532 l 1165 540 l 1160 540 m 1098 535 l 1088 521 q 1098 473 1088 500 q 1109 486 1109 478 l 1107 486 q 1095 500 1095 486 l 1093 500 l 1100 532 l 1100 535 l 1098 535 m 218 528 l 218 519 l 224 519 l 229 524 l 222 528 l 218 528 m 908 528 l 908 524 l 913 524 l 908 528 m 266 521 l 271 521 l 271 526 l 266 521 m 132 524 l 132 519 l 136 519 l 136 524 l 132 524 m 952 524 l 950 521 l 950 517 l 959 514 l 962 517 l 962 521 l 952 524 m 760 519 l 760 517 l 765 512 l 765 519 l 760 519 m 1026 519 l 1026 514 l 1031 514 l 1026 519 m 56 517 l 54 507 l 60 507 l 60 512 l 56 517 m 1116 512 l 1119 509 l 1126 509 l 1126 512 l 1121 517 l 1116 512 m 282 509 q 289 500 286 500 l 294 500 l 298 505 l 292 512 l 287 512 l 284 509 l 282 509 m 1040 512 l 1045 507 l 1045 512 l 1040 512 m 1137 512 l 1137 507 q 1154 498 1137 503 l 1158 505 q 1137 512 1158 510 m 1188 509 l 1188 505 l 1193 505 l 1193 509 l 1188 509 m 1218 509 l 1218 507 l 1223 507 l 1223 509 l 1218 509 m 224 505 l 224 503 l 229 503 l 229 505 l 224 505 m 199 498 l 199 493 l 208 486 l 210 498 l 210 503 l 208 503 l 199 498 m 996 491 l 996 484 q 1013 468 1001 473 l 1015 468 l 1031 477 l 1033 477 l 1040 473 l 1047 473 l 1047 491 l 1045 491 l 1029 489 l 1013 503 q 996 491 998 496 m 58 491 l 58 486 q 70 500 66 491 l 67 500 l 58 491 m 807 500 l 807 496 l 811 491 l 816 496 l 811 500 l 807 500 m 950 500 l 950 493 l 959 484 l 962 498 l 959 500 l 950 500 m 848 496 l 848 489 l 855 486 l 860 493 l 855 498 l 848 496 m 213 496 l 218 491 l 220 491 l 215 496 l 213 496 m 1116 496 q 1126 489 1116 492 l 1126 491 l 1121 496 l 1116 496 m 109 489 l 113 489 l 113 493 l 109 489 m 943 489 l 943 486 l 950 486 l 950 489 l 943 489 m 72 481 l 70 479 l 70 477 l 77 470 l 77 477 l 72 481 m 331 479 l 331 477 l 335 477 l 335 479 l 331 479 m 968 473 l 975 466 l 980 466 l 980 473 l 975 477 l 973 477 l 968 473 m 941 473 l 941 470 l 945 470 l 945 473 l 941 473 m 1123 473 l 1123 470 l 1126 463 l 1128 463 l 1131 470 l 1128 473 l 1123 473 m 899 470 l 897 468 l 897 466 l 908 456 l 913 456 l 913 463 q 899 470 911 470 m 795 461 l 800 454 l 814 456 l 809 466 l 800 466 l 795 461 m 955 463 l 955 456 l 966 458 l 962 466 l 955 463 m 1098 466 l 1093 461 l 1098 456 l 1100 463 l 1100 466 l 1098 466 m 1188 458 l 1188 456 l 1193 456 l 1193 463 l 1188 458 m 90 458 l 90 456 l 95 456 l 95 458 l 90 458 m 331 456 l 331 452 l 338 452 l 333 456 l 331 456 m 751 456 l 749 450 q 756 440 752 440 l 760 445 l 760 450 l 753 456 l 751 456 m 1158 442 l 1160 435 q 1179 442 1179 437 l 1179 450 q 1165 456 1177 456 q 1158 442 1158 454 m 772 450 q 783 442 772 444 l 783 447 l 772 450 m 823 450 l 830 442 l 834 447 l 834 450 l 823 450 m 929 450 l 929 445 l 932 445 l 932 450 l 929 450 m 1144 450 l 1144 445 l 1151 445 l 1151 447 l 1144 450 m 1185 450 l 1185 442 l 1188 442 l 1188 450 l 1185 450 m 134 442 l 136 442 l 141 447 l 139 447 l 134 442 m 1116 447 l 1116 442 l 1112 442 l 1109 445 l 1107 445 l 1107 442 l 1109 440 l 1109 438 l 1126 440 l 1131 440 l 1131 442 l 1128 445 l 1128 447 l 1126 445 l 1121 445 l 1119 447 l 1116 447 m 1001 440 q 1008 435 1001 435 l 1019 438 l 1019 440 l 1010 445 l 1006 445 l 1001 440 m 282 438 l 282 429 l 289 429 l 294 433 l 287 438 l 282 438 m 338 438 l 338 435 l 342 429 l 340 427 l 340 424 l 347 419 l 351 419 l 354 427 q 338 438 354 433 m 892 438 l 888 431 q 895 427 888 427 q 904 433 904 430 l 904 435 l 892 438 m 920 435 l 920 431 l 924 431 l 920 435 m 1126 435 l 1126 431 l 1131 431 l 1126 435 m 1137 429 l 1142 429 l 1142 433 l 1137 429 m 368 431 l 368 429 l 377 417 l 377 419 q 368 431 374 430 m 1052 431 l 1049 422 l 1057 417 l 1059 417 l 1059 427 l 1054 431 l 1052 431 m 1133 431 l 1133 424 l 1135 424 l 1135 431 l 1133 431 m 842 429 l 842 427 l 846 427 l 846 429 l 842 429 m 1119 429 l 1114 422 l 1114 417 q 1137 387 1114 392 l 1142 392 q 1128 404 1142 399 l 1128 408 l 1131 410 q 1119 429 1131 422 m 756 424 l 756 419 l 760 419 l 760 424 l 756 424 m 1077 422 l 1080 415 l 1082 415 l 1082 422 l 1077 422 m 929 412 l 936 408 l 939 408 l 939 417 l 934 417 l 929 412 m 904 412 l 901 410 l 901 408 l 904 406 l 906 406 l 908 408 l 908 410 l 906 412 l 904 412 m 814 406 l 814 401 l 819 401 l 814 406 m 987 406 l 987 404 l 991 399 l 991 401 l 987 406 m 1061 406 l 1061 404 l 1063 401 l 1063 399 l 1070 401 l 1065 406 l 1061 406 m 814 392 l 814 389 l 825 387 l 830 394 l 825 401 q 814 392 814 397 m 1088 401 l 1088 399 l 1093 399 l 1093 401 l 1088 401 m 1174 399 l 1172 389 q 1190 353 1172 359 l 1193 364 q 1174 399 1180 399 m 783 387 l 788 382 l 791 382 l 793 385 l 795 385 l 793 392 l 788 392 l 783 387 m 983 392 l 983 387 l 987 387 l 987 392 l 983 392 m 1193 392 l 1193 387 l 1195 387 l 1195 392 l 1193 392 m 1162 389 l 1162 387 l 1167 387 l 1167 389 l 1162 389 m 964 387 l 964 382 l 970 380 l 970 382 l 966 387 l 964 387 m 1015 371 l 1019 366 l 1026 368 l 1019 376 l 1015 371 m 1216 376 l 1216 373 l 1220 368 l 1220 376 l 1216 376 m 1133 368 l 1133 364 l 1137 364 l 1137 373 l 1133 368 m 1200 368 l 1200 361 l 1204 357 l 1206 357 l 1206 364 l 1202 368 l 1200 368 m 1220 364 l 1220 361 l 1225 355 l 1232 357 l 1232 364 l 1220 364 m 1246 361 l 1244 353 q 1248 359 1248 353 l 1248 361 l 1246 361 m 1047 359 l 1047 355 l 1049 355 l 1049 359 l 1047 359 m 1114 357 l 1112 355 l 1112 353 l 1114 350 l 1116 350 l 1121 355 l 1114 357 m 996 343 l 996 341 l 1001 341 l 1001 343 l 996 343 m 1112 341 l 1112 334 l 1116 334 l 1116 341 l 1112 341 m 1181 341 l 1181 336 l 1185 336 l 1185 341 l 1181 341 m 1218 330 l 1220 322 l 1225 322 l 1225 330 l 1218 330 m 1146 322 q 1158 315 1146 317 l 1158 317 l 1154 322 l 1146 322 m 1227 322 l 1227 311 l 1236 309 l 1239 315 l 1230 322 l 1227 322 m 1082 313 l 1086 313 l 1086 317 l 1082 313 m 1208 317 q 1197 302 1208 307 l 1195 302 l 1190 311 l 1193 313 l 1193 315 l 1190 315 q 1181 302 1181 313 l 1174 297 l 1177 288 q 1170 276 1173 276 l 1170 281 q 1162 286 1162 281 l 1162 290 l 1167 297 l 1167 299 l 1160 299 l 1156 294 l 1156 288 l 1170 274 l 1162 274 l 1162 271 l 1167 264 q 1137 251 1166 258 l 1137 248 q 1146 239 1146 248 l 1151 239 q 1126 207 1151 220 l 1109 209 l 1100 197 l 1112 200 l 1114 197 l 1116 191 l 1119 191 q 1126 200 1126 191 l 1128 202 l 1131 202 l 1133 200 q 1167 237 1147 205 q 1188 246 1181 246 l 1190 243 l 1190 241 l 1193 243 l 1195 243 q 1204 220 1201 243 l 1202 220 l 1200 223 l 1197 220 l 1183 220 l 1177 225 l 1174 225 l 1167 204 q 1177 200 1177 204 l 1174 184 l 1177 184 l 1183 177 q 1177 172 1177 177 l 1179 172 l 1185 177 l 1200 174 l 1202 177 l 1204 177 l 1213 172 l 1218 197 l 1218 200 l 1216 197 l 1211 197 l 1218 204 l 1225 204 l 1227 202 l 1230 202 l 1230 207 q 1208 225 1219 207 l 1208 230 l 1211 232 l 1211 235 q 1204 239 1204 235 q 1211 243 1204 243 l 1218 241 l 1216 243 l 1216 246 q 1225 253 1225 246 l 1225 255 l 1220 255 l 1208 248 l 1200 251 l 1190 248 q 1211 260 1190 254 l 1211 262 l 1208 262 l 1188 255 l 1188 274 q 1197 279 1188 279 l 1197 281 q 1190 286 1190 281 q 1208 294 1200 286 l 1216 297 l 1213 299 l 1213 302 l 1216 304 l 1216 306 l 1213 317 l 1208 317 m 1003 315 l 1003 311 l 1006 311 l 1006 315 l 1003 315 m 1033 313 q 1017 304 1033 305 l 1015 297 l 1021 292 l 1026 292 l 1038 309 l 1033 313 m 1239 306 l 1244 306 l 1244 311 l 1239 306 m 1008 309 l 1008 304 l 1013 304 l 1013 309 l 1008 309 m 1077 309 l 1077 299 l 1084 306 l 1084 309 l 1077 309 m 1167 306 l 1167 302 l 1170 302 l 1170 306 l 1167 306 m 1220 294 l 1223 288 l 1234 288 l 1236 286 l 1239 286 l 1241 288 l 1241 297 l 1236 302 q 1220 294 1230 294 m 1065 299 l 1065 294 l 1070 299 l 1065 299 m 1107 299 l 1107 294 l 1112 294 l 1112 299 l 1107 299 m 1195 299 l 1197 299 l 1197 294 l 1195 294 l 1195 299 m 1057 290 l 1057 288 l 1063 290 l 1063 294 l 1061 294 l 1057 290 m 1075 294 l 1075 290 l 1077 290 l 1077 294 l 1075 294 m 1049 283 l 1049 281 l 1054 281 l 1054 283 l 1049 283 m 1024 281 l 1019 271 l 1024 267 l 1026 267 l 1026 281 l 1024 281 m 1230 276 l 1244 274 l 1236 281 l 1234 281 l 1230 276 m 1036 276 l 1031 264 l 1031 262 l 1036 258 l 1042 262 q 1047 253 1047 262 l 1054 253 l 1054 237 l 1070 235 q 1082 251 1082 239 l 1082 253 q 1072 260 1072 253 l 1052 255 l 1049 258 l 1049 260 l 1054 264 q 1042 269 1054 269 l 1036 276 m 1105 269 l 1112 262 l 1114 262 q 1119 269 1119 262 l 1116 276 l 1112 276 l 1105 269 m 1135 274 l 1133 271 l 1133 269 l 1135 267 l 1139 267 l 1139 269 l 1135 274 m 1213 274 l 1211 267 l 1213 264 l 1220 264 l 1220 269 l 1216 274 l 1213 274 m 1114 253 l 1112 246 l 1107 246 l 1105 248 l 1103 248 l 1100 246 l 1100 241 q 1107 216 1100 216 l 1107 225 l 1105 228 l 1105 230 l 1107 232 l 1109 232 l 1112 230 l 1114 230 l 1116 232 l 1114 243 l 1119 251 l 1116 253 l 1114 253 m 1225 246 l 1225 243 l 1230 248 l 1230 251 l 1225 246 m 983 243 l 983 235 l 985 235 l 985 243 l 983 243 m 989 243 l 989 241 l 994 241 l 994 243 l 989 243 m 996 243 l 996 241 l 1001 237 l 1001 239 l 996 243 m 1042 239 l 1042 232 l 1047 232 l 1047 235 l 1042 239 m 989 228 l 989 225 l 996 225 l 996 228 l 989 228 m 998 225 l 998 223 l 1003 223 l 1003 225 l 998 225 m 1230 223 l 1230 216 l 1234 216 l 1234 223 l 1230 223 m 994 220 l 998 212 l 1006 212 l 1006 216 q 998 220 998 216 l 994 220 m 1065 220 l 1065 218 l 1072 218 l 1072 220 l 1065 220 m 1119 216 l 1123 212 l 1126 212 l 1126 216 l 1119 216 m 1232 209 l 1232 207 l 1239 207 l 1236 214 l 1232 209 m 1202 212 l 1206 212 l 1206 207 l 1202 207 l 1202 212 m 1063 204 l 1061 197 l 1065 197 l 1065 204 l 1063 204 m 1103 195 l 1105 189 l 1109 189 l 1107 195 l 1103 195 m 1082 186 l 1082 181 q 1095 191 1095 186 l 1095 193 l 1093 193 l 1082 186 m 1149 193 l 1149 189 l 1156 181 l 1156 184 l 1154 193 l 1149 193 m 1017 191 l 1026 179 l 1031 184 l 1021 191 l 1017 191 m 1065 189 l 1065 184 l 1068 184 l 1068 189 l 1065 189 m 1128 189 l 1123 179 l 1126 177 l 1133 177 l 1133 184 l 1128 189 m 779 184 l 779 179 l 781 179 l 781 184 l 779 184 m 850 184 l 850 177 l 853 177 l 853 184 l 850 184 m 1144 179 l 1144 177 l 1149 177 l 1149 184 l 1144 179 m 1223 181 l 1218 170 l 1223 170 l 1225 177 l 1225 181 l 1223 181 m 1036 179 l 1036 174 l 1038 174 l 1038 179 l 1036 179 m 1098 179 l 1098 177 l 1103 177 l 1103 179 l 1098 179 m 1135 177 l 1135 174 l 1139 163 l 1144 163 l 1144 168 l 1139 168 l 1139 172 l 1142 174 l 1142 177 l 1135 177 m 1086 174 l 1084 168 l 1086 168 l 1091 172 l 1091 174 l 1086 174 m 929 172 l 929 163 q 947 156 946 163 l 936 149 l 936 144 q 941 138 941 144 l 943 135 l 945 135 l 947 142 l 945 149 l 947 149 l 952 144 l 952 138 l 947 130 q 955 126 955 130 l 955 123 l 950 119 l 943 119 l 941 121 l 939 119 l 932 119 l 929 126 l 927 123 l 922 123 l 924 126 l 924 133 l 920 138 l 908 130 l 901 138 l 901 133 l 897 133 l 895 142 l 885 133 l 885 130 l 895 123 l 904 126 l 918 117 l 918 115 l 913 115 l 916 112 q 939 103 916 105 l 964 92 l 964 84 l 980 89 l 983 87 l 983 92 l 985 92 l 991 84 l 994 84 l 994 82 l 987 73 l 989 71 l 989 68 l 983 61 l 983 59 l 1001 50 l 1006 50 l 1006 45 q 998 38 998 45 l 991 38 l 991 36 l 1003 36 q 1010 45 1004 45 l 1017 43 l 1017 45 l 1015 47 l 1017 50 l 1017 52 l 1015 54 l 1015 56 l 1019 71 q 983 103 1013 88 l 983 105 l 989 112 l 996 112 l 1001 107 l 1001 100 l 998 98 l 998 96 l 1006 96 l 1006 100 l 1008 100 l 1006 103 l 1006 105 l 1017 115 l 1019 115 l 1019 112 q 1013 107 1019 107 l 1015 105 l 1015 98 l 1013 96 l 1013 94 l 1024 92 l 1040 105 l 1040 103 l 1054 105 l 1054 107 l 1049 107 l 1049 110 l 1057 117 l 1059 117 l 1059 112 q 1063 123 1063 112 l 1065 126 l 1070 126 l 1077 121 l 1086 121 l 1086 123 l 1084 130 l 1088 135 q 1082 140 1082 135 l 1070 138 l 1068 138 q 1061 146 1064 138 l 1057 146 l 1057 151 l 1061 151 l 1061 156 q 1040 163 1048 156 l 1024 151 q 1003 161 1024 159 l 1006 158 l 1006 154 l 1003 151 l 1006 149 l 1006 142 q 989 128 1001 142 l 983 126 l 985 119 l 983 119 l 975 117 l 978 115 l 978 107 l 968 107 q 959 126 968 116 l 959 128 l 966 142 q 932 172 964 159 l 929 172 m 1167 172 l 1167 170 l 1172 170 l 1172 172 l 1167 172 m 1098 170 l 1098 168 l 1103 168 l 1103 170 l 1098 170 m 1151 165 l 1151 163 l 1162 156 l 1165 163 l 1162 170 l 1151 165 m 1174 170 l 1177 168 l 1177 161 q 1170 151 1170 161 l 1177 151 l 1177 149 l 1188 151 l 1195 151 q 1185 168 1192 168 l 1179 165 l 1179 170 l 1174 170 m 1026 163 l 1026 161 l 1029 161 l 1033 165 l 1033 168 l 1031 168 l 1026 163 m 913 165 l 913 154 l 920 154 l 922 156 l 924 156 l 929 151 l 936 154 l 936 158 q 922 165 930 158 l 913 165 m 1220 165 q 1204 154 1218 157 l 1204 151 l 1206 144 l 1211 144 q 1220 156 1220 148 l 1236 156 l 1236 158 q 1220 165 1227 158 m 853 161 l 853 158 l 858 158 l 858 161 l 853 161 m 1139 161 l 1139 156 l 1144 156 l 1139 161 m 904 158 l 904 154 l 906 154 l 906 158 l 904 158 m 1135 149 l 1137 146 l 1139 146 l 1139 154 l 1135 149 m 994 151 l 994 146 l 998 146 l 998 151 l 994 151 m 1121 151 l 1133 133 l 1133 130 l 1131 128 q 1139 121 1131 121 l 1142 119 l 1142 117 l 1137 110 l 1137 105 q 1154 119 1154 115 q 1137 128 1143 119 l 1137 130 l 1139 130 l 1142 128 l 1144 128 l 1144 130 l 1128 151 l 1121 151 m 885 149 l 885 146 l 890 146 l 890 149 l 885 149 m 1038 151 l 1038 146 l 1033 146 l 1038 151 m 1144 144 l 1149 144 l 1149 149 l 1144 144 m 1174 144 l 1174 142 l 1185 140 l 1188 140 l 1188 144 l 1185 142 l 1183 142 l 1177 144 l 1174 144 m 1193 144 q 1183 135 1193 135 l 1183 130 l 1197 121 l 1202 128 q 1193 144 1200 144 m 788 128 q 793 121 793 128 l 795 121 q 809 128 807 121 l 809 135 q 795 142 807 142 q 788 128 788 140 m 920 142 l 920 140 l 924 140 l 924 142 l 920 142 m 1230 140 l 1232 138 l 1232 133 l 1230 133 l 1227 135 l 1225 135 l 1223 133 l 1223 130 l 1236 126 l 1239 135 l 1232 140 l 1230 140 m 476 138 l 476 135 l 481 135 l 481 138 l 476 138 m 1015 140 l 1021 140 l 1021 123 q 1008 117 1015 123 l 1006 117 l 1006 119 l 1015 133 l 1010 133 l 1010 135 l 1015 140 m 1160 138 l 1160 133 l 1165 138 l 1160 138 m 927 135 l 927 133 l 932 133 l 932 135 l 927 135 m 934 133 l 934 128 l 939 128 l 939 133 l 934 133 m 1031 135 l 1031 133 l 1026 128 l 1026 130 l 1031 135 m 1098 126 l 1105 126 l 1105 133 l 1098 126 m 821 130 l 821 128 l 825 128 l 825 130 l 821 130 m 966 126 l 966 123 l 970 123 l 970 126 l 966 126 m 1091 121 l 1095 121 l 1095 126 l 1091 121 m 132 123 q 125 119 132 119 l 123 112 q 136 103 125 103 q 144 119 141 103 l 132 123 m 848 123 l 848 121 l 853 121 l 853 123 l 848 123 m 525 117 l 525 112 l 530 107 l 534 112 l 534 117 l 530 121 l 525 117 m 1158 121 l 1158 119 l 1160 112 l 1167 112 l 1167 121 l 1158 121 m 1200 121 l 1195 110 l 1197 110 q 1204 119 1201 110 l 1202 121 l 1200 121 m 1234 121 l 1232 119 l 1232 115 q 1246 105 1236 105 q 1234 121 1238 121 m 682 117 l 680 107 l 686 103 l 689 105 l 689 112 l 684 117 l 682 117 m 1100 117 l 1100 112 l 1103 112 l 1103 117 l 1100 117 m 1181 117 l 1181 112 l 1179 112 l 1177 115 l 1170 112 l 1172 110 l 1172 96 l 1181 94 l 1181 98 l 1179 100 l 1179 103 l 1188 115 l 1188 117 l 1181 117 m 878 115 l 878 105 l 885 105 l 885 107 l 878 115 m 351 110 l 351 107 l 356 107 l 356 110 l 351 110 m 1131 110 l 1131 107 l 1135 103 l 1135 105 l 1131 110 m 869 107 l 869 105 l 873 105 l 873 107 l 869 107 m 737 105 l 737 100 l 740 100 l 740 105 l 737 105 m 712 98 l 712 94 l 714 94 l 714 98 l 712 98 m 732 94 l 735 92 l 737 92 l 737 98 l 732 94 m 911 98 l 911 94 l 916 94 l 916 98 l 911 98 m 1088 98 l 1093 94 l 1093 98 l 1088 98 m 538 87 l 538 82 q 553 75 541 75 l 559 82 q 550 96 555 96 l 548 96 l 538 87 m 922 96 l 922 92 l 927 92 l 922 96 m 1052 96 l 1052 92 l 1054 92 l 1054 96 l 1052 96 m 1057 87 l 1057 82 l 1059 84 l 1061 84 l 1068 79 l 1070 79 q 1080 96 1076 79 q 1057 87 1057 92 m 837 92 l 837 79 l 842 79 l 842 77 q 853 89 848 77 l 846 94 l 837 92 m 1029 94 l 1033 89 l 1033 94 l 1029 94 m 1026 73 q 1042 89 1036 74 l 1042 94 q 1029 87 1036 87 l 1026 73 m 1131 94 l 1131 92 l 1135 92 l 1135 94 l 1131 94 m 1167 92 l 1167 89 l 1172 89 l 1172 92 l 1167 92 m 238 87 l 238 82 l 243 87 l 238 87 m 282 87 l 282 79 l 284 79 l 284 87 l 282 87 m 717 82 l 717 77 l 724 71 l 730 71 l 737 75 l 732 87 l 721 87 l 717 82 m 1082 87 l 1080 73 l 1084 73 l 1088 87 l 1082 87 m 885 84 l 883 73 l 885 73 l 895 82 l 892 84 l 885 84 m 918 56 l 918 54 l 932 47 l 936 52 l 941 52 l 943 50 l 950 52 l 950 56 l 947 54 l 943 54 l 943 59 l 945 61 l 943 64 l 943 66 q 955 73 943 71 l 952 84 l 950 84 q 918 56 926 56 m 811 82 q 798 73 811 73 l 793 66 l 798 61 l 788 54 l 783 54 l 772 56 l 772 50 l 798 43 q 819 66 798 47 l 823 77 l 816 82 l 811 82 m 1114 68 l 1126 41 l 1131 41 l 1139 50 l 1135 54 l 1135 59 q 1149 68 1142 59 q 1131 82 1144 68 q 1114 68 1114 73 m 1188 79 l 1188 77 l 1195 77 l 1195 82 l 1188 79 m 1220 82 l 1220 77 l 1223 77 l 1223 82 l 1220 82 m 970 79 l 966 71 l 968 71 l 975 77 l 973 79 l 970 79 m 405 77 l 400 71 l 407 61 l 412 75 l 409 75 l 407 77 l 405 77 m 929 73 l 932 73 l 936 77 l 934 77 l 929 73 m 1057 77 l 1059 75 l 1059 68 l 1052 68 q 1068 59 1052 64 l 1072 64 l 1080 59 l 1082 59 q 1065 77 1076 72 l 1057 77 m 1088 75 l 1088 71 l 1093 75 l 1088 75 m 1185 75 q 1179 56 1185 62 l 1179 54 q 1185 47 1185 54 l 1193 47 l 1193 50 l 1188 56 l 1188 61 l 1195 71 l 1188 75 l 1185 75 m 890 71 l 888 68 l 888 64 l 901 64 l 901 61 l 899 54 l 901 52 l 904 52 l 916 54 l 904 71 l 901 68 l 899 68 l 890 71 m 848 56 l 858 31 l 865 33 l 885 29 l 892 41 l 888 41 l 888 45 l 895 56 l 878 59 l 876 50 l 878 47 l 871 45 l 869 47 l 869 50 l 871 52 l 871 54 q 867 68 867 54 q 848 56 855 68 m 952 68 l 952 66 l 957 61 l 957 68 l 952 68 m 1154 61 q 1177 29 1154 41 l 1179 29 l 1183 33 q 1172 52 1183 40 l 1172 56 l 1174 59 l 1174 61 q 1170 68 1170 61 l 1162 68 l 1154 61 m 617 61 l 629 59 l 633 64 l 622 66 l 617 61 m 451 41 l 453 38 l 460 38 q 476 54 476 38 l 476 56 q 465 61 476 61 l 465 64 q 451 41 453 64 m 749 54 l 758 47 l 756 45 l 756 43 l 758 43 l 765 50 q 758 64 758 52 q 749 54 751 61 m 774 64 l 774 59 l 777 59 l 777 64 l 774 64 m 1193 61 l 1193 59 l 1197 59 l 1197 61 l 1193 61 m 701 59 l 701 54 l 703 54 l 703 59 l 701 59 m 962 59 l 962 56 q 975 47 966 47 l 975 50 q 962 59 970 59 m 730 56 l 728 45 l 730 36 l 728 33 l 732 33 q 742 43 742 36 l 740 50 l 745 50 l 745 54 l 742 54 l 740 52 l 737 52 l 732 56 l 730 56 m 823 56 l 823 54 l 827 54 l 827 56 l 823 56 m 1088 56 l 1088 52 l 1091 52 l 1091 56 l 1088 56 m 1241 56 q 1232 45 1241 45 l 1239 38 l 1241 38 l 1246 50 l 1246 52 l 1241 56 m 1059 54 l 1059 50 l 1061 50 l 1061 54 l 1059 54 m 495 50 l 488 43 l 495 33 l 497 33 q 504 47 502 33 l 502 47 l 495 50 m 878 52 l 885 52 l 885 50 l 878 50 l 878 52 m 1021 45 l 1021 38 q 1029 31 1029 38 l 1036 31 l 1029 43 l 1031 50 l 1026 50 l 1021 45 m 1080 43 l 1077 45 l 1077 43 l 1080 31 l 1082 31 q 1095 38 1094 31 q 1091 50 1091 38 l 1088 50 l 1080 43 m 823 43 l 825 43 l 830 47 l 827 47 l 823 43 m 939 47 l 936 38 q 941 45 941 38 l 941 47 l 939 47 m 1093 43 l 1098 43 l 1098 47 l 1093 43 m 1146 43 l 1151 43 l 1151 47 l 1146 43 m 811 45 l 811 43 l 816 43 l 816 45 l 811 45 m 970 41 l 970 38 l 975 43 l 975 45 l 970 41 m 1208 45 l 1208 43 l 1213 38 l 1213 41 l 1208 45 m 830 41 l 830 33 l 832 33 l 837 38 l 834 41 l 830 41 m 980 36 l 980 31 l 989 29 l 987 31 l 987 33 l 989 41 l 985 41 l 980 36 m 1227 41 l 1227 38 l 1232 38 l 1232 41 l 1227 41 m 592 38 l 592 29 l 594 29 l 594 38 l 592 38 m 714 38 l 714 36 l 719 36 l 719 38 l 714 38 m 753 24 l 756 26 l 758 26 l 760 24 l 763 24 l 765 36 l 763 38 l 760 38 q 753 24 756 38 m 1135 38 l 1137 31 l 1135 24 l 1137 24 l 1146 10 l 1142 -6 l 1151 5 l 1146 20 l 1151 24 l 1151 26 q 1139 33 1151 31 l 1139 38 l 1135 38 m 717 33 l 717 29 l 719 29 l 719 33 l 717 33 m 684 31 l 684 24 l 694 24 l 691 31 l 684 31 m 837 31 l 837 22 l 848 24 l 850 22 l 855 31 l 837 31 m 451 20 l 451 15 l 456 15 l 467 20 l 467 29 l 465 29 l 451 20 m 786 29 l 786 24 l 791 24 l 791 29 l 786 29 m 1116 29 l 1116 24 l 1121 24 l 1121 29 l 1116 29 m 534 26 l 534 22 l 536 22 l 536 26 l 534 26 m 1234 26 l 1234 15 l 1244 15 l 1246 24 l 1244 26 l 1234 26 m 721 24 l 721 20 l 726 15 l 740 15 l 721 24 m 968 20 l 968 17 l 980 20 l 980 15 l 985 20 l 980 24 l 973 24 l 968 20 m 911 24 l 916 20 l 911 20 l 911 24 m 1177 22 l 1177 20 l 1185 17 q 1179 22 1185 22 l 1177 22 m 495 20 l 495 15 l 504 13 l 504 15 l 499 20 l 495 20 m 684 17 l 689 13 l 696 15 l 696 20 l 684 17 m 1015 13 l 1024 13 l 1024 20 l 1021 20 l 1015 13 m 804 13 l 807 13 l 811 17 l 809 17 l 804 13 m 957 17 l 957 13 l 959 13 l 959 17 l 957 17 m 1084 17 l 1084 15 q 1095 1 1095 15 l 1098 1 l 1105 8 q 1086 17 1094 17 l 1084 17 m 772 15 l 772 10 l 777 15 l 772 15 m 934 3 l 936 3 l 943 10 l 943 15 q 934 3 939 14 m 1200 8 l 1200 5 l 1204 5 l 1204 8 l 1200 8 m 774 5 l 779 1 l 779 5 l 774 5 m 747 -1 l 753 -6 l 756 -3 l 756 -1 l 751 3 l 747 -1 m 1241 3 l 1246 -1 l 1246 3 l 1241 3 m 1065 -3 l 1070 -3 l 1070 -8 l 1065 -3 z "},")":{"ha":1331,"x_min":34,"x_max":1246,"o":"m 227 964 l 229 962 l 229 954 l 213 939 l 222 913 l 190 890 l 188 892 l 190 895 l 190 899 l 183 899 l 183 895 l 188 881 q 158 869 158 873 l 158 867 q 165 863 165 867 l 158 858 l 151 858 l 137 863 q 119 849 127 863 q 103 840 103 845 l 94 840 q 89 849 89 840 q 59 861 75 849 q 73 881 68 880 q 92 863 92 876 l 96 858 l 128 872 l 128 874 q 105 890 115 878 l 105 892 l 112 899 l 119 895 l 123 899 l 125 897 l 128 897 l 133 913 l 128 932 q 165 952 128 941 l 167 950 l 167 947 q 160 943 167 943 l 160 929 l 172 927 l 172 929 l 170 939 l 174 945 l 174 947 l 170 954 q 227 964 198 964 m 284 964 l 507 964 l 507 954 l 511 954 q 516 964 516 954 l 1049 964 q 1240 814 1194 964 l 1246 768 l 1246 183 l 1244 180 l 1246 178 q 1196 59 1229 87 q 1157 29 1190 41 l 1154 26 l 1150 26 l 1147 29 l 1145 29 l 1145 15 q 1069 -5 1099 -5 l 1019 -5 l 1010 4 l 1010 8 l 1015 15 l 1013 18 l 1013 20 l 1017 24 l 1017 26 q 1005 36 1005 26 l 1013 52 q 1051 22 1051 48 q 1061 8 1061 22 l 1063 8 l 1063 11 l 1056 29 q 1069 54 1056 37 l 1067 56 l 1067 61 l 1072 66 l 1074 64 q 1088 75 1086 68 l 1086 84 l 1084 82 l 1079 82 l 1079 86 l 1081 89 q 1061 123 1067 118 l 1058 132 l 1056 130 l 1053 130 l 1040 139 l 1023 130 q 1019 123 1019 130 l 1005 119 l 1003 121 l 1003 119 l 1008 109 l 998 89 l 1001 86 l 991 84 l 991 82 q 1005 68 1002 82 q 1013 64 1013 68 l 1013 56 q 998 43 1008 47 l 994 64 l 987 59 l 985 61 l 985 77 l 989 84 l 985 84 q 978 59 978 84 l 968 50 q 930 68 937 56 l 927 66 l 930 54 l 930 52 l 925 47 l 920 47 l 913 52 q 909 45 913 45 l 907 47 l 904 47 l 902 38 l 904 31 q 900 20 900 31 q 888 11 889 16 q 895 6 895 11 l 886 -5 l 491 -5 q 481 8 487 -5 l 477 8 l 479 -3 l 477 -5 l 355 -5 l 342 -1 l 337 -5 l 284 -5 q 275 13 277 -5 l 284 20 l 279 24 l 279 26 l 289 24 l 298 29 l 296 31 l 296 34 q 309 41 298 41 l 307 52 l 309 59 l 307 59 l 291 52 l 284 59 q 314 96 290 96 l 319 100 l 321 98 l 323 98 q 344 114 328 108 l 347 121 l 335 137 l 337 144 l 349 144 q 367 153 358 153 l 367 155 q 335 174 367 165 l 332 172 l 335 169 l 335 149 q 319 144 324 149 q 314 151 314 144 l 312 153 l 309 153 q 286 121 286 129 l 284 121 q 268 144 268 132 l 275 165 l 266 180 l 254 187 l 231 178 l 224 178 l 211 183 l 190 180 q 176 165 190 165 l 176 160 l 167 160 q 160 172 163 160 q 140 178 147 172 q 121 169 132 178 l 123 167 l 123 165 q 117 151 121 151 l 115 151 q 105 165 115 165 l 103 162 l 103 167 l 107 172 l 110 172 l 107 174 l 107 180 l 112 187 l 112 190 l 94 201 q 82 208 94 208 l 68 203 l 66 206 l 64 203 l 57 203 l 57 210 l 66 222 l 57 231 l 52 231 l 54 229 l 54 224 l 50 220 l 47 220 q 36 240 43 220 q 45 247 36 247 q 34 252 45 252 l 34 261 l 45 258 l 54 261 q 34 296 47 296 l 34 321 q 45 330 39 330 l 45 337 l 47 348 l 34 357 l 34 380 l 39 385 l 50 382 l 50 387 q 34 401 34 387 l 34 488 q 66 507 54 488 l 73 507 l 73 509 q 66 513 66 509 q 73 541 71 518 q 36 548 56 548 l 34 548 l 34 555 l 36 557 l 34 559 l 34 573 l 36 576 l 34 578 l 34 596 l 39 601 l 43 601 l 45 599 l 47 599 l 45 596 l 45 594 l 50 587 q 59 594 59 591 l 59 596 q 36 635 46 596 l 34 637 l 34 695 l 36 697 l 34 700 l 34 704 l 36 704 l 57 688 l 64 690 q 80 677 77 690 l 98 661 l 103 661 q 123 670 121 661 l 123 686 l 119 692 l 119 704 q 137 722 123 704 q 149 715 149 720 l 149 713 l 135 700 l 135 695 l 142 674 l 140 663 l 142 661 l 146 661 l 149 663 l 158 659 l 160 661 l 163 661 q 170 651 170 661 l 178 651 q 185 661 180 661 l 193 656 l 197 661 q 206 674 202 661 l 201 692 l 206 707 l 216 704 l 224 709 l 222 711 l 222 713 q 238 720 224 720 q 222 736 233 735 l 218 732 l 211 739 q 241 775 216 775 l 245 780 l 248 778 q 271 798 271 791 l 273 801 q 261 812 269 812 l 264 823 l 275 823 l 291 835 l 294 833 l 294 835 q 261 856 292 842 l 261 861 l 256 856 l 256 853 l 261 853 l 261 844 l 259 835 l 261 828 l 259 828 l 245 823 q 241 831 241 823 l 238 833 l 236 833 l 211 801 q 195 828 199 801 l 201 844 q 197 856 197 844 l 190 863 l 193 865 l 193 867 l 190 867 l 178 865 l 176 867 l 176 869 l 185 874 l 190 874 q 195 861 195 874 l 199 861 l 204 865 l 216 863 q 241 876 222 863 l 245 876 l 245 879 q 236 902 237 879 l 234 904 l 234 913 q 250 920 234 917 l 256 929 l 254 941 q 261 947 261 941 q 284 964 277 947 m 608 939 l 612 939 l 612 943 l 608 939 m 895 941 l 895 939 l 900 939 l 900 941 l 895 941 m 390 927 l 390 924 l 395 924 l 395 927 l 390 927 m 335 922 l 332 920 l 332 916 l 337 911 l 339 911 l 339 918 l 335 922 m 195 918 l 195 913 l 201 913 l 197 918 l 195 918 m 155 906 l 155 904 l 160 904 l 160 906 l 155 906 m 89 899 q 98 888 94 899 l 96 886 l 92 886 l 84 892 l 84 895 l 89 899 m 250 895 l 248 888 l 250 888 q 273 872 263 872 l 275 872 l 275 874 l 268 888 l 271 895 l 268 895 l 250 897 l 250 895 m 380 888 q 387 876 384 876 l 390 876 l 397 883 l 387 892 l 385 892 l 380 888 m 167 883 l 176 881 l 176 883 l 172 888 l 167 883 m 135 879 l 135 876 l 140 872 l 142 872 l 142 879 l 135 879 m 456 872 l 454 869 l 454 865 l 461 867 l 456 872 m 328 869 l 328 867 l 332 867 l 332 869 l 328 869 m 425 861 l 425 858 l 431 858 l 436 863 l 433 865 l 429 865 l 425 861 m 307 844 l 307 840 l 312 844 l 307 844 m 323 842 q 317 838 323 838 l 314 831 l 323 826 l 339 833 l 339 838 l 323 842 m 353 842 l 353 838 l 355 838 l 355 842 l 353 842 m 785 838 l 787 835 l 791 835 l 791 842 l 789 842 l 785 838 m 294 828 l 294 826 l 298 826 l 298 828 l 294 828 m 507 826 l 509 819 l 514 819 l 514 828 l 511 828 l 509 826 l 507 826 m 360 823 l 362 812 l 365 812 l 365 817 l 367 817 l 365 823 l 360 823 m 418 803 l 425 796 l 429 808 l 422 808 l 418 803 m 222 789 l 224 789 l 236 778 l 234 775 l 231 775 l 224 780 l 218 775 l 213 780 l 222 789 m 365 768 l 357 773 l 339 768 l 312 768 l 312 748 l 305 741 l 300 741 l 296 745 l 298 755 l 289 757 l 284 743 l 282 743 l 282 732 q 305 715 305 728 l 312 709 l 312 688 l 307 684 l 305 686 l 305 679 l 312 679 l 312 505 l 307 505 l 307 500 l 312 493 l 312 291 q 289 266 304 266 l 289 256 l 300 245 q 282 224 294 229 q 268 210 273 224 l 271 203 l 268 190 l 268 180 l 271 180 q 275 187 275 180 l 291 183 q 312 197 301 185 l 314 197 l 314 199 l 312 201 l 312 203 l 314 206 l 968 206 l 968 768 l 610 768 l 578 773 l 571 771 l 564 773 l 551 768 l 410 768 l 413 780 l 410 782 l 406 782 q 397 768 401 782 l 365 768 m 539 782 l 539 778 l 544 778 l 539 782 m 248 764 l 248 762 l 252 762 l 252 764 l 248 764 m 252 757 l 252 755 l 256 755 l 256 757 l 252 757 m 259 741 l 261 739 l 271 739 l 271 748 l 268 748 l 259 741 m 245 722 l 250 722 l 250 727 l 245 722 m 197 725 l 201 725 l 204 715 l 197 722 l 197 725 m 241 713 l 241 702 l 248 704 l 248 707 l 241 713 m 41 681 q 47 667 44 667 l 50 667 l 54 672 l 54 674 q 41 681 54 678 m 73 679 l 73 674 l 75 667 l 80 667 l 75 679 l 73 679 m 268 679 l 268 674 l 275 674 l 271 679 l 268 679 m 229 667 l 229 665 l 234 665 l 234 667 l 229 667 m 273 665 l 268 659 l 271 656 l 275 656 l 282 663 l 273 665 m 256 661 l 256 651 l 261 642 l 259 635 l 261 635 q 271 631 271 635 l 271 626 l 266 621 l 264 621 l 264 629 l 261 629 q 252 606 261 617 l 254 599 l 250 594 q 268 585 256 587 q 294 599 291 591 l 294 603 l 284 617 l 284 619 l 294 631 l 294 633 l 291 633 l 279 629 l 279 631 l 273 649 l 275 651 l 273 654 l 268 654 l 266 651 l 264 651 l 261 654 l 264 656 l 264 661 l 256 661 m 36 654 l 41 642 l 45 642 l 45 647 l 39 654 l 36 654 m 146 647 l 149 644 l 151 644 l 153 647 l 153 651 l 151 651 l 146 647 m 64 647 q 73 631 64 634 l 82 633 l 82 637 l 75 649 l 64 647 m 119 647 l 123 642 l 125 642 l 125 647 l 119 647 m 208 640 l 208 637 l 213 633 l 216 633 l 216 635 l 211 640 l 208 640 m 231 631 l 231 629 l 243 626 l 254 631 l 254 635 l 241 637 q 231 631 231 634 m 193 629 l 193 624 l 199 624 l 199 629 l 193 629 m 112 626 q 96 610 112 619 l 94 603 q 112 587 94 597 q 128 608 128 587 l 128 610 l 112 626 m 211 612 q 224 594 211 600 l 229 594 l 241 601 q 229 614 237 610 l 227 614 l 211 612 m 197 610 l 197 601 l 208 596 l 208 599 q 201 610 205 610 l 197 610 m 80 596 l 80 594 l 92 596 l 87 601 l 84 601 l 80 596 m 151 596 l 151 589 l 158 589 l 160 599 l 151 596 m 185 596 l 185 594 l 190 594 l 190 596 l 185 596 m 193 596 l 193 591 l 195 591 l 195 596 l 193 596 m 167 589 l 167 587 l 172 587 l 172 589 l 167 589 m 140 587 l 140 583 l 144 583 l 140 587 m 190 587 l 190 585 l 195 580 l 197 583 l 197 587 l 190 587 m 188 571 l 188 564 l 193 564 l 195 566 l 197 566 l 195 569 l 195 571 l 197 578 l 195 578 l 188 571 m 236 569 l 234 569 l 231 576 l 224 573 q 234 566 224 566 l 231 559 l 234 553 l 231 539 l 231 532 q 236 539 236 532 l 238 539 l 245 534 l 250 534 l 250 541 l 243 548 q 252 559 248 559 l 254 559 q 266 539 266 550 l 271 539 q 277 546 271 546 l 275 555 l 277 566 l 254 578 l 236 569 m 94 566 q 110 550 103 562 l 117 548 l 123 562 l 123 564 q 105 576 115 564 q 94 566 95 571 m 54 566 l 54 564 l 59 564 l 64 569 l 64 571 l 59 571 l 54 566 m 286 564 l 286 562 l 291 562 l 291 564 l 286 564 m 133 557 l 128 543 l 133 530 l 130 528 l 133 528 l 144 539 q 133 543 133 539 l 133 546 l 163 541 q 133 557 149 555 m 206 557 l 206 555 l 211 550 l 216 550 l 216 555 l 208 557 l 206 557 m 52 555 l 54 553 l 54 550 l 62 553 l 62 555 l 52 555 m 41 536 l 45 532 l 45 528 l 41 528 l 36 532 l 41 536 m 87 530 l 92 530 l 92 534 l 87 530 m 206 532 l 206 516 q 218 493 216 507 q 238 509 231 493 l 238 511 q 229 530 229 511 l 222 534 l 218 534 l 206 532 m 64 534 l 68 530 l 66 528 l 59 528 l 59 530 l 64 534 m 94 518 l 87 520 l 84 518 l 84 516 l 94 505 l 94 502 q 75 495 94 496 q 96 477 80 477 l 98 475 l 98 472 q 84 456 84 467 l 96 442 l 115 449 q 123 445 115 445 l 123 438 l 105 406 l 119 401 l 119 406 l 128 406 l 128 399 l 123 399 q 107 389 123 393 l 107 387 l 110 385 l 110 382 l 107 380 l 105 380 l 96 382 l 94 380 l 94 376 q 107 369 107 376 l 107 364 q 100 359 100 364 q 117 346 113 359 l 128 337 l 130 339 l 133 339 l 146 330 q 160 339 160 334 l 160 355 l 158 353 l 153 353 q 146 364 148 353 l 155 378 l 163 378 l 163 382 q 153 387 153 382 l 153 392 l 158 397 l 160 397 l 170 389 q 176 410 170 401 l 172 415 l 165 415 q 158 404 165 404 l 155 404 l 153 419 l 155 427 l 149 429 l 144 422 l 144 406 l 151 406 l 151 399 q 142 394 151 394 l 153 380 l 153 378 l 144 369 l 140 369 l 133 376 q 140 380 133 380 l 140 406 q 133 410 133 406 l 135 422 l 133 424 l 133 427 l 135 435 l 125 454 q 117 458 117 454 l 125 479 l 121 484 l 121 486 l 125 486 q 140 470 130 470 l 140 475 q 133 479 133 475 l 135 481 l 128 493 l 117 486 l 115 486 l 115 488 l 117 500 l 125 500 l 128 498 l 130 498 l 130 502 q 123 509 123 502 l 119 509 l 119 502 l 115 502 q 105 509 115 509 l 103 511 l 103 513 l 110 523 l 107 525 l 103 525 l 94 518 m 146 525 l 146 520 l 151 520 l 146 525 m 167 523 l 155 511 l 151 516 l 128 509 l 128 505 l 151 498 l 176 507 l 190 493 l 183 475 l 183 472 q 201 481 191 472 l 199 484 l 199 486 l 201 495 q 188 509 188 495 l 167 523 m 41 520 l 43 520 l 54 516 l 54 511 l 41 511 l 36 516 l 41 520 m 250 509 l 254 505 l 256 505 l 252 509 l 250 509 m 268 498 l 268 495 l 273 495 l 277 500 l 275 502 l 273 502 l 268 498 m 266 493 l 266 486 q 273 479 273 486 l 271 477 l 252 484 l 248 477 l 248 472 l 250 475 l 256 475 q 261 468 261 475 l 273 470 l 275 470 q 279 463 275 463 l 289 481 l 296 481 l 296 470 l 298 470 l 309 475 l 309 477 q 298 488 298 477 l 286 488 l 279 493 l 273 488 l 268 488 l 268 493 l 266 493 m 142 479 l 142 475 l 149 477 l 149 481 l 142 479 m 243 472 l 243 465 l 245 465 l 245 472 l 243 472 m 149 468 l 149 465 l 160 465 l 160 468 l 149 468 m 172 442 l 176 438 l 176 442 l 172 442 m 204 433 l 208 429 l 199 424 l 199 415 l 216 415 l 211 422 l 213 424 l 216 424 l 224 412 q 216 389 224 403 l 216 387 l 220 387 q 236 410 236 392 l 245 415 l 245 417 l 243 419 l 243 422 l 241 419 l 238 419 l 234 424 l 234 427 l 236 429 l 236 431 q 229 440 231 431 l 218 440 q 204 433 204 439 m 153 433 l 158 433 l 158 438 l 153 433 m 82 431 l 82 429 l 92 422 l 94 424 l 94 431 l 89 431 l 89 433 l 82 431 m 41 427 l 41 422 l 45 422 l 41 427 m 289 427 l 289 424 l 294 424 l 294 427 l 289 427 m 298 408 l 307 408 l 307 415 l 305 415 l 298 408 m 254 397 l 256 394 l 256 392 q 236 382 256 382 l 231 376 l 231 371 l 236 371 l 231 364 l 231 355 l 238 355 l 243 376 l 254 374 q 261 389 254 388 l 268 387 l 271 389 l 271 392 q 259 404 259 393 q 254 397 254 404 m 57 401 l 52 394 q 66 378 52 378 l 84 374 l 87 376 l 84 378 l 84 380 l 87 392 l 75 392 q 71 382 75 382 l 68 382 l 68 397 l 66 399 l 66 401 l 64 399 l 62 399 l 59 401 l 57 401 m 64 397 l 66 394 l 66 392 l 64 389 l 62 389 l 59 392 l 59 394 l 62 397 l 64 397 m 123 392 l 125 392 l 135 389 l 135 385 l 128 378 l 123 392 m 50 378 l 50 369 l 52 369 l 57 374 l 52 378 l 50 378 m 123 380 l 128 376 l 128 374 l 121 374 l 117 378 l 119 380 l 123 380 m 89 376 l 89 371 l 92 371 l 92 376 l 89 376 m 172 369 l 172 367 l 176 371 l 176 374 l 172 369 m 268 371 l 268 367 l 273 362 l 275 362 l 279 367 l 279 371 l 275 371 l 275 374 l 268 371 m 62 371 l 62 364 l 66 369 l 66 371 l 62 371 m 140 359 l 142 357 l 142 355 l 137 351 l 135 353 l 135 355 l 140 359 m 259 344 l 261 344 l 266 348 l 264 348 l 259 344 m 178 344 l 176 332 l 178 330 l 183 330 l 181 344 l 178 344 m 266 337 l 266 334 l 271 334 l 271 337 l 266 337 m 68 323 l 71 323 l 75 328 l 75 330 l 68 323 m 146 328 l 146 326 l 151 321 l 153 323 l 153 326 l 146 328 m 89 326 l 89 321 l 94 316 l 100 316 l 98 326 l 89 326 m 105 316 l 103 304 l 110 300 l 119 304 q 110 316 115 315 l 105 316 m 245 309 l 245 304 l 252 302 l 252 304 l 248 309 l 245 309 m 298 298 l 298 293 l 300 293 l 300 298 l 298 298 m 34 291 l 36 291 l 41 286 l 39 284 l 34 284 l 34 291 m 142 288 q 130 275 130 280 q 142 261 130 263 l 142 256 l 144 256 q 165 277 165 256 l 158 286 l 155 284 l 153 284 l 142 288 m 254 279 l 252 279 l 250 281 l 248 281 l 248 279 q 261 263 248 269 l 268 263 l 268 266 q 261 270 261 266 l 273 277 l 273 279 l 264 284 l 261 284 l 254 279 m 119 270 l 119 266 l 121 266 l 121 270 l 119 270 m 82 263 l 87 256 l 96 263 l 92 268 l 87 268 l 82 263 m 229 266 l 229 261 q 234 252 234 261 l 243 258 l 229 266 m 178 258 l 174 252 l 178 252 l 183 256 l 181 258 l 178 258 m 1118 250 l 1118 247 l 1120 247 q 1136 256 1136 250 l 1134 258 l 1132 258 l 1118 250 m 185 243 l 193 243 l 193 247 l 190 247 l 185 243 m 264 238 l 264 236 l 266 236 l 271 240 l 271 245 l 264 238 m 130 238 l 133 236 l 133 229 q 123 222 123 228 l 123 217 q 130 208 130 217 l 130 206 l 135 206 l 146 236 l 146 238 l 135 240 l 133 238 l 130 238 m 227 240 l 227 236 l 229 236 l 229 240 l 227 240 m 309 236 l 312 233 l 312 222 l 307 222 l 305 233 l 307 236 l 309 236 m 77 227 l 77 224 l 82 224 l 82 227 l 77 227 m 89 224 l 92 213 l 96 213 l 100 217 l 100 220 l 96 224 l 89 224 m 149 199 q 165 190 165 195 l 165 187 l 163 185 l 163 183 l 170 178 q 199 192 199 189 l 199 197 q 193 206 193 197 l 190 203 l 185 203 l 176 215 l 170 222 q 149 199 161 219 m 227 222 l 227 220 l 231 220 l 231 222 l 227 222 m 167 217 l 174 215 l 174 206 l 170 201 l 160 208 l 167 217 m 243 208 l 250 201 l 252 203 l 252 206 l 250 208 l 243 208 m 123 201 l 123 199 l 130 199 l 130 201 l 123 201 m 408 199 l 408 195 l 413 195 l 413 199 l 408 199 m 491 192 l 496 192 l 496 197 l 491 192 m 357 195 l 357 192 l 362 192 l 362 195 l 357 195 m 511 192 l 511 190 l 516 190 l 516 192 l 511 192 m 530 192 l 528 190 l 528 185 l 534 187 l 530 192 m 1196 192 l 1196 187 l 1200 183 l 1203 183 l 1200 185 l 1200 187 l 1203 190 l 1203 192 l 1196 192 m 1235 192 l 1235 187 l 1237 187 l 1237 192 l 1235 192 m 36 192 q 50 169 47 192 l 54 169 l 54 165 l 41 162 q 50 155 41 159 l 47 144 l 66 135 l 75 123 l 75 121 q 68 109 68 121 l 68 107 l 80 107 l 87 100 l 87 89 q 80 84 87 84 q 73 73 77 73 l 52 109 l 62 119 l 57 123 l 52 119 q 34 187 44 119 l 36 190 l 36 192 m 172 192 l 174 192 l 174 187 l 172 187 l 172 192 m 498 185 l 498 178 l 505 178 l 509 183 l 507 185 l 498 185 m 838 180 l 842 176 l 842 180 l 838 180 m 1192 165 q 1203 146 1196 165 l 1212 151 l 1228 137 l 1230 146 q 1223 169 1223 158 l 1223 176 l 1219 176 q 1192 165 1203 176 m 392 174 l 392 169 l 395 157 l 390 153 l 390 149 l 397 146 q 415 167 415 152 q 399 174 407 174 l 392 174 m 859 157 l 861 155 l 865 155 l 865 162 l 863 162 l 859 157 m 427 160 l 422 146 l 431 146 l 440 151 l 440 153 q 427 160 434 153 m 98 160 l 103 160 l 115 151 l 107 142 l 92 151 l 77 146 l 71 151 l 66 146 l 64 149 l 62 149 l 59 146 l 57 149 q 64 157 60 157 l 80 153 l 98 160 m 289 157 l 282 149 l 284 142 l 296 142 l 300 155 l 298 155 l 289 157 m 688 153 l 686 146 l 693 146 l 695 153 l 688 153 m 1162 144 l 1162 132 l 1171 130 q 1180 144 1180 132 l 1173 149 l 1166 149 l 1162 144 m 491 125 l 491 123 l 498 116 l 503 127 l 498 127 l 491 125 m 1114 114 l 1111 102 l 1118 100 l 1122 109 l 1122 114 l 1114 114 m 296 109 l 298 109 l 309 98 l 307 96 l 305 96 l 300 100 l 289 98 l 286 98 l 286 100 l 296 109 m 1154 102 l 1154 96 l 1157 96 l 1157 102 l 1154 102 m 1180 98 l 1180 94 l 1182 94 l 1182 98 l 1180 98 m 1210 98 l 1210 94 l 1212 94 l 1212 98 l 1210 98 m 383 96 l 378 89 l 387 89 l 392 94 l 383 96 m 422 91 l 422 86 l 427 82 l 429 82 l 440 84 l 431 94 l 422 91 m 631 73 l 631 66 l 650 59 q 672 82 665 59 q 652 94 672 90 q 631 73 631 85 m 468 86 l 468 82 l 473 86 l 468 86 m 937 86 l 937 79 l 943 71 l 943 73 l 939 86 l 937 86 m 326 77 l 326 75 l 330 75 l 330 77 l 326 77 m 362 77 l 360 75 l 360 66 l 367 64 l 372 71 l 372 75 l 362 77 m 950 77 l 950 73 l 953 73 l 953 77 l 950 77 m 842 66 l 842 64 l 847 59 l 856 59 l 865 66 q 872 41 867 41 l 874 43 l 874 45 l 872 47 l 879 50 l 879 52 q 870 75 870 52 l 842 66 m 913 75 l 913 73 l 918 73 l 918 75 l 913 75 m 372 54 q 392 26 376 35 l 406 22 q 418 29 406 29 l 429 43 q 413 68 429 56 l 401 71 q 372 54 387 71 m 335 59 l 344 59 l 344 68 l 342 68 l 335 59 m 882 68 l 882 66 l 890 66 l 890 68 l 882 68 m 486 64 l 486 59 l 488 59 l 488 64 l 486 64 m 892 52 l 892 50 l 900 50 l 900 52 l 892 52 m 470 50 l 470 45 l 475 50 l 470 50 m 1159 43 l 1159 41 l 1162 41 l 1168 43 l 1168 50 l 1166 50 l 1159 43 m 1124 47 l 1129 43 l 1129 47 l 1124 47 m 271 45 l 275 45 q 279 38 275 38 l 282 41 l 282 36 l 277 36 l 271 43 l 271 45 m 206 41 l 218 41 l 222 36 q 208 11 208 30 l 213 -3 l 213 -5 l 201 -5 l 193 13 l 193 24 q 206 41 206 33 m 314 34 l 314 22 l 321 24 l 321 26 l 314 34 m 307 31 l 307 29 l 312 29 l 312 31 l 307 31 m 755 20 l 760 20 l 760 24 l 755 20 m 360 22 l 360 20 l 365 20 l 365 22 l 360 22 m 296 13 l 302 11 l 309 13 l 309 18 l 300 18 l 296 13 m 1046 18 l 1046 13 l 1049 13 l 1049 18 l 1046 18 m 1031 15 l 1031 11 l 1033 11 l 1033 15 l 1031 15 m 376 6 l 376 -1 l 387 1 l 387 4 l 376 6 z "},"*":{"ha":1322,"x_min":38,"x_max":1243,"o":"m 234 954 l 317 954 q 349 930 330 935 l 355 933 l 362 930 l 378 954 l 465 954 l 465 940 l 474 940 q 478 947 478 940 l 476 954 l 707 954 l 713 949 l 718 954 l 809 954 l 816 949 l 819 949 l 825 954 l 909 954 l 909 942 l 907 940 l 907 937 q 914 922 911 937 l 924 922 q 930 928 924 928 q 944 949 930 943 l 944 954 l 1028 954 l 1028 951 q 1013 945 1028 947 l 1013 942 q 1021 933 1015 935 q 1033 954 1033 947 l 1053 954 q 1088 945 1088 954 l 1095 947 q 1190 892 1137 947 q 1158 883 1158 892 l 1158 878 l 1170 869 q 1202 880 1181 877 l 1206 871 l 1204 865 l 1206 865 q 1243 760 1225 865 l 1243 711 l 1240 709 l 1243 707 l 1243 365 l 1240 355 l 1243 347 l 1243 278 l 1236 278 l 1236 273 l 1243 273 l 1243 189 q 1172 32 1243 100 q 1069 -9 1114 -9 l 994 -9 l 969 -7 l 960 -9 l 960 -7 l 958 -9 l 752 -9 l 743 -7 l 734 -9 l 682 -9 l 672 4 l 665 4 q 661 -5 661 4 l 659 -3 l 656 -3 l 650 -9 l 399 -9 l 392 -5 l 385 -9 l 323 -9 l 307 -7 l 287 -9 l 214 -9 q 189 -3 189 -9 l 191 -1 l 186 -1 l 186 -5 l 184 -5 q 86 57 114 14 q 38 193 38 117 l 38 214 l 47 214 q 38 218 47 218 l 38 330 l 40 330 l 50 326 l 50 330 l 45 337 l 43 335 l 38 335 l 38 753 q 134 928 38 863 q 234 954 179 954 m 663 947 l 663 935 l 677 930 l 686 937 q 670 947 682 947 l 663 947 m 873 942 l 876 940 l 876 937 l 882 940 l 882 942 l 873 942 m 212 935 l 212 930 l 223 920 l 232 920 l 241 928 l 227 940 l 220 940 l 212 935 m 942 928 q 960 917 946 917 l 964 926 q 953 940 962 936 q 942 928 942 936 m 1086 930 l 1086 928 l 1095 928 l 1093 930 l 1093 933 l 1086 930 m 627 926 l 631 926 l 631 930 l 627 926 m 556 924 l 556 915 l 568 915 l 572 928 l 561 928 l 556 924 m 695 926 l 693 924 l 693 922 q 715 908 709 908 l 718 908 l 725 915 q 695 928 718 928 l 695 926 m 727 928 l 727 922 l 734 922 l 734 928 l 727 928 m 812 924 l 812 920 q 832 903 814 913 l 832 899 l 827 892 l 827 880 l 834 880 l 834 885 l 841 885 l 859 876 l 866 878 l 873 876 q 887 910 887 892 l 876 924 l 866 926 l 852 922 l 839 922 l 830 928 l 816 928 l 812 924 m 1040 928 l 1040 920 l 1051 920 l 1053 926 l 1051 928 l 1040 928 m 417 926 l 417 922 l 426 922 l 426 926 l 417 926 m 349 899 l 357 892 q 382 912 382 892 l 364 924 q 349 899 353 924 m 757 920 l 757 915 q 777 899 769 899 l 784 901 l 784 908 l 757 920 m 907 920 l 907 917 l 914 917 l 914 920 l 907 920 m 928 912 l 928 908 l 932 908 l 932 905 l 939 912 l 942 912 l 939 920 l 935 920 l 928 912 m 964 910 l 964 908 l 978 903 l 976 892 l 978 880 q 971 867 974 880 l 999 846 q 1019 858 1003 858 l 1019 867 l 1024 892 q 1003 905 1024 897 l 996 903 q 974 917 994 911 l 964 910 m 633 910 q 640 901 637 901 l 652 901 l 652 908 l 645 915 l 640 915 l 633 910 m 793 915 l 793 903 q 787 899 793 899 l 787 892 l 793 897 l 795 897 l 798 895 l 805 897 l 805 901 q 798 915 805 913 l 793 915 m 1140 912 l 1145 908 l 1145 912 l 1140 912 m 578 908 l 578 903 l 581 903 l 586 908 l 578 908 m 608 903 l 608 901 l 613 901 l 613 903 l 608 903 m 1113 890 l 1118 885 l 1118 890 l 1113 890 m 722 880 l 722 876 l 734 865 l 743 865 l 752 873 l 739 885 l 732 885 l 722 880 m 540 880 l 538 873 l 540 871 l 543 871 l 549 873 l 549 880 l 540 880 m 1090 873 l 1093 865 l 1108 865 l 1108 871 l 1101 878 l 1097 878 l 1090 873 m 1140 876 l 1138 873 l 1138 871 l 1145 871 l 1140 876 m 1065 867 l 1065 865 l 1069 860 l 1078 860 l 1083 873 l 1072 873 l 1065 867 m 852 871 l 852 865 l 859 865 l 859 871 l 852 871 m 928 871 l 932 867 l 937 867 l 937 871 l 928 871 m 650 862 l 656 862 l 661 867 l 659 869 l 656 869 l 650 862 m 859 855 l 862 853 l 862 848 l 859 846 q 873 837 862 837 q 894 858 894 837 l 876 869 q 859 855 870 868 m 130 867 l 130 860 l 140 862 l 136 867 l 130 867 m 739 860 l 739 855 l 743 860 l 739 860 m 1090 853 l 1090 848 l 1093 848 l 1097 853 l 1090 853 m 1179 844 l 1179 840 l 1188 828 l 1179 819 l 1183 814 l 1188 814 q 1193 828 1193 814 q 1208 837 1208 828 q 1190 848 1203 848 l 1188 848 l 1179 844 m 787 846 l 787 840 l 789 840 l 793 844 l 793 846 l 787 846 m 924 842 l 928 842 l 928 846 l 924 842 m 337 835 l 337 830 l 339 828 l 339 826 q 359 833 359 829 l 355 844 l 346 844 l 337 835 m 894 840 l 896 833 l 899 833 l 899 837 l 901 837 l 899 844 l 894 840 m 536 842 l 536 840 l 543 840 l 543 842 l 536 842 m 725 842 l 725 833 l 727 833 l 727 842 l 725 842 m 665 835 l 670 830 l 672 833 l 672 835 l 665 835 m 574 833 l 574 828 l 581 828 l 581 833 l 574 833 m 1044 828 q 1049 819 1049 828 l 1051 817 l 1053 817 l 1063 823 l 1051 833 l 1049 833 l 1044 828 m 1158 812 l 1158 810 l 1163 805 l 1172 812 l 1165 814 l 1158 812 m 640 812 l 640 805 l 652 808 l 652 812 l 640 812 m 830 812 l 830 805 l 834 805 l 834 812 l 830 812 m 483 801 l 486 798 l 488 798 l 492 803 l 492 805 l 488 805 l 483 801 m 992 805 l 992 803 l 999 803 l 999 805 l 992 805 m 212 796 l 212 793 l 216 793 l 216 796 l 212 796 m 549 793 l 549 791 l 556 791 l 556 793 l 549 793 m 570 791 l 570 789 l 574 785 l 578 789 l 578 791 l 570 791 m 848 780 l 848 776 l 850 773 l 850 771 q 871 778 871 774 l 866 789 l 857 789 l 848 780 m 1015 789 l 1015 787 l 1021 780 l 1024 783 l 1024 787 l 1015 789 m 1065 785 l 1067 783 l 1069 783 l 1074 787 l 1072 789 l 1069 789 l 1065 785 m 747 785 l 747 778 l 752 778 l 752 780 l 747 785 m 1049 780 l 1053 776 l 1060 776 l 1060 785 l 1053 785 l 1049 780 m 1086 780 l 1076 766 l 1088 764 l 1093 771 l 1103 768 l 1108 768 l 1108 776 l 1086 780 m 1177 780 l 1177 778 l 1183 778 l 1183 780 l 1177 780 m 1136 776 l 1136 771 l 1133 771 l 1136 764 l 1138 764 l 1143 768 l 1143 776 l 1136 776 m 241 773 l 237 768 l 237 764 l 245 773 l 241 773 m 884 773 q 880 760 884 760 l 314 760 l 314 589 l 334 589 l 337 586 l 339 589 l 964 589 l 964 623 l 967 639 l 964 659 l 964 721 q 969 736 965 736 l 976 734 l 976 746 l 969 741 l 967 741 l 967 760 l 942 760 q 937 771 937 760 l 926 760 l 914 760 l 889 773 l 884 773 m 1225 758 l 1229 753 l 1232 755 l 1232 758 l 1225 758 m 1158 753 l 1158 748 l 1163 748 l 1163 753 l 1158 753 m 113 751 l 118 746 l 118 751 l 113 751 m 994 748 q 1008 736 994 744 l 1010 743 l 1001 751 l 999 751 l 996 748 l 994 748 m 241 748 l 239 734 l 250 736 l 250 748 l 241 748 m 284 746 l 284 743 l 292 736 l 298 736 l 300 739 l 302 739 q 292 748 300 748 l 284 746 m 1149 748 l 1149 739 l 1154 734 l 1156 734 l 1161 739 l 1161 741 q 1149 748 1161 747 m 1060 739 l 1060 736 l 1067 736 l 1067 739 l 1060 739 m 1076 734 l 1076 732 l 1083 732 l 1083 736 l 1076 734 m 1015 728 l 1013 718 l 1017 718 l 1021 723 l 1021 728 l 1015 728 m 220 726 l 220 718 l 225 718 l 225 726 l 220 726 m 1033 723 l 1033 718 l 1038 714 l 1040 714 l 1040 723 l 1033 723 m 200 718 l 200 714 l 202 714 l 202 718 l 200 718 m 1069 711 l 1076 711 l 1081 716 l 1081 718 l 1078 718 l 1069 711 m 1008 711 l 1008 705 l 1015 705 l 1015 711 l 1008 711 m 305 709 l 305 705 l 309 705 l 309 709 l 305 709 m 1046 705 l 1046 703 l 1053 703 l 1053 705 l 1046 705 m 1095 696 l 1095 691 l 1099 691 l 1099 696 l 1095 696 m 1053 693 l 1053 691 l 1060 691 l 1060 693 l 1053 693 m 255 691 l 250 686 l 252 680 l 257 680 l 262 684 l 255 691 m 180 671 l 182 659 l 184 659 l 191 666 l 191 671 l 186 675 l 184 675 l 180 671 m 250 668 l 245 661 l 245 657 q 257 650 245 653 l 257 661 l 250 668 m 1200 664 l 1200 661 l 1202 661 l 1208 664 l 1208 668 l 1200 664 m 974 659 l 974 657 l 978 652 l 985 654 l 985 659 l 981 664 l 978 664 l 974 659 m 1081 661 l 1081 659 l 1086 654 l 1086 657 l 1081 661 m 243 650 l 243 646 l 248 646 l 248 650 l 243 650 m 175 646 l 175 639 l 180 643 l 177 646 l 175 646 m 1204 629 l 1204 627 l 1206 627 q 1211 634 1206 634 l 1213 632 l 1215 632 l 1218 641 l 1211 646 q 1204 629 1207 646 m 47 643 l 47 641 l 54 636 l 54 639 l 47 643 m 264 629 l 264 625 l 273 625 l 275 632 l 273 634 l 269 634 l 264 629 m 159 621 l 155 611 l 157 609 l 161 609 l 165 614 l 165 618 l 159 621 m 1188 621 l 1188 614 l 1193 618 l 1193 621 l 1188 621 m 186 604 l 184 602 l 184 593 l 193 593 l 193 597 l 186 604 m 1183 604 l 1183 600 l 1188 604 l 1183 604 m 216 602 l 216 597 l 220 597 l 220 602 l 216 602 m 214 593 l 218 584 l 216 572 l 227 572 l 227 577 l 230 577 l 227 589 l 227 595 l 225 595 l 214 593 m 1220 582 l 1220 579 l 1222 577 l 1222 574 l 1229 577 l 1229 582 l 1225 586 l 1220 582 m 159 584 l 159 582 l 163 582 l 163 584 l 159 584 m 81 579 l 81 570 l 83 570 l 90 577 l 88 579 l 81 579 m 355 577 l 355 570 l 364 570 l 364 577 l 355 577 m 120 564 l 130 557 l 136 566 l 130 570 l 127 570 l 120 564 m 150 568 l 145 552 l 148 549 l 150 549 q 161 561 150 555 l 161 564 l 157 568 l 150 568 m 1149 561 l 1156 552 l 1161 559 l 1161 564 l 1156 568 l 1149 561 m 106 541 l 111 541 l 111 545 l 106 541 m 113 543 l 113 541 l 118 541 l 118 543 l 113 543 m 1145 536 l 1145 534 l 1149 534 l 1149 536 l 1145 536 m 95 524 l 95 517 l 100 522 l 100 524 l 95 524 m 184 520 l 182 517 l 182 506 l 186 506 l 189 517 l 186 520 l 184 520 m 342 520 l 342 515 l 344 515 l 344 520 l 342 520 m 212 513 l 216 513 l 216 517 l 212 513 m 1044 517 l 1044 513 l 1046 513 l 1046 517 l 1044 517 m 58 504 q 52 490 58 498 l 54 484 l 58 484 l 63 488 l 61 499 l 63 502 l 61 504 l 58 504 m 88 504 l 83 492 l 90 490 l 95 497 l 88 504 m 1158 497 l 1158 492 l 1156 492 l 1158 486 l 1165 486 l 1165 492 l 1161 497 l 1158 497 m 1188 492 l 1190 490 l 1186 486 l 1195 477 l 1200 484 l 1200 490 q 1193 497 1193 490 l 1188 492 m 1051 458 l 1053 456 l 1060 456 l 1067 460 l 1065 470 l 1058 470 q 1051 458 1053 470 m 1072 470 l 1072 465 l 1076 470 l 1072 470 m 52 440 l 52 438 q 63 433 52 433 q 75 406 73 422 l 77 404 l 79 404 l 93 406 l 93 404 l 95 406 l 111 406 l 111 424 l 115 431 l 115 435 q 100 456 109 435 l 90 460 l 56 445 l 52 440 m 1122 452 l 1124 445 l 1131 447 l 1131 458 l 1126 458 q 1122 452 1122 458 m 216 417 l 220 417 l 220 422 l 216 417 m 157 413 l 155 404 l 161 399 l 165 406 l 159 413 l 157 413 m 1072 413 l 1072 406 l 1076 410 l 1076 413 l 1072 413 m 1158 410 l 1161 401 l 1165 406 l 1165 413 l 1163 413 l 1161 410 l 1158 410 m 1190 413 l 1190 408 l 1195 408 l 1190 413 m 1038 408 l 1042 404 l 1042 408 l 1038 408 m 193 401 l 195 399 l 198 399 l 202 404 l 200 406 l 198 406 l 193 401 m 1133 406 l 1133 404 l 1140 397 l 1143 399 l 1143 406 l 1133 406 m 161 383 l 161 378 l 168 378 l 163 383 l 161 383 m 314 376 l 314 201 l 367 201 l 376 198 l 378 201 l 380 201 l 387 198 l 414 201 l 967 201 l 967 376 l 314 376 m 1095 367 l 1095 362 l 1097 362 l 1101 367 l 1095 367 m 220 347 l 227 342 l 234 345 l 232 351 l 225 351 l 220 347 m 184 345 l 191 337 l 198 337 l 191 345 l 184 345 m 1206 345 l 1206 340 l 1208 340 l 1208 345 l 1206 345 m 209 342 l 209 335 l 214 330 l 216 330 l 216 337 l 212 342 l 209 342 m 1149 337 l 1149 335 l 1165 333 l 1165 342 l 1161 342 l 1149 337 m 100 340 l 100 333 l 104 333 l 104 340 l 100 340 m 223 330 q 216 326 223 326 l 216 321 l 218 319 l 218 317 l 230 321 l 237 319 l 237 321 l 239 328 l 223 333 l 223 330 m 1204 326 l 1204 323 l 1208 319 l 1213 319 l 1215 328 l 1213 328 l 1204 326 m 165 321 l 165 317 l 173 310 l 175 312 l 175 315 l 168 321 l 165 321 m 1227 319 l 1227 312 l 1232 312 l 1232 315 l 1227 319 m 241 312 l 241 310 l 245 310 l 245 312 l 241 312 m 123 310 l 120 308 l 125 294 l 93 278 l 90 280 l 88 280 l 86 278 l 86 276 q 118 255 89 267 l 136 255 l 140 260 l 136 278 l 138 278 l 134 290 l 145 301 l 148 301 l 148 308 l 140 310 l 127 308 l 125 310 l 123 310 m 43 308 l 40 305 l 40 303 q 50 298 50 303 l 45 294 l 45 287 l 52 285 l 54 287 l 54 305 l 43 308 m 1140 305 q 1136 287 1136 301 l 1128 285 l 1128 283 l 1140 283 l 1147 294 l 1147 303 l 1140 305 m 1218 303 l 1211 287 l 1220 285 q 1229 301 1227 285 l 1218 303 m 186 298 l 184 296 l 184 294 l 191 294 l 186 298 m 150 285 l 150 283 l 155 278 l 157 278 l 161 283 l 161 285 l 157 290 l 155 290 l 150 285 m 287 285 l 287 280 l 292 280 l 292 285 l 287 285 m 1200 271 l 1200 267 l 1204 267 l 1208 271 l 1200 271 m 234 260 l 234 258 l 243 253 l 252 255 l 252 264 l 234 260 m 1149 262 l 1149 258 l 1154 258 l 1154 262 l 1149 262 m 1024 255 l 1024 248 l 1033 248 l 1035 255 l 1028 260 l 1024 255 m 1086 258 q 1081 230 1081 252 l 1072 221 l 1081 221 q 1101 239 1081 234 l 1101 244 q 1086 260 1101 260 l 1086 258 m 1120 241 l 1122 241 l 1126 246 l 1124 246 l 1120 241 m 287 241 l 284 235 l 292 230 l 298 237 l 298 241 l 287 241 m 1058 241 l 1058 239 l 1063 239 l 1063 241 l 1058 241 m 1103 239 l 1097 228 l 1108 228 l 1111 237 l 1108 239 l 1103 239 m 81 235 l 86 230 l 86 235 l 81 235 m 1083 223 l 1086 221 l 1086 218 l 1088 221 l 1090 221 l 1099 218 l 1099 223 l 1090 226 l 1083 223 m 1156 221 l 1156 218 l 1161 218 l 1161 221 l 1156 221 m 1028 216 l 1026 198 l 1028 196 l 1038 196 l 1042 201 q 1031 212 1031 201 l 1031 216 l 1028 216 m 1049 216 l 1049 210 l 1051 210 l 1056 214 l 1053 216 l 1049 216 m 127 214 l 127 212 l 132 212 l 132 214 l 127 214 m 207 212 l 207 208 l 214 208 l 218 212 l 216 214 l 207 212 m 294 212 l 289 203 l 296 196 l 302 201 q 294 212 298 211 m 302 212 l 302 208 l 309 208 l 309 212 l 302 212 m 1163 212 l 1163 210 l 1168 210 l 1168 212 l 1163 212 m 1208 212 l 1208 208 l 1213 208 l 1213 212 l 1208 212 m 61 208 l 65 198 l 72 198 l 72 201 l 65 208 l 61 208 m 88 205 q 102 191 96 191 l 109 193 l 109 196 q 88 205 109 203 m 220 184 l 223 182 l 223 180 l 225 182 l 232 182 q 239 176 232 176 l 250 180 l 250 182 q 241 198 250 195 l 237 198 l 227 186 l 220 184 m 1065 186 l 1069 186 l 1069 191 l 1065 186 m 431 184 l 431 182 l 435 182 l 435 184 l 431 184 m 81 182 l 81 178 l 86 178 l 86 182 l 81 182 m 549 180 l 547 178 l 547 176 l 551 148 l 561 148 q 565 166 565 148 l 570 171 l 570 173 l 549 180 m 595 173 l 595 164 l 602 157 l 606 157 l 615 161 l 615 173 q 604 180 615 178 q 595 173 595 176 m 1115 171 l 1120 166 l 1122 166 l 1126 171 l 1126 173 l 1124 176 l 1124 178 q 1115 171 1115 174 m 212 176 l 212 166 l 220 164 l 223 166 l 223 176 l 212 176 m 282 173 l 287 168 l 287 173 l 282 173 m 647 173 l 647 168 l 652 173 l 647 173 m 165 166 l 165 161 l 170 166 l 165 166 m 230 164 l 230 161 l 234 161 l 234 164 l 230 164 m 652 161 l 652 151 l 663 148 l 668 155 q 661 159 668 159 l 659 161 l 659 164 l 652 161 m 1056 155 l 1056 148 q 1063 143 1063 148 l 1065 146 l 1076 143 l 1078 143 l 1078 148 q 1063 159 1074 159 l 1060 159 l 1056 155 m 1206 146 l 1208 143 l 1211 143 l 1213 146 l 1215 146 l 1220 141 l 1222 141 l 1227 151 l 1225 157 l 1218 157 l 1206 146 m 1111 155 l 1111 151 l 1115 151 l 1115 155 l 1111 155 m 72 153 l 72 151 l 77 151 l 77 153 l 72 153 m 314 151 l 314 146 l 319 151 l 314 151 m 1033 146 l 1042 136 l 1049 139 l 1038 151 l 1033 146 m 95 146 l 95 141 l 100 141 l 100 146 l 95 146 m 1017 139 q 1024 130 1021 130 l 1026 130 l 1033 136 l 1021 146 q 1017 139 1017 146 m 1058 136 l 1058 132 l 1060 132 l 1063 134 l 1065 134 l 1067 127 l 1074 130 l 1074 132 q 1065 139 1074 136 l 1058 136 m 1083 136 l 1083 130 l 1093 130 l 1093 134 l 1083 136 m 355 132 l 355 127 l 357 127 l 357 132 l 355 132 m 387 125 l 387 123 l 392 123 l 392 130 l 387 125 m 109 121 l 113 116 l 115 116 l 125 125 l 118 125 l 109 121 m 1211 116 l 1211 114 l 1222 114 l 1222 121 l 1215 121 l 1211 116 m 421 114 l 426 109 l 428 109 l 428 118 l 426 118 l 421 114 m 1097 114 l 1097 109 l 1101 114 l 1097 114 m 431 107 l 435 107 l 435 111 l 431 107 m 1140 104 l 1143 102 l 1147 98 l 1156 104 l 1156 107 l 1145 109 l 1140 104 m 1172 100 l 1177 96 l 1177 100 l 1172 100 m 631 93 l 633 86 l 638 86 l 638 96 l 636 96 l 633 93 l 631 93 m 332 93 l 337 89 l 339 91 l 339 93 l 332 93 m 150 91 l 150 89 q 157 79 153 79 l 161 79 l 155 91 l 150 91 m 175 89 l 175 79 q 189 73 175 75 l 186 75 l 186 77 l 189 84 l 182 89 l 175 89 m 359 77 l 359 66 l 367 66 l 374 71 l 371 84 q 359 77 359 81 m 234 82 l 234 77 l 239 73 l 243 73 l 245 79 l 243 82 l 234 82 m 300 75 l 307 75 l 307 79 l 305 79 l 300 75 m 996 77 l 994 68 l 1001 66 l 1006 73 l 1001 77 l 996 77 m 100 73 l 95 68 l 97 59 q 109 68 108 63 l 109 71 l 100 73 m 266 68 l 266 59 l 269 59 l 273 64 l 273 68 l 266 68 m 334 68 l 330 52 l 337 47 l 351 47 l 351 61 q 334 68 351 65 m 1108 68 l 1108 66 l 1113 66 l 1113 68 l 1108 68 m 177 64 l 182 59 l 182 64 l 177 64 m 722 57 q 732 50 722 50 l 739 52 l 739 59 q 732 64 739 64 l 722 57 m 191 59 l 191 54 l 195 50 l 198 52 l 198 54 l 193 59 l 191 59 m 686 52 l 684 54 l 682 54 q 668 47 674 54 l 670 39 l 677 39 l 700 57 l 700 59 l 686 52 m 376 52 l 376 39 l 385 34 l 389 34 l 401 41 l 387 57 l 380 57 l 376 52 m 259 54 l 259 52 l 271 47 l 271 54 l 259 54 m 165 47 l 168 45 l 170 45 l 173 47 l 173 52 l 170 52 l 165 47 m 777 52 l 777 47 l 782 47 l 777 52 m 819 24 l 830 16 l 844 16 l 850 27 l 850 32 l 839 47 q 819 24 821 47 m 225 41 l 223 29 l 230 27 l 234 36 l 227 41 l 225 41 m 661 36 l 668 36 l 668 41 l 665 41 l 661 36 m 449 39 l 449 36 l 453 36 l 453 39 l 449 39 m 543 39 l 543 29 l 545 29 l 547 39 l 543 39 m 907 39 l 907 34 l 912 39 l 907 39 m 237 34 l 237 29 l 241 24 l 248 24 l 248 36 l 237 34 m 565 36 l 565 34 l 570 34 l 570 36 l 565 36 m 747 36 l 747 34 l 752 34 l 752 36 l 747 36 m 1033 32 l 1035 20 l 1042 20 q 1051 32 1047 21 l 1044 36 l 1033 32 m 1120 36 l 1120 34 l 1124 34 l 1124 36 l 1120 36 m 191 34 l 195 29 l 195 34 l 191 34 m 741 29 l 741 24 q 755 18 743 18 l 759 18 l 762 27 l 750 27 q 745 34 745 27 l 741 29 m 456 29 l 453 27 l 453 24 l 458 20 l 460 20 l 465 24 l 465 27 l 456 29 m 412 27 l 410 24 l 410 22 l 412 20 l 417 20 l 417 22 l 412 27 m 522 27 l 522 22 l 524 22 l 531 24 l 531 27 l 522 27 m 533 27 l 533 24 l 538 24 l 538 27 l 533 27 m 289 11 l 292 -1 l 305 -1 q 309 9 309 -1 l 328 14 l 328 20 l 326 22 l 326 24 q 289 11 289 24 m 1122 22 l 1122 18 l 1131 18 l 1131 20 l 1128 22 l 1128 24 l 1122 22 m 346 18 l 346 16 l 351 16 l 351 18 l 346 18 m 604 14 l 604 11 l 608 7 l 613 7 l 613 18 l 608 18 l 604 14 m 394 16 l 394 11 l 399 11 l 399 16 l 394 16 m 230 7 l 237 -1 l 243 -1 l 241 11 l 234 11 l 230 7 m 330 9 l 330 2 l 342 2 l 342 4 l 337 11 l 330 9 m 926 11 l 926 7 l 932 7 l 928 11 l 926 11 m 819 4 l 821 2 l 825 2 l 830 7 l 830 9 l 823 9 l 819 4 z "},"+":{"ha":688,"x_min":0,"x_max":0,"o":""},",":{"ha":378,"x_min":0,"x_max":0,"o":""},"-":{"ha":454,"x_min":0,"x_max":0,"o":""},"­":{"ha":454,"x_min":0,"x_max":0,"o":""},".":{"ha":378,"x_min":0,"x_max":0,"o":""},"/":{"ha":386,"x_min":0,"x_max":0,"o":""},":":{"ha":378,"x_min":0,"x_max":0,"o":""},";":{"ha":378,"x_min":0,"x_max":0,"o":""},";":{"ha":378,"x_min":0,"x_max":0,"o":""},"<":{"ha":688,"x_min":0,"x_max":0,"o":""},"=":{"ha":688,"x_min":0,"x_max":0,"o":""},">":{"ha":688,"x_min":0,"x_max":0,"o":""},"?":{"ha":1105,"x_min":41,"x_max":1038,"o":"m 795 1034 q 805 1027 805 1034 l 809 1024 l 810 1025 l 810 1026 l 809 1029 l 810 1031 l 815 1031 l 821 1021 q 837 1017 834 1021 l 844 1010 l 850 1010 l 850 1009 q 844 1004 848 1004 l 844 1002 l 847 1002 l 851 1006 l 854 1006 q 861 996 861 1002 l 861 994 l 859 993 l 859 992 l 861 992 q 864 996 862 992 l 865 998 l 866 998 q 878 986 878 998 l 876 985 l 875 985 l 874 986 l 867 984 l 866 985 l 865 984 l 865 983 l 866 982 l 871 983 l 874 983 l 880 976 l 880 975 q 876 972 880 972 l 876 971 l 880 964 q 873 947 876 947 l 867 947 l 865 949 l 865 950 l 867 954 l 867 954 q 859 959 859 954 q 868 962 859 962 l 866 964 q 859 974 859 964 q 851 979 854 974 q 847 983 847 979 l 854 993 l 854 994 l 854 1000 q 844 994 844 1000 l 841 994 l 841 996 l 844 999 l 844 1000 l 840 1001 l 833 996 l 826 996 l 822 1000 l 816 998 q 810 1006 813 1006 l 810 1008 l 812 1008 l 823 1001 q 826 1010 823 1007 q 822 1015 822 1011 l 817 1015 q 807 1011 812 1011 q 795 1015 807 1015 q 789 1021 795 1017 l 787 1021 q 777 1017 783 1017 q 772 1020 772 1019 l 772 1021 q 779 1027 775 1027 l 785 1025 q 793 1029 791 1029 l 799 1027 l 799 1028 l 795 1034 m 455 1021 l 462 1021 q 464 1018 464 1021 l 463 1015 l 464 1013 l 466 1013 q 469 1019 466 1019 q 471 1016 471 1019 l 469 1013 l 471 1013 q 474 1010 474 1013 l 474 1009 l 472 1006 l 472 1001 l 473 1001 l 477 1002 q 487 996 484 1000 q 491 994 491 996 l 491 985 l 496 986 q 500 979 500 986 q 511 967 510 979 q 519 959 519 967 q 524 954 522 959 q 530 947 530 951 l 531 947 l 532 947 l 540 947 l 547 947 q 570 942 562 942 q 578 947 570 945 l 582 943 l 588 945 l 593 943 l 602 944 l 610 942 l 612 943 l 613 943 q 627 937 618 943 q 659 951 640 937 l 666 954 l 667 954 l 669 954 q 681 958 675 958 l 688 958 q 691 964 690 958 q 701 970 701 964 l 704 972 l 711 971 q 723 979 711 979 q 743 993 724 983 l 748 993 l 753 992 q 763 1000 753 994 l 764 999 l 775 1001 l 795 987 l 807 981 q 823 970 814 973 l 823 969 l 822 968 q 829 962 829 968 q 846 947 833 962 l 846 944 l 844 943 l 847 939 l 846 934 l 847 930 l 844 924 l 847 920 l 842 915 q 846 907 846 911 l 846 903 l 844 900 l 844 898 l 846 895 l 846 892 l 844 884 l 846 882 l 846 880 l 842 876 l 844 866 q 838 852 842 852 l 841 846 l 840 841 l 848 824 q 854 814 851 824 q 890 767 881 783 q 895 760 895 767 q 903 745 899 760 l 913 734 q 918 730 913 730 q 935 720 922 720 q 939 717 935 717 l 947 718 l 952 716 l 959 717 l 975 710 l 975 708 l 980 708 l 983 710 l 984 709 l 985 709 l 984 705 l 984 702 l 985 702 q 991 710 985 707 l 994 707 q 990 701 990 706 l 994 701 q 997 706 994 706 l 998 706 l 1002 702 l 1004 705 l 1011 700 l 1013 701 l 1014 701 l 1016 699 q 1001 694 1010 699 l 1000 694 l 1000 690 l 1002 690 q 1013 696 1002 694 l 1014 696 l 1019 692 l 1016 688 l 1017 688 l 1017 686 q 1013 678 1014 686 l 1011 678 l 1009 681 l 1008 681 l 1004 677 q 1009 675 1009 677 l 1008 674 l 1009 673 l 1009 671 q 1006 664 1009 668 l 1006 661 q 1009 658 1006 658 l 1010 656 l 1010 649 l 1014 649 l 1014 658 l 1019 663 q 1025 656 1025 659 l 1031 656 l 1033 646 l 1032 646 l 1032 644 l 1033 640 l 1033 637 q 1029 629 1029 633 l 1029 629 q 1036 625 1036 627 q 1029 616 1036 618 l 1031 612 l 1033 612 q 1036 616 1036 612 l 1036 617 l 1038 617 l 1038 616 l 1036 615 l 1036 614 l 1038 609 l 1036 609 l 1031 610 q 1026 597 1029 597 l 1025 599 l 1025 600 l 1029 608 l 1026 608 q 1024 602 1024 608 q 1017 599 1020 599 l 1019 593 l 1019 592 l 1015 592 l 1008 601 l 1002 602 l 1002 601 q 1015 590 1012 590 l 1016 591 l 1017 590 l 1017 589 q 1008 581 1014 581 q 1002 578 1002 581 l 1004 573 q 994 564 996 573 q 973 548 987 562 q 970 551 970 548 l 968 551 l 968 548 l 969 545 l 968 545 l 959 534 l 960 528 l 954 517 l 954 516 q 959 498 959 511 l 959 494 l 955 490 l 956 489 l 956 488 l 954 481 l 952 481 l 955 474 l 947 471 l 947 469 q 954 467 954 469 l 954 463 q 947 460 947 463 l 952 454 q 945 442 949 442 l 947 439 l 947 437 l 945 434 l 941 435 l 941 434 q 938 431 941 431 l 938 429 l 941 424 l 941 420 l 939 420 l 938 422 l 937 422 l 937 420 l 938 417 l 922 409 l 916 409 l 913 412 l 920 416 l 925 415 q 928 424 928 415 l 928 424 l 917 418 l 911 418 l 910 410 l 913 408 q 908 405 913 406 l 908 402 q 913 399 908 399 l 913 398 l 913 397 l 911 395 l 909 397 q 903 392 904 395 l 903 391 l 911 392 q 916 387 913 389 l 917 389 l 917 390 l 916 393 l 920 398 q 925 390 921 398 l 928 390 l 930 391 l 931 391 q 933 387 931 387 l 939 390 l 939 391 l 931 391 q 915 402 931 402 l 915 404 l 916 405 l 918 405 l 924 404 l 928 407 q 937 400 932 400 l 939 400 l 938 404 l 939 412 l 941 412 l 942 407 l 943 408 l 945 408 l 954 397 l 954 393 q 941 384 951 393 l 941 382 l 947 383 l 947 380 q 935 373 941 373 l 935 370 l 935 370 l 941 372 l 943 368 l 943 366 l 941 363 q 945 357 943 363 l 942 357 l 935 363 l 928 363 l 930 361 l 930 360 l 928 358 l 926 358 l 924 360 l 926 363 l 925 365 l 924 365 l 922 363 l 920 363 l 920 363 l 918 363 l 917 363 l 917 361 l 920 358 l 920 357 l 917 355 q 911 363 916 355 l 909 363 l 907 360 l 907 359 q 915 353 912 359 l 917 353 l 917 353 l 924 355 l 926 353 l 923 349 l 918 349 l 909 353 q 907 350 907 353 l 906 349 l 905 349 l 903 351 l 903 355 l 903 356 l 900 356 q 896 349 898 356 l 893 349 l 893 347 l 896 342 l 897 342 l 901 345 q 913 338 908 340 l 917 343 l 920 343 l 920 341 l 913 332 l 910 332 l 907 335 l 908 338 l 903 338 q 891 324 903 334 l 892 323 l 892 321 q 882 316 892 319 l 882 315 q 890 311 890 313 l 889 311 l 890 311 l 890 309 l 883 301 l 889 301 q 891 304 891 301 l 892 306 l 893 306 l 895 304 l 895 304 l 893 300 l 895 296 l 899 296 l 905 301 q 913 293 908 300 l 922 296 l 923 296 l 923 294 q 898 284 913 284 l 897 284 q 892 272 894 272 l 889 274 l 886 274 l 883 272 l 883 271 l 886 267 q 881 254 886 254 l 880 254 l 880 259 l 876 262 l 873 262 l 873 259 l 875 256 l 874 255 l 871 255 l 868 258 q 857 251 863 258 l 847 247 q 837 256 844 247 l 832 256 l 832 254 q 838 250 838 253 l 836 248 l 834 248 l 829 251 q 814 245 814 249 l 822 244 l 825 245 l 829 244 l 829 242 q 819 235 823 242 q 812 244 812 239 l 808 244 q 793 240 801 240 l 795 237 l 795 232 l 797 229 q 791 227 797 227 l 792 220 q 783 218 790 218 l 783 217 l 789 215 l 795 217 l 798 214 l 791 212 q 789 205 791 205 l 787 205 q 785 213 785 205 l 782 213 q 773 195 777 213 l 772 195 l 768 198 l 765 197 l 766 191 q 753 182 755 186 q 741 161 743 182 q 735 144 740 149 l 736 139 q 726 136 732 136 l 726 129 q 718 126 726 126 l 707 117 l 703 119 l 699 117 l 698 119 l 698 119 q 701 122 698 122 l 701 124 l 699 124 l 699 122 l 691 122 l 691 121 q 701 115 691 118 l 701 113 l 699 111 q 690 119 695 111 l 686 117 l 681 119 q 677 116 681 116 l 676 115 l 676 111 l 679 111 l 688 113 q 691 108 688 108 l 691 107 l 689 104 l 682 106 l 676 104 l 672 106 l 669 104 l 663 108 l 659 108 l 657 101 q 669 94 669 101 q 656 89 663 94 l 655 90 l 655 91 l 657 94 q 652 98 652 94 q 648 85 650 98 l 644 85 l 637 89 q 629 81 637 81 l 629 83 q 634 90 634 83 l 634 92 l 631 94 l 629 94 l 631 91 l 624 90 l 624 87 l 627 84 l 627 81 l 625 81 q 617 84 621 81 l 616 84 l 621 77 l 627 79 l 629 79 l 632 77 l 634 79 l 637 79 l 641 75 l 641 74 q 633 71 641 71 l 631 73 l 627 73 q 618 68 623 73 l 617 69 l 616 69 l 617 71 l 617 72 q 607 80 617 74 q 605 83 607 83 l 602 83 l 595 77 l 598 75 l 602 79 l 604 79 q 613 66 604 66 l 629 65 l 629 62 l 627 59 l 612 62 q 607 56 610 56 q 599 65 599 61 l 598 65 q 585 55 595 55 q 576 66 576 63 q 560 83 576 70 l 560 84 l 564 87 q 545 100 555 87 q 536 108 545 108 q 522 119 536 117 q 507 127 517 127 l 505 125 l 504 125 l 499 129 l 498 127 l 497 127 l 492 129 l 488 127 l 484 132 l 482 127 l 481 127 q 471 131 478 131 q 462 138 466 138 l 462 136 q 459 133 462 133 l 455 133 l 448 141 l 447 141 l 447 140 l 449 136 l 448 136 l 446 136 l 435 139 l 433 140 l 428 139 l 427 142 l 420 142 l 412 138 l 410 140 l 410 143 l 401 139 l 404 134 l 403 133 l 393 133 q 376 125 376 130 l 378 119 l 378 117 l 375 115 l 373 119 l 372 117 l 365 117 q 361 111 364 111 l 355 113 l 355 111 q 357 99 357 109 q 364 92 361 98 l 364 87 l 357 89 l 355 80 l 357 77 l 357 77 q 349 73 357 74 l 349 74 l 351 75 l 351 77 q 346 81 346 77 l 345 81 q 337 72 340 79 l 334 72 l 334 69 q 331 60 334 61 l 329 62 l 329 64 l 331 67 l 331 71 l 330 71 q 326 66 327 71 l 323 65 l 324 57 l 321 42 l 322 38 l 319 18 l 319 12 l 317 9 l 321 3 l 321 3 q 316 -5 316 -3 l 317 -11 l 314 -18 l 316 -22 l 315 -28 l 315 -29 l 316 -34 l 315 -35 l 316 -46 l 316 -66 l 319 -71 q 309 -84 318 -84 q 297 -78 297 -81 l 297 -76 q 304 -67 297 -67 q 300 -58 300 -62 l 304 -56 l 300 -46 l 302 -44 l 300 -41 l 302 -37 l 299 -29 l 302 -22 l 298 -19 q 302 -1 299 -5 l 300 6 l 302 9 l 302 13 l 305 40 l 304 49 l 305 57 l 302 64 l 302 67 l 288 74 l 292 77 q 284 80 292 78 l 284 81 l 286 85 l 283 85 l 277 80 l 274 80 l 274 81 q 277 83 274 83 l 275 87 l 277 94 l 277 99 q 272 107 272 99 l 265 111 l 262 107 l 260 107 l 257 109 l 257 111 q 262 113 257 113 l 258 117 l 257 117 l 254 115 l 250 119 l 250 119 l 246 117 l 245 117 l 242 119 l 242 121 l 243 125 q 235 132 241 132 l 235 133 l 237 139 l 235 140 l 235 140 l 231 138 l 218 138 l 218 141 l 220 143 l 227 142 q 231 144 227 144 l 231 148 q 225 158 225 155 l 227 158 l 230 157 l 222 166 q 237 171 231 168 l 235 176 l 238 176 l 238 183 l 243 190 l 240 195 q 243 197 240 197 l 243 200 l 242 208 q 248 224 246 208 q 252 229 250 224 l 248 235 l 252 243 l 250 243 q 240 252 244 243 q 224 274 234 254 q 222 281 222 274 l 221 279 l 218 279 q 178 296 198 296 q 149 304 154 300 l 149 306 l 151 307 l 151 308 q 124 316 137 308 l 120 315 l 119 315 l 119 316 l 120 317 l 120 318 l 117 318 l 112 317 l 113 318 l 113 319 l 111 319 l 111 317 l 110 317 q 100 324 104 317 l 96 323 q 79 328 87 328 l 77 326 l 60 340 l 60 343 l 60 343 q 63 340 63 343 l 65 340 l 65 347 l 58 355 l 60 359 q 55 361 55 359 l 56 366 l 50 374 l 54 385 l 55 385 l 58 383 l 60 383 l 60 384 l 53 392 q 46 400 53 395 l 45 409 l 47 415 l 46 415 q 41 417 41 415 l 41 418 l 43 419 l 43 420 l 50 417 l 50 417 l 50 418 l 50 422 l 52 425 q 55 418 54 425 q 65 412 61 418 l 65 410 q 58 398 65 404 l 60 398 l 64 399 l 71 392 l 73 392 l 73 395 l 68 397 l 68 398 l 71 402 l 71 405 l 68 408 l 70 408 l 71 407 l 72 407 l 79 408 l 81 406 q 85 409 81 409 l 85 412 l 75 414 l 68 412 l 68 414 l 68 415 l 75 419 l 75 420 l 73 422 l 68 418 l 63 418 l 63 419 l 71 429 l 72 429 l 72 426 l 75 426 l 75 429 l 72 429 l 72 437 l 73 437 q 81 429 81 433 l 85 429 q 79 437 85 437 l 78 439 l 78 444 q 85 458 81 458 q 88 454 88 458 l 89 452 l 92 452 l 92 454 l 94 454 l 96 450 l 95 449 l 95 448 l 96 444 l 92 441 l 92 440 l 95 437 l 99 437 q 102 441 99 441 l 106 440 l 106 442 l 98 450 l 98 451 l 102 454 l 100 456 l 100 457 q 104 463 102 463 q 114 457 104 457 l 117 454 l 119 454 l 119 458 l 125 458 l 125 460 l 123 463 l 122 463 q 119 458 119 463 q 117 461 117 458 l 117 465 l 117 465 l 113 463 q 104 467 113 466 q 98 477 100 467 q 102 486 100 477 q 113 496 107 489 l 120 498 q 124 493 121 494 q 136 501 124 497 l 137 503 l 137 503 l 132 509 l 132 510 q 136 513 132 513 l 136 517 l 130 515 l 130 511 l 131 503 l 127 503 l 124 515 q 131 520 129 516 l 127 528 l 127 531 l 130 538 l 127 540 l 127 542 l 132 547 l 131 550 l 132 553 l 129 557 l 129 559 l 132 564 l 130 567 l 130 570 l 132 575 l 131 580 l 136 593 l 127 610 l 127 614 q 114 634 121 615 l 115 644 l 114 653 l 124 661 l 124 663 q 115 671 117 663 l 117 674 l 107 678 l 106 677 l 102 677 l 102 678 q 106 685 104 685 l 109 685 q 111 682 111 685 l 112 681 l 114 681 l 114 682 l 107 691 l 113 696 l 117 694 l 117 698 l 109 708 l 111 708 l 134 695 q 142 702 138 702 l 142 703 l 140 707 l 139 706 l 138 706 l 134 709 l 134 710 l 137 713 l 138 713 l 146 710 l 147 711 l 147 713 q 134 717 147 717 l 134 725 l 137 725 l 137 723 l 147 726 q 154 722 147 724 l 159 723 l 163 722 l 166 723 l 169 720 l 169 718 l 166 715 l 169 713 l 172 713 q 180 718 172 716 l 180 720 q 165 732 165 722 l 162 732 l 154 724 l 153 724 l 153 726 l 155 730 l 153 735 l 149 735 l 148 734 l 147 734 q 134 741 144 741 l 134 742 l 134 743 q 140 747 134 745 l 140 750 l 137 755 l 134 755 q 127 749 134 749 l 127 750 l 129 753 l 125 759 l 127 760 l 129 760 l 136 755 l 136 760 q 132 762 132 760 l 132 764 l 139 762 l 141 768 l 136 774 q 142 779 138 778 l 144 779 l 142 777 l 142 776 q 146 774 142 774 l 156 776 l 157 776 q 166 772 162 772 q 170 776 170 772 l 171 776 q 173 770 173 776 l 174 770 l 182 772 l 183 770 l 183 769 l 181 766 l 184 752 l 176 751 l 186 743 l 184 742 l 184 739 q 190 727 189 734 l 191 726 l 193 726 l 195 728 l 191 732 l 195 736 l 199 732 l 197 730 l 198 726 l 203 726 q 208 733 203 731 l 211 733 l 214 730 l 218 733 q 220 726 220 733 l 224 734 l 228 735 l 228 741 l 227 741 q 223 736 223 741 l 222 735 l 220 735 l 214 740 l 211 739 q 206 742 206 741 l 210 745 q 203 750 203 746 l 201 750 l 201 749 l 201 743 l 196 740 l 193 740 l 193 745 q 197 751 195 746 q 205 757 199 751 l 214 762 l 215 760 l 214 759 l 214 755 l 215 755 l 222 758 l 227 758 l 227 760 q 220 764 227 762 q 215 766 220 766 l 215 767 l 220 772 l 223 769 l 224 769 q 229 777 227 769 l 228 777 l 223 776 l 221 779 l 221 781 q 224 783 221 783 l 231 781 l 230 786 l 224 785 l 220 785 l 215 789 l 214 787 l 214 786 q 220 779 214 783 l 218 776 l 216 776 q 214 782 214 776 q 201 779 201 781 l 208 774 l 205 772 l 204 772 q 201 776 202 772 l 199 777 l 198 777 q 204 792 202 792 l 211 792 q 215 801 212 801 l 222 798 l 228 804 l 231 804 l 233 801 l 235 802 l 238 802 l 241 799 l 241 797 l 239 797 l 235 799 l 235 799 l 229 798 q 241 792 236 792 l 241 789 q 238 787 241 787 l 235 789 q 246 779 237 779 l 246 779 l 243 783 l 243 785 l 246 789 l 242 793 q 250 797 243 797 l 252 794 l 256 794 l 256 797 l 248 804 l 247 808 l 248 809 l 250 809 q 254 801 254 808 l 260 801 l 277 794 l 280 792 l 281 792 l 281 795 q 274 804 277 795 l 273 806 l 272 806 l 267 804 l 267 806 l 267 809 l 271 814 q 274 808 273 814 l 277 808 q 280 816 279 808 l 281 816 l 288 814 l 288 814 l 284 819 l 288 823 l 287 828 l 283 828 q 277 821 283 824 q 274 817 277 817 q 265 821 274 819 l 265 826 q 275 829 265 829 l 267 840 l 267 841 q 273 850 267 848 l 280 849 q 305 866 280 854 l 306 867 l 311 865 l 321 873 q 334 877 328 877 l 339 876 q 334 880 339 878 l 333 880 l 333 882 l 326 877 l 323 880 q 328 882 323 882 q 332 891 328 888 q 340 899 335 899 l 339 900 l 339 901 q 349 917 339 917 l 354 922 l 354 922 l 353 922 l 346 917 l 344 919 l 344 920 q 347 922 344 922 q 354 930 347 930 l 354 933 q 349 935 349 933 l 357 962 q 363 968 358 968 l 363 970 l 361 974 q 365 977 361 975 l 364 979 l 364 982 l 372 981 l 370 984 l 370 985 l 371 986 l 368 991 l 370 992 q 378 983 372 992 l 381 983 l 383 985 l 380 989 q 386 998 385 993 l 387 998 q 393 992 393 995 l 396 992 l 400 993 q 413 989 408 989 l 416 994 l 416 996 l 415 996 l 412 994 q 408 1000 409 994 l 404 996 l 396 996 q 391 1006 391 998 l 395 1009 l 399 1006 q 416 1016 403 1011 l 417 1015 l 418 1015 q 437 1020 432 1017 l 452 1018 l 455 1021 m 438 1017 l 438 1016 l 440 1013 l 441 1013 l 441 1017 l 438 1017 m 454 1015 l 456 1015 l 456 1017 l 454 1015 m 829 1013 l 829 1010 l 832 1006 l 838 1006 l 831 1013 l 829 1013 m 403 1003 l 403 1001 l 406 1001 q 413 1006 406 1005 l 413 1010 l 403 1003 m 387 1006 l 389 1003 l 388 1002 l 386 1002 l 383 1004 l 385 1006 l 387 1006 m 442 992 l 441 989 l 442 987 l 449 987 l 449 989 l 444 992 l 442 992 m 391 991 l 391 989 l 393 987 l 393 991 l 391 991 m 430 989 l 430 987 q 432 982 432 987 l 437 979 l 439 984 l 438 987 l 437 986 l 435 986 q 432 989 432 986 l 430 989 m 415 989 q 403 981 413 984 l 399 977 l 398 977 l 396 979 l 397 984 l 396 985 l 395 985 q 393 982 395 982 l 389 983 l 388 982 l 388 981 l 389 977 l 386 974 l 386 969 l 403 975 l 415 971 l 416 971 l 416 972 q 413 975 416 975 l 412 976 l 412 977 l 414 979 l 427 976 l 428 977 l 428 979 q 423 981 428 981 l 422 982 l 422 983 l 427 984 l 427 985 l 424 987 l 423 987 l 420 985 l 415 989 m 450 982 l 450 979 l 452 979 l 452 977 l 456 979 l 456 979 l 454 982 l 450 982 m 375 977 l 375 975 l 381 974 l 381 975 l 378 977 l 375 977 m 474 975 l 475 974 l 477 974 l 477 975 l 477 977 l 477 977 l 474 975 m 366 976 l 366 972 l 370 972 l 368 976 l 366 976 m 469 976 l 469 972 q 474 969 469 970 l 474 970 q 471 976 473 976 l 469 976 m 371 971 l 371 969 l 373 967 l 376 967 l 376 970 l 371 971 m 455 967 l 456 967 l 458 969 l 457 969 l 455 967 m 867 969 l 867 967 l 868 967 l 871 969 l 867 969 m 871 969 l 871 968 l 874 968 l 874 969 l 871 969 m 428 964 l 433 958 l 435 960 l 435 961 q 432 964 432 961 l 431 966 l 430 966 l 428 964 m 497 966 l 496 964 l 496 964 l 499 964 l 497 966 m 397 961 l 401 959 l 405 959 l 410 962 l 410 964 q 397 961 397 964 m 371 957 l 370 956 l 370 954 l 373 954 l 371 957 m 381 957 l 380 956 l 380 954 l 383 954 l 381 957 m 414 956 l 414 954 l 417 954 l 417 956 l 414 956 m 400 952 l 403 950 l 405 952 l 400 952 m 429 950 q 433 947 429 947 l 435 945 l 435 944 l 433 943 l 433 942 l 435 941 q 439 944 439 943 q 435 952 435 947 l 429 950 m 415 949 q 413 945 415 945 l 414 942 l 415 942 l 418 944 l 420 944 l 417 937 l 417 934 l 420 934 l 428 940 q 420 949 423 941 l 415 949 m 361 945 l 361 944 l 363 944 l 363 945 l 361 945 m 393 944 q 380 942 393 942 l 378 935 l 378 934 l 373 929 l 373 927 l 374 927 q 378 932 378 928 l 383 932 l 388 928 l 389 928 l 388 934 l 388 935 l 389 935 l 393 933 l 393 933 q 396 937 396 933 l 400 940 l 404 939 l 406 942 l 401 944 l 398 943 l 393 944 m 473 942 l 473 940 l 475 940 l 473 942 m 383 941 l 386 939 l 385 937 l 383 937 l 381 940 l 382 941 l 383 941 m 365 937 l 366 934 l 368 934 l 370 937 l 370 937 l 365 937 m 407 935 l 407 934 l 410 929 q 416 935 416 929 l 407 935 m 519 933 l 519 932 l 526 930 l 526 932 l 526 935 l 521 935 l 519 933 m 864 933 l 868 933 q 871 926 871 932 q 861 929 861 927 l 864 933 m 424 930 l 424 928 l 427 928 l 427 930 l 424 930 m 509 929 l 509 928 l 511 928 l 511 929 l 509 929 m 358 926 l 358 924 l 359 924 l 361 926 l 358 926 m 380 924 l 378 922 l 381 916 l 381 915 l 373 912 l 373 909 l 376 909 q 378 912 376 912 l 380 912 q 383 908 380 908 q 388 911 388 909 l 385 912 l 381 911 l 381 913 l 383 917 l 382 920 l 383 922 l 380 924 m 861 924 l 861 924 q 868 920 868 923 l 866 918 l 861 918 l 858 922 l 861 924 m 389 918 l 389 917 l 391 915 l 393 915 l 393 917 l 389 918 m 861 917 l 864 913 l 861 911 l 861 911 l 857 915 l 861 917 m 365 907 l 370 907 l 372 909 l 371 910 l 370 910 q 365 907 365 909 m 869 908 l 871 907 l 871 905 l 867 905 l 867 905 l 869 908 m 861 902 l 867 902 l 873 898 l 871 891 l 874 886 l 871 882 l 866 883 l 863 882 q 856 898 856 893 l 861 902 m 354 893 l 354 891 l 356 891 l 356 893 l 354 893 m 353 888 l 351 884 l 351 883 l 351 883 l 353 884 l 354 884 l 358 883 l 359 883 l 359 886 l 353 888 m 364 883 l 366 880 l 368 880 l 368 883 l 364 883 m 869 880 l 871 878 l 871 877 q 865 873 871 875 l 865 871 l 871 867 l 868 865 l 871 861 l 871 860 l 868 858 l 867 858 q 865 861 865 858 l 866 865 l 857 865 l 857 867 l 859 867 l 859 868 l 858 873 q 863 877 859 877 l 866 876 l 866 877 l 869 880 m 410 878 l 410 875 l 412 875 l 414 877 l 413 878 l 410 878 m 361 873 l 361 873 l 363 873 l 365 875 l 365 876 l 363 876 l 361 873 m 309 873 l 312 873 l 312 870 l 309 868 l 307 870 l 309 873 m 375 867 l 375 865 l 378 865 l 378 867 l 375 867 m 298 852 q 304 848 298 850 l 305 852 l 298 852 m 595 848 l 595 846 l 598 846 l 598 850 l 597 850 l 595 848 m 389 846 l 390 844 l 390 843 q 376 828 385 828 l 368 828 q 373 826 368 826 l 374 821 q 366 819 372 819 q 356 814 366 814 l 351 810 q 348 818 348 810 l 346 818 l 346 812 l 344 809 l 345 802 q 338 789 341 802 l 337 789 l 333 791 l 329 789 l 322 791 l 322 787 q 326 784 326 787 q 322 782 326 782 l 324 775 q 311 765 318 773 l 297 758 l 296 758 l 289 759 q 297 755 289 756 l 297 745 q 279 739 297 743 l 280 735 l 286 735 l 288 733 l 282 728 l 281 728 l 273 734 l 273 728 l 275 725 q 273 713 273 723 l 272 713 l 273 713 l 273 711 q 262 696 273 707 l 263 695 l 263 694 q 258 692 263 692 l 255 675 l 246 676 l 242 673 l 238 675 l 237 674 l 237 673 l 238 669 q 228 666 233 666 l 225 668 q 233 675 230 675 l 233 678 l 230 676 q 215 685 215 676 l 214 685 q 208 681 214 683 l 208 678 q 213 676 213 678 l 212 671 q 223 664 223 671 l 229 661 q 241 669 237 665 l 243 669 q 247 663 246 669 l 237 656 l 238 652 l 237 651 l 235 651 q 227 659 235 655 l 218 658 l 213 659 l 201 650 q 208 642 201 644 l 214 643 l 213 644 l 213 646 l 218 651 l 221 651 l 218 646 l 218 644 l 218 644 q 222 649 220 644 l 223 650 l 227 650 l 231 646 l 235 649 l 235 648 l 235 649 l 238 649 q 246 644 243 644 l 246 642 l 243 639 l 247 634 l 247 633 l 245 631 q 233 642 245 634 l 232 641 l 232 635 l 237 632 l 235 631 l 235 629 l 241 629 l 243 627 l 243 626 q 239 624 243 624 l 238 621 l 241 619 q 233 611 241 617 q 227 607 233 607 l 229 604 l 229 601 l 227 597 l 227 595 l 230 595 q 232 599 230 599 l 237 599 l 239 597 l 239 587 q 231 578 234 578 l 233 567 l 231 565 l 231 564 q 235 562 235 564 l 235 559 l 232 552 l 233 548 l 229 543 q 232 538 232 543 l 231 538 l 231 536 l 232 532 q 229 528 229 532 l 232 518 q 229 513 231 513 q 235 503 235 506 q 229 493 229 499 q 233 491 233 493 l 232 486 l 235 483 l 232 479 l 235 475 l 235 474 l 232 469 q 240 459 232 460 l 243 447 l 243 444 q 240 441 243 441 l 240 439 q 258 418 250 439 q 263 410 258 410 l 263 409 q 257 407 257 409 l 257 406 l 265 397 l 270 400 l 271 399 q 273 389 273 399 l 277 387 l 274 378 q 280 368 280 378 l 277 366 l 286 365 l 286 358 l 283 355 l 289 347 q 294 338 289 342 l 292 335 l 294 335 q 309 324 308 330 l 307 321 q 317 319 310 319 q 329 307 317 313 q 348 292 332 307 l 349 289 l 348 284 q 368 272 368 277 q 373 269 368 269 q 380 266 373 266 l 395 257 q 401 254 396 254 l 403 255 l 403 256 q 418 245 416 250 l 417 244 l 418 243 l 420 243 l 423 245 q 435 240 429 245 l 433 239 l 432 240 l 428 240 l 437 233 l 442 234 l 447 229 l 455 232 q 460 229 460 231 l 462 230 l 463 230 l 466 225 l 467 227 l 474 227 l 484 218 l 486 218 l 486 222 l 484 223 l 484 224 l 486 225 l 489 225 l 492 223 l 497 227 q 506 220 497 224 l 509 222 l 528 218 l 529 220 l 530 220 l 531 218 l 532 218 l 576 224 l 578 222 l 581 222 l 581 225 l 583 225 l 588 222 l 589 223 l 591 223 l 599 222 q 602 227 599 227 l 602 225 l 608 227 l 613 225 q 627 231 624 227 l 661 244 l 677 251 l 681 255 l 686 254 l 690 257 l 690 258 l 696 258 q 713 266 703 266 q 726 281 723 272 q 747 286 732 285 l 748 288 l 748 289 l 745 293 l 746 294 l 747 293 l 751 293 l 751 294 l 750 296 l 750 296 l 753 296 l 753 294 l 753 294 l 757 298 l 756 301 l 760 304 l 765 302 l 766 304 l 766 304 l 763 308 q 770 311 763 311 q 782 328 770 323 q 787 332 782 332 q 798 345 790 345 l 798 353 q 808 366 805 366 l 808 370 l 815 385 q 829 412 819 402 l 829 412 l 833 412 l 833 412 l 829 412 l 829 415 q 838 426 838 422 l 837 429 l 842 435 l 842 437 l 841 442 l 847 446 l 844 449 l 844 451 l 849 459 l 848 466 q 851 471 850 466 l 854 471 l 854 471 l 851 475 q 858 477 851 477 l 859 484 l 856 490 l 856 492 l 863 499 l 863 500 q 859 509 859 505 l 863 525 l 861 530 l 861 531 l 861 532 l 859 545 l 861 545 l 859 545 l 859 547 l 861 551 l 859 555 l 863 557 l 867 555 l 867 558 q 864 560 864 558 l 865 564 q 858 567 858 565 l 858 575 l 857 580 l 859 587 q 852 599 856 587 l 854 606 l 854 607 q 850 611 850 607 q 857 617 852 617 l 857 619 l 854 619 l 851 617 l 848 621 l 850 633 q 839 646 844 633 l 839 654 q 834 665 839 661 l 834 666 l 836 667 l 836 668 l 829 669 l 829 673 q 819 688 829 678 l 821 692 l 819 692 q 814 695 814 693 l 819 700 l 819 701 q 802 720 812 701 q 798 726 798 720 q 793 733 793 726 q 781 749 788 733 q 770 755 771 753 l 770 759 l 772 760 l 772 762 q 760 769 763 762 l 743 784 q 728 792 734 784 q 709 807 709 799 l 704 808 l 696 808 q 689 818 696 816 l 688 818 q 686 814 688 814 l 682 818 l 679 817 l 662 824 l 656 823 q 641 831 656 826 l 634 831 l 633 826 q 646 818 640 819 q 651 812 646 814 q 666 789 666 793 q 672 777 672 789 q 666 772 667 775 l 676 760 q 680 755 676 755 q 682 750 680 750 l 684 752 l 684 755 l 677 767 l 681 768 l 682 767 l 683 767 l 686 768 q 693 764 693 766 l 691 758 l 692 758 q 696 751 696 757 l 692 749 l 693 747 l 693 743 l 688 737 l 694 728 q 690 722 690 724 q 696 705 696 722 l 694 702 l 694 701 l 696 694 q 690 684 693 684 l 692 681 l 691 673 l 692 665 l 689 653 l 689 648 q 696 632 691 635 q 714 602 704 602 l 718 593 l 711 591 l 716 584 l 716 582 l 715 581 l 715 580 q 722 572 722 574 l 721 570 l 721 570 l 722 562 l 720 560 l 716 560 l 707 562 l 698 560 l 699 555 l 698 552 l 699 552 l 701 550 l 698 545 l 706 540 l 713 541 q 718 536 718 538 l 718 535 l 716 532 l 721 523 l 718 520 l 718 519 l 722 515 q 714 510 722 513 l 714 508 l 716 505 q 709 496 711 505 l 708 496 l 704 499 l 694 494 l 689 494 q 684 488 689 490 l 682 488 l 682 490 l 681 490 q 673 475 677 490 q 666 471 670 475 l 665 473 l 665 474 l 666 475 l 666 476 l 665 477 l 659 474 l 654 475 l 654 474 l 656 471 l 647 450 l 647 441 q 654 429 647 433 l 656 437 l 652 441 l 655 444 l 656 444 q 659 437 658 444 l 667 437 l 666 435 l 666 434 l 669 429 l 669 427 q 663 412 666 412 l 662 412 q 657 426 659 412 l 652 429 q 650 424 652 424 l 648 424 l 644 426 q 637 424 644 424 l 634 422 l 633 422 l 631 424 l 632 429 l 630 429 l 624 427 l 624 429 l 617 426 l 616 429 l 613 429 l 610 429 l 612 420 l 608 418 l 605 422 l 604 424 l 591 424 q 589 417 591 417 l 588 417 q 585 420 585 417 l 585 422 l 583 422 l 573 420 l 572 422 l 570 416 q 576 404 570 408 l 576 401 q 570 399 576 399 l 570 398 q 575 368 570 389 q 585 340 585 345 l 590 340 q 592 346 592 340 l 593 346 l 590 370 l 591 372 l 592 372 q 595 361 595 368 l 595 360 l 595 359 l 597 355 l 595 348 l 595 346 l 598 342 l 598 340 q 593 338 598 338 l 592 336 l 592 326 l 595 326 q 608 333 600 333 l 607 338 q 613 345 610 338 l 610 347 l 612 353 q 605 374 608 353 l 607 374 l 608 373 q 610 367 610 373 q 617 359 615 367 l 623 356 q 629 365 628 359 l 631 365 q 635 358 633 365 l 637 358 l 637 367 q 648 374 639 370 l 669 374 l 671 372 l 676 374 l 679 372 l 684 376 l 684 377 q 675 380 675 378 l 675 382 q 683 400 680 382 l 686 402 l 684 404 l 684 406 l 686 408 l 691 401 l 691 389 l 689 380 l 689 370 q 680 361 684 361 l 680 359 l 679 358 l 684 353 l 684 351 q 681 349 684 349 l 682 343 l 676 338 l 679 331 q 674 318 675 331 q 671 313 671 318 l 664 308 q 649 298 664 304 q 618 276 645 292 q 591 265 614 265 q 571 259 587 259 l 568 256 l 557 256 q 517 245 544 248 q 508 252 513 246 l 505 249 q 500 258 503 249 l 499 258 l 494 255 l 494 255 l 491 257 q 496 269 492 264 q 487 273 492 269 l 482 272 l 472 279 l 471 279 l 467 276 l 452 282 q 437 307 437 302 l 427 328 l 418 353 l 420 353 l 420 355 q 415 370 418 370 l 413 370 l 413 372 l 417 372 l 416 373 l 416 375 l 418 378 l 417 382 q 422 387 420 387 l 423 387 q 435 370 428 386 q 449 347 440 367 q 465 335 457 338 l 465 334 l 464 333 l 463 333 l 462 334 l 460 333 l 460 331 l 466 330 q 481 340 473 330 l 484 340 l 484 343 l 477 343 l 479 347 l 477 357 l 480 360 l 480 365 q 475 373 475 370 l 477 374 l 477 375 l 473 380 l 472 380 l 473 378 l 473 376 l 472 368 l 477 365 l 477 361 l 474 359 l 473 359 l 467 363 l 463 363 q 442 391 442 385 l 444 392 l 445 392 q 452 385 452 389 l 456 385 q 452 393 452 389 l 452 397 q 459 400 454 400 l 459 401 q 449 409 459 405 l 440 407 q 432 417 435 407 l 430 417 q 422 424 430 420 l 418 422 q 415 429 415 427 l 410 427 l 410 429 l 408 429 l 401 427 l 398 431 l 393 431 l 393 425 l 398 425 l 398 422 l 396 419 q 389 426 393 419 l 386 429 l 385 429 l 389 419 l 386 418 l 386 415 l 391 416 l 393 409 l 395 409 l 395 407 l 393 407 q 376 415 385 415 l 375 414 l 374 415 l 374 416 l 375 422 l 370 426 l 372 429 l 368 434 l 368 435 q 376 439 368 437 l 378 440 l 378 441 l 368 447 l 368 447 l 358 439 l 357 439 q 346 446 357 446 l 344 446 q 337 452 344 452 l 337 454 l 346 463 l 351 464 l 348 467 l 336 461 l 333 465 l 336 467 l 341 466 l 341 467 l 337 471 l 333 469 l 328 469 l 324 473 l 324 474 l 326 477 l 326 479 l 324 479 l 324 479 l 326 484 l 324 484 l 324 486 l 321 484 l 322 483 l 322 479 l 321 479 l 319 482 l 319 486 l 319 486 l 316 488 l 316 490 l 321 496 l 326 493 l 326 493 l 326 496 l 323 500 q 329 506 326 506 l 332 505 l 332 506 l 324 519 l 321 528 l 323 532 l 322 538 l 323 540 l 329 538 l 330 538 l 330 540 q 321 555 321 550 q 328 562 326 557 l 328 562 l 324 562 l 319 562 q 314 570 314 566 l 319 572 l 319 580 l 319 583 l 316 585 l 309 584 l 307 585 l 307 590 l 312 590 l 312 592 l 309 592 l 309 591 l 307 591 l 305 594 l 307 597 l 307 599 q 297 608 304 599 l 297 609 l 298 614 l 292 626 l 292 629 l 299 631 l 298 636 l 302 640 l 302 640 l 300 646 l 302 650 l 300 651 l 306 653 l 306 654 l 302 659 l 305 668 l 306 667 l 309 667 l 311 677 l 309 682 l 315 688 l 313 691 l 313 692 q 319 695 313 694 q 326 703 321 703 l 326 703 l 322 710 l 322 711 l 326 718 l 326 720 l 323 725 l 323 726 l 326 728 l 331 725 l 332 725 l 331 730 q 334 736 333 730 l 333 740 l 338 743 l 336 750 l 342 766 q 351 772 348 766 l 355 772 l 355 774 l 354 779 q 365 789 354 781 q 373 797 365 797 l 375 794 l 376 794 l 385 797 l 383 800 q 387 804 385 804 l 393 804 q 398 806 393 806 l 398 808 l 396 808 l 396 809 l 395 808 l 393 808 l 390 810 l 390 811 l 393 816 l 393 819 q 390 821 390 819 l 403 827 q 407 829 403 829 l 408 831 l 408 833 q 403 836 403 833 l 403 838 l 405 841 l 405 842 q 400 844 405 844 l 398 849 l 391 849 q 389 846 389 849 m 452 843 l 452 842 l 454 842 l 456 844 l 456 846 l 455 846 l 452 843 m 439 844 l 439 842 l 441 842 l 441 844 l 439 844 m 863 846 l 865 846 q 869 836 868 846 l 866 834 q 863 841 863 835 l 863 846 m 422 836 q 435 828 422 833 l 435 831 q 431 834 431 831 l 435 838 l 435 840 l 431 841 q 422 836 422 838 m 440 838 l 440 836 l 442 836 l 442 838 l 440 838 m 412 835 l 415 833 l 418 833 l 420 836 l 418 838 l 414 838 l 412 835 m 616 836 l 620 833 l 621 834 l 621 835 l 616 836 m 621 829 l 621 827 q 624 823 624 827 l 625 821 l 627 821 l 627 823 l 627 824 l 623 829 l 621 829 m 262 828 l 264 826 l 263 825 l 262 825 l 260 827 l 260 828 l 262 828 m 290 821 l 290 821 l 292 818 q 296 821 292 821 l 297 823 l 297 824 l 292 824 l 290 821 m 302 821 l 302 821 l 306 824 l 305 824 l 302 821 m 258 824 l 260 823 l 260 821 l 258 821 l 256 821 l 256 821 l 258 824 m 328 823 l 328 821 q 331 816 330 816 l 334 816 l 334 818 q 328 823 334 820 m 357 823 l 357 821 l 359 819 l 361 821 l 361 823 l 357 823 m 256 819 l 256 818 l 254 816 l 253 817 l 253 818 l 254 819 l 256 819 m 263 818 l 265 816 l 263 814 l 260 816 l 263 818 m 336 810 l 340 809 l 340 810 l 338 812 l 336 810 m 287 810 l 287 807 l 289 809 l 289 810 l 287 810 m 305 810 l 305 808 l 309 808 l 309 810 l 305 810 m 262 809 l 263 809 l 265 807 l 265 806 l 264 804 l 264 804 l 260 807 l 262 809 m 309 804 l 307 804 l 307 802 l 316 793 l 316 792 q 309 789 309 792 l 311 785 l 321 785 l 321 786 l 319 791 q 326 797 323 797 l 328 798 l 328 799 l 326 800 l 316 798 l 309 804 m 294 801 l 298 800 l 299 801 l 299 804 l 296 804 l 294 801 m 165 800 l 168 800 l 170 798 l 164 795 l 163 797 l 163 798 l 165 800 m 169 792 l 170 792 l 172 789 l 169 786 l 172 781 q 164 775 172 777 q 159 784 159 776 l 159 786 q 162 783 162 786 l 163 783 l 168 787 l 166 789 l 166 789 l 169 792 m 141 789 l 142 789 l 142 787 q 136 784 141 784 l 136 786 q 141 789 136 789 m 176 789 l 179 789 l 181 787 q 174 784 181 785 l 173 785 l 173 786 l 176 789 m 127 785 l 130 783 l 129 782 l 127 782 l 125 784 l 127 785 l 127 785 m 180 782 l 181 782 l 182 781 l 183 782 l 186 782 l 189 779 l 182 776 l 181 776 l 178 779 l 180 782 m 302 781 l 302 779 l 304 779 l 304 781 l 302 781 m 314 781 l 316 779 l 316 781 l 314 781 m 256 775 l 256 772 l 260 772 l 260 774 l 256 775 m 242 772 l 242 769 l 245 772 l 243 772 l 242 772 m 294 766 l 295 766 l 302 768 l 302 767 l 304 768 l 300 772 l 294 766 m 130 768 l 131 767 l 131 766 l 127 766 l 130 768 m 198 768 l 198 767 l 196 765 l 193 765 l 193 767 l 198 768 m 169 764 l 170 762 l 171 762 l 173 765 l 172 766 l 171 766 l 169 764 m 235 765 l 235 762 l 238 762 l 235 765 l 235 765 m 121 765 l 124 762 l 123 760 l 122 760 l 121 762 l 121 765 m 166 759 l 170 752 l 173 753 l 173 755 q 166 759 172 759 m 239 755 l 241 753 l 245 755 l 241 758 l 239 755 m 275 755 l 275 755 l 279 755 l 279 758 l 277 758 l 275 755 m 106 758 q 122 752 122 755 l 121 751 l 117 751 l 117 752 l 115 751 l 112 751 l 106 755 l 106 758 m 282 753 l 282 751 l 283 751 l 283 753 l 282 753 m 161 743 l 163 743 l 170 749 l 165 749 q 161 743 163 748 m 172 747 l 172 745 l 176 745 l 176 749 l 174 749 l 172 747 m 231 749 l 229 745 l 229 744 l 230 744 l 233 747 l 232 749 l 231 749 m 140 747 l 140 743 l 144 743 l 144 747 l 140 747 m 250 747 l 247 743 q 254 737 254 743 l 264 737 l 267 740 l 260 742 l 257 741 q 250 747 257 743 m 282 747 l 282 745 l 284 743 l 286 743 l 284 747 l 282 747 m 238 745 l 238 744 l 240 742 l 246 742 l 246 743 l 238 745 m 684 743 l 684 742 l 686 740 l 688 741 l 688 743 l 684 743 m 121 741 l 122 741 l 122 740 l 121 734 l 125 725 q 117 722 125 723 l 117 720 l 123 713 l 122 713 l 121 713 q 113 725 113 713 q 121 728 121 726 q 113 733 113 731 l 121 741 m 155 737 l 159 737 l 159 740 l 157 740 l 155 737 m 109 734 l 111 734 l 111 732 l 109 732 l 109 734 m 237 732 l 243 722 l 250 722 l 250 724 l 241 728 q 237 732 241 732 m 130 732 l 134 732 l 134 730 l 131 728 l 130 728 l 130 732 m 171 728 q 183 722 171 726 l 186 722 l 186 723 q 178 726 186 726 q 174 730 176 730 l 173 730 l 171 728 m 203 724 q 201 713 203 716 l 206 702 q 216 698 216 701 l 216 696 l 220 696 l 220 698 q 216 700 220 700 l 218 705 l 214 709 q 212 705 212 709 l 211 705 l 208 708 l 208 709 q 211 718 208 718 l 218 717 l 220 718 q 215 724 218 724 l 212 722 l 210 722 l 203 724 m 333 724 l 333 722 l 334 722 l 334 724 l 333 724 m 223 722 l 223 715 l 228 715 l 228 717 q 224 722 224 717 l 223 722 m 127 722 l 127 722 l 130 720 l 130 717 l 127 717 l 124 720 l 127 722 m 146 720 l 146 718 q 149 716 146 716 l 153 717 q 146 720 151 720 m 155 717 l 155 713 l 156 713 q 164 717 160 717 l 162 720 l 159 720 l 155 717 m 232 713 l 232 711 l 235 709 q 241 713 237 713 l 241 715 l 239 715 l 232 713 m 341 713 l 341 711 l 344 709 l 344 713 l 341 713 m 102 713 q 109 708 109 710 l 104 708 l 100 711 l 102 713 m 148 710 l 148 708 l 151 706 l 153 708 l 153 711 l 151 711 l 148 710 m 186 706 l 186 702 l 180 696 l 179 696 l 176 699 l 173 699 l 173 696 q 186 690 177 690 l 190 693 q 198 685 198 693 q 208 688 207 685 l 205 692 q 212 694 205 694 l 212 698 q 201 707 208 698 l 193 706 l 190 708 l 188 708 l 186 706 m 94 706 q 105 701 105 703 l 102 698 l 99 698 q 92 705 92 703 l 92 706 l 94 706 m 220 703 l 223 700 l 224 700 l 223 703 l 220 703 m 195 703 l 198 703 l 201 701 l 201 700 l 198 698 l 196 698 l 193 701 l 195 703 m 240 701 l 248 692 q 253 699 250 692 q 245 701 248 699 l 240 701 m 332 701 l 332 699 l 334 699 l 332 701 m 984 701 l 985 700 l 984 696 l 985 688 l 987 688 q 990 698 988 698 l 989 701 l 984 701 m 991 693 l 991 688 l 992 688 q 997 695 994 688 l 996 696 l 994 696 l 991 693 m 153 695 l 155 692 l 155 690 l 151 692 l 147 692 q 144 688 144 692 q 142 683 142 688 l 144 683 l 144 681 l 141 681 q 127 692 130 686 l 117 693 l 117 690 q 123 686 117 686 l 123 683 l 119 683 l 119 677 l 120 677 l 123 678 l 125 671 l 124 668 l 125 667 l 127 667 l 129 671 l 127 671 l 127 671 l 127 677 l 125 681 l 127 682 l 127 682 q 134 674 130 677 q 147 677 139 677 l 151 674 l 153 674 q 156 678 153 678 l 163 674 l 171 678 q 182 668 178 678 l 186 669 l 186 671 q 176 683 176 677 l 174 683 l 171 681 l 169 683 l 169 685 l 172 690 q 164 694 167 694 l 159 693 l 153 695 m 228 686 l 233 684 l 237 685 l 240 682 l 241 682 q 232 691 241 688 l 232 694 l 231 694 q 228 686 229 694 m 338 694 q 342 688 340 689 l 346 688 l 341 694 l 338 694 m 1013 694 l 1015 692 l 1015 694 l 1013 694 m 98 693 l 104 693 l 104 690 l 98 685 l 96 685 l 94 688 q 98 693 96 692 m 134 692 l 134 688 l 137 691 l 137 692 l 134 692 m 201 692 l 203 691 l 203 690 l 201 688 l 201 688 l 199 690 l 199 691 l 201 692 l 201 692 m 957 690 l 957 688 l 959 688 l 959 690 l 957 690 m 1010 690 l 1013 688 l 1015 688 l 1013 690 l 1010 690 m 826 685 l 827 684 l 829 684 l 831 686 l 831 688 l 829 688 l 826 685 m 989 688 l 987 680 q 991 664 990 680 l 989 656 l 989 656 l 991 653 l 992 654 l 994 654 l 994 653 l 994 649 l 984 642 l 981 643 l 984 640 l 985 640 q 992 644 985 644 l 996 641 l 997 642 l 1000 642 l 1000 641 l 996 635 l 996 633 q 1004 629 1004 632 l 1004 627 l 1004 622 q 1007 617 1007 622 l 1010 617 l 1015 624 q 1006 632 1015 629 l 1006 635 l 1009 642 l 1008 642 l 1004 643 l 1007 648 l 1006 649 l 1006 650 l 1007 656 q 1001 665 1004 658 l 1004 669 l 1002 669 l 999 667 l 997 671 l 1002 676 l 1001 677 l 1001 680 l 1004 684 l 1004 686 l 1004 686 l 999 683 l 998 683 l 989 688 m 1008 688 l 1008 685 l 1009 685 l 1009 688 l 1008 688 m 1019 688 l 1023 688 l 1023 685 l 1021 683 l 1019 684 l 1019 688 m 179 683 l 179 681 l 180 681 l 180 683 l 179 683 m 151 682 l 151 681 l 151 680 l 151 678 l 149 678 l 148 680 l 148 681 l 149 682 l 151 682 m 345 681 l 345 680 l 347 677 l 351 678 l 351 680 l 345 681 m 1023 681 l 1026 675 q 1019 668 1019 674 l 1017 667 l 1016 667 l 1015 668 l 1015 674 q 1019 676 1015 676 q 1023 681 1020 681 m 980 675 l 980 664 l 983 661 l 984 661 l 983 671 l 983 678 l 980 675 m 834 677 l 833 676 l 833 675 l 834 674 l 839 674 l 839 676 l 834 677 m 109 674 l 112 671 l 112 667 l 111 667 l 106 671 l 109 674 m 166 671 l 166 667 l 168 667 l 172 668 l 176 667 l 176 671 l 174 671 l 166 671 m 197 671 l 197 668 l 199 666 l 204 667 l 208 666 l 208 671 l 201 671 l 198 671 l 197 671 m 250 673 l 250 673 l 253 671 l 252 669 l 250 669 l 250 671 l 250 673 m 943 671 l 942 671 l 942 669 l 943 668 l 945 668 l 945 669 l 943 671 m 102 671 l 102 668 l 100 671 l 102 671 l 102 671 m 151 669 l 151 663 l 154 663 l 155 668 l 154 669 l 151 669 m 178 667 l 178 665 l 182 665 l 182 667 l 178 667 m 186 666 q 183 661 186 661 l 184 658 q 193 663 187 663 l 195 664 l 195 667 l 193 666 l 186 666 m 1023 668 q 1029 665 1029 667 l 1029 659 l 1027 659 q 1021 666 1027 666 l 1021 667 l 1022 668 l 1023 668 m 201 665 q 197 659 201 661 l 199 656 q 204 661 203 656 l 206 661 l 206 665 l 201 665 m 959 663 l 966 658 l 970 658 l 969 664 l 966 664 l 965 663 l 964 663 l 962 665 l 959 663 m 144 661 l 147 661 l 147 663 l 146 663 l 144 661 m 165 658 l 165 656 q 174 659 174 656 l 174 661 l 173 661 l 173 663 l 165 658 m 106 663 l 107 663 l 110 661 l 107 658 l 106 659 l 106 663 m 156 661 l 156 659 l 164 658 l 164 661 l 161 661 l 156 661 m 972 656 l 972 656 l 974 653 l 975 653 l 975 656 l 972 656 m 127 656 l 124 649 l 137 646 l 138 646 l 138 652 q 127 656 138 654 m 165 648 l 165 646 q 173 643 170 646 l 174 643 l 181 649 q 179 654 181 654 q 165 648 165 651 m 146 653 l 146 651 l 147 651 l 147 653 l 146 653 m 107 653 l 110 651 l 107 651 l 107 653 m 939 646 l 937 637 l 940 637 l 947 640 l 947 641 l 945 643 l 941 641 l 940 642 l 940 643 l 941 644 l 941 646 l 940 646 l 939 646 m 191 644 l 189 642 l 184 643 l 184 636 q 174 632 174 633 l 176 626 l 178 626 q 181 631 178 631 l 186 631 q 191 634 186 634 l 189 637 q 198 641 189 640 q 201 636 199 636 l 201 637 l 201 639 l 201 640 l 201 643 l 201 643 l 191 644 m 218 642 l 218 639 l 221 639 l 221 642 l 218 642 m 680 642 l 680 641 l 682 639 l 682 640 l 680 642 m 1019 642 l 1019 641 l 1021 639 l 1022 640 l 1022 641 l 1021 642 l 1019 642 m 147 640 l 147 637 l 149 637 l 147 640 m 162 637 l 166 637 l 166 640 l 164 640 l 162 637 m 620 640 l 616 636 l 614 636 l 613 637 l 583 625 l 556 606 l 553 606 l 553 602 l 553 597 l 550 595 l 556 589 l 556 585 l 555 584 q 557 570 557 581 l 562 566 l 562 564 l 559 560 q 568 555 566 560 q 575 551 575 555 l 578 551 l 581 553 l 582 553 l 595 549 l 604 550 l 605 549 l 605 548 l 602 545 l 605 545 l 610 549 l 617 549 l 618 548 l 623 550 l 629 549 l 635 549 l 637 550 l 637 550 l 637 551 l 637 553 q 642 558 639 558 l 646 557 l 647 558 l 647 559 l 646 560 q 661 583 661 564 l 659 583 q 657 587 657 583 l 659 592 q 655 609 657 607 l 656 617 q 651 625 651 619 l 651 629 q 646 633 646 629 l 631 639 l 623 636 l 620 640 m 168 637 l 168 633 l 171 633 l 171 635 l 169 637 l 168 637 m 675 637 l 674 636 l 674 635 l 677 632 l 679 633 l 675 637 m 141 633 l 144 631 l 146 633 l 144 635 l 141 633 m 208 635 l 208 633 l 211 633 l 211 635 l 208 635 m 682 635 l 682 633 l 686 632 l 686 633 l 686 634 l 686 635 l 682 635 m 218 626 l 220 624 l 225 629 l 224 633 l 218 626 m 193 632 l 193 629 l 195 632 l 193 632 m 206 631 l 206 629 l 208 629 l 208 631 l 206 631 m 188 629 l 190 627 l 191 629 l 191 629 l 188 629 m 148 629 l 148 626 l 149 626 l 149 629 l 148 629 m 201 629 l 201 626 l 204 626 l 204 629 l 201 629 m 669 625 q 675 621 669 621 l 675 622 l 671 627 l 669 625 m 951 619 l 945 619 q 939 612 945 612 l 941 609 l 941 606 l 932 601 l 932 599 l 939 599 l 938 597 l 938 594 l 940 592 l 941 597 l 942 595 l 945 595 l 948 597 l 945 600 l 947 607 l 945 611 l 947 612 l 948 612 l 950 608 l 957 608 q 962 617 957 614 l 967 616 l 968 616 q 964 627 966 627 l 960 627 l 951 619 m 677 621 l 680 615 q 673 608 678 608 l 675 604 l 676 604 l 682 604 l 683 604 l 683 602 l 682 601 l 682 600 l 684 592 l 683 592 l 681 590 l 681 589 q 686 587 686 589 l 686 583 l 684 580 l 684 576 l 686 576 l 693 583 l 696 581 l 694 577 l 696 577 q 701 591 698 577 l 699 592 l 698 592 l 696 591 l 696 591 l 696 593 l 698 597 l 698 600 q 691 604 691 600 l 686 609 l 688 614 l 686 616 q 691 621 686 621 q 683 626 691 623 l 681 626 q 677 621 679 626 m 125 623 l 125 622 l 127 619 l 129 625 l 127 625 l 125 623 m 1009 626 l 1013 626 l 1013 625 l 1009 622 l 1008 623 l 1009 626 m 178 624 l 178 619 l 184 618 l 184 621 q 181 624 181 621 l 178 624 m 141 621 l 141 619 l 144 619 l 144 623 l 141 621 m 190 623 l 190 622 l 193 622 l 193 623 l 190 623 m 170 619 l 170 618 l 172 618 l 174 621 l 174 622 l 172 622 l 170 619 m 399 622 l 399 619 l 400 619 l 400 622 l 399 622 m 709 623 l 711 623 l 714 621 l 714 619 l 711 617 l 709 619 l 709 623 m 996 622 l 996 612 l 997 612 l 1000 616 l 1000 622 l 996 622 m 985 619 l 984 614 l 989 610 l 989 611 l 987 619 l 985 619 m 131 618 l 131 615 l 134 612 l 134 612 l 137 615 q 131 618 137 616 m 201 615 l 205 610 l 206 610 l 206 611 l 205 612 l 205 614 l 206 617 l 205 617 l 201 615 m 1019 617 l 1021 615 l 1022 615 l 1022 617 l 1019 617 m 1023 617 l 1023 615 l 1025 615 l 1025 617 l 1023 617 m 179 616 l 179 615 l 181 612 l 182 612 l 181 616 l 179 616 m 672 615 l 672 614 l 674 614 l 674 615 l 672 615 m 973 615 l 973 614 l 975 611 l 977 611 l 974 615 l 973 615 m 1004 614 l 1004 611 q 1007 608 1007 611 l 1008 608 l 1009 611 l 1004 614 m 302 612 l 302 610 l 305 610 l 305 612 l 302 612 m 994 611 l 994 610 l 997 610 l 997 611 l 994 611 m 132 609 l 132 608 l 134 608 l 134 609 l 132 609 m 159 609 l 159 608 l 162 606 l 162 609 l 159 609 m 208 608 l 208 607 l 211 607 l 211 608 l 208 608 m 201 607 l 201 604 l 203 604 l 203 607 l 201 607 m 987 597 q 994 590 993 596 l 998 590 l 998 591 l 994 599 l 996 604 l 994 604 q 987 597 989 602 m 699 599 l 701 599 l 701 601 l 699 599 m 157 597 l 159 597 l 161 600 l 159 600 l 157 597 m 393 576 l 391 576 l 388 578 l 386 576 q 393 570 393 576 l 385 555 l 386 555 l 386 553 l 382 548 l 382 545 l 389 538 l 389 533 q 385 531 389 531 l 386 525 l 385 524 q 390 520 390 524 l 388 516 q 406 508 388 511 l 408 508 l 410 510 l 420 510 l 420 506 l 422 506 q 424 510 422 510 l 429 510 l 435 509 q 448 515 444 510 q 471 524 458 515 l 474 525 l 473 531 l 482 547 l 484 555 q 477 589 484 589 q 446 594 469 592 l 445 595 l 440 594 q 435 600 437 595 l 428 597 l 418 600 q 403 593 403 600 q 393 576 397 578 m 154 597 l 154 594 l 156 594 l 156 597 l 154 597 m 941 589 l 941 587 l 943 587 l 941 589 m 176 587 l 176 585 l 183 583 l 182 587 l 176 587 m 349 578 l 349 576 l 351 576 l 354 577 l 355 574 l 358 574 l 356 577 l 356 580 l 358 583 l 354 583 l 349 578 m 675 583 l 675 576 l 677 576 l 680 582 l 680 583 l 675 583 m 689 574 l 696 572 l 696 573 l 692 576 l 691 576 l 689 574 m 982 575 l 981 574 l 981 573 l 982 572 l 984 572 l 984 573 l 982 575 m 957 574 l 957 573 l 959 573 l 959 574 l 957 574 m 962 573 l 962 570 l 965 570 l 969 572 l 969 573 l 962 573 m 696 570 l 696 570 l 699 570 l 699 570 l 696 570 m 692 565 l 694 562 l 696 562 l 696 567 l 694 567 l 692 565 m 954 566 l 954 565 l 956 565 l 956 566 l 954 566 m 216 562 l 216 560 l 218 560 l 221 562 l 221 564 l 216 562 m 681 559 l 681 558 l 683 555 l 684 555 l 684 559 l 681 559 m 928 558 l 928 557 l 932 555 l 933 557 l 933 558 l 928 558 m 923 555 l 922 553 l 922 552 l 923 551 l 925 551 l 925 552 l 923 555 m 326 551 l 326 548 l 330 548 l 330 549 l 328 551 l 326 551 m 355 545 l 355 542 l 359 543 l 363 542 l 363 545 l 355 545 m 533 545 l 530 532 l 533 500 l 532 496 q 539 479 534 496 l 548 469 l 549 469 l 553 471 l 553 471 l 557 469 q 571 471 559 471 q 576 490 574 475 l 576 493 q 568 509 568 502 l 572 513 q 560 524 560 519 q 556 530 556 524 q 541 543 545 530 l 540 545 l 533 545 m 950 542 l 951 541 l 956 545 l 952 545 l 950 542 m 134 538 l 134 536 l 140 535 l 140 538 l 138 540 l 137 540 l 134 538 m 696 538 l 696 535 l 696 535 l 696 538 l 696 538 m 218 535 l 218 533 l 218 533 l 221 535 l 218 535 m 355 523 l 355 520 q 358 513 355 517 l 357 509 l 358 509 q 366 496 366 509 l 368 496 q 372 492 368 492 l 376 491 l 378 492 l 378 494 q 374 496 374 494 l 378 500 l 380 501 l 380 503 l 375 509 l 376 515 l 375 513 l 372 513 l 372 519 l 374 528 l 374 530 l 373 530 l 366 526 l 361 530 l 365 534 l 365 535 l 364 535 q 355 523 362 535 m 497 494 l 503 479 l 503 479 l 499 474 q 511 458 501 458 l 516 458 l 516 460 l 522 460 q 532 467 526 467 l 532 474 q 522 513 532 484 q 509 535 517 535 l 507 535 q 497 494 497 525 m 333 530 l 333 528 l 337 528 l 337 530 l 333 530 m 144 522 l 147 522 l 147 524 l 146 524 l 144 522 m 151 519 l 151 517 l 153 517 l 153 519 l 151 519 m 137 511 q 144 508 137 509 l 144 509 l 142 513 l 139 513 l 137 511 m 861 511 l 861 510 l 864 508 l 866 510 l 866 511 l 861 511 m 901 510 l 901 509 l 905 506 l 905 507 l 901 510 m 465 506 l 465 503 l 466 503 l 466 506 l 465 506 m 573 506 l 573 505 q 578 501 573 503 l 578 503 l 574 506 l 573 506 m 119 506 l 121 506 l 121 503 l 119 506 m 148 499 l 148 498 l 151 498 l 151 499 l 148 499 m 131 496 l 131 491 l 132 490 l 132 489 l 144 492 l 144 494 l 141 496 l 139 496 l 131 496 m 141 486 l 141 484 l 144 484 q 151 488 144 487 l 151 489 l 148 491 l 142 486 l 141 486 m 707 492 q 714 483 711 492 l 711 479 q 706 491 707 479 l 707 492 m 380 488 l 380 486 l 382 486 l 382 488 l 380 488 m 127 482 q 130 477 130 482 l 131 477 q 134 483 132 483 l 134 486 q 127 482 128 484 m 159 486 l 159 483 l 159 483 l 159 486 l 159 486 m 375 486 l 375 483 l 378 486 l 375 486 m 212 483 l 212 482 l 214 482 l 214 483 l 212 483 m 650 479 l 650 479 l 655 479 l 656 483 l 654 483 l 650 479 m 355 479 l 355 476 l 366 479 l 366 481 l 363 481 l 361 479 l 361 481 l 357 481 l 355 479 m 381 481 l 380 479 l 380 479 l 383 479 l 381 481 m 595 481 l 595 477 l 598 477 l 598 479 l 595 481 m 139 477 l 139 476 l 140 471 l 136 469 l 136 468 l 138 466 l 139 466 q 144 473 144 468 l 142 476 l 144 479 l 144 479 l 141 479 l 139 477 m 151 476 l 151 474 l 154 473 l 155 474 l 155 476 l 151 476 m 345 475 l 348 468 l 349 468 l 351 474 l 345 476 l 345 475 m 357 471 l 357 468 l 359 468 l 359 473 l 357 471 m 376 471 l 376 469 l 378 469 l 378 471 l 376 471 m 123 468 l 127 464 l 127 465 l 127 468 l 123 468 m 98 467 l 100 467 l 98 465 l 98 467 m 239 467 l 239 466 l 237 464 l 235 465 l 235 466 l 237 467 l 239 467 m 857 465 l 857 463 l 858 463 l 858 465 l 857 465 m 92 465 l 94 465 q 97 459 96 465 l 92 459 l 90 461 l 90 463 l 92 465 m 380 464 l 380 463 l 382 460 l 383 460 l 386 463 l 386 464 l 380 464 m 614 464 l 614 460 l 615 460 l 617 463 l 616 464 l 614 464 m 605 463 l 604 459 l 605 458 l 607 458 l 607 460 l 605 463 m 371 460 l 371 457 l 378 454 l 378 456 l 373 460 l 371 460 m 357 459 q 364 454 360 454 l 368 454 q 357 459 368 457 m 353 458 l 353 456 l 355 458 l 353 458 m 881 456 l 880 454 l 880 454 l 883 454 l 881 456 m 347 454 l 347 452 l 349 450 l 351 454 l 351 454 l 347 454 m 939 454 l 939 454 l 942 450 l 943 450 l 943 451 l 942 454 l 939 454 m 605 454 l 605 451 l 607 449 l 610 449 l 610 451 l 605 454 m 850 454 l 851 452 l 850 447 l 854 444 l 858 444 l 858 449 q 854 454 854 449 l 850 454 m 83 452 l 82 451 l 82 450 l 85 448 l 85 449 l 85 450 l 83 452 m 112 451 l 112 449 l 113 449 l 113 451 l 112 451 m 620 450 l 620 448 l 623 444 l 624 444 l 624 446 l 620 450 m 70 449 l 71 449 l 73 447 l 73 446 l 64 437 l 63 437 l 60 440 l 70 449 m 573 446 l 573 444 l 574 444 l 574 446 l 573 446 m 935 444 l 935 442 l 939 442 l 939 444 l 935 444 m 85 441 l 85 440 l 87 442 l 87 444 l 85 441 m 368 444 l 371 441 l 368 439 l 366 441 l 368 444 m 923 441 l 923 437 q 930 433 926 437 l 932 435 q 926 442 926 439 l 923 441 m 381 437 l 381 435 l 383 435 l 383 437 l 381 437 m 621 437 l 624 434 l 625 434 l 622 437 l 621 437 m 571 435 l 571 432 q 574 425 572 425 l 575 426 l 576 426 l 574 433 l 576 435 l 576 437 l 571 435 m 243 433 l 243 431 l 245 431 l 245 433 l 243 433 m 403 433 l 403 432 l 405 432 l 405 433 l 403 433 m 92 432 l 92 431 l 92 429 l 95 426 l 97 426 l 97 429 l 98 429 l 97 431 l 92 432 m 235 429 l 235 429 l 238 429 l 238 429 l 235 429 m 858 429 l 858 429 l 861 429 l 861 429 l 858 429 m 85 426 l 88 422 l 89 424 l 89 426 l 85 426 m 521 422 l 522 415 l 521 412 l 522 410 l 521 405 l 523 390 l 519 385 l 519 385 q 511 405 515 385 l 505 409 l 504 409 l 503 404 l 511 368 l 509 367 l 509 366 l 516 343 l 516 340 l 517 340 q 524 343 524 341 l 521 360 l 521 361 q 524 363 521 363 q 529 359 529 363 l 528 356 l 529 356 q 538 338 532 356 l 539 340 l 540 340 q 546 330 543 340 l 550 330 l 550 325 l 549 325 l 540 331 l 540 328 q 543 326 540 326 l 545 325 l 545 324 q 540 321 545 321 q 547 318 540 318 l 550 314 l 553 315 l 557 311 l 559 311 l 559 315 q 551 330 556 315 l 550 331 l 551 332 q 545 340 549 337 l 546 346 q 543 353 545 353 q 546 366 543 366 q 551 350 549 366 q 559 334 553 350 l 565 335 l 578 330 l 580 331 l 578 332 l 578 333 l 580 338 q 568 373 571 357 q 564 393 566 373 q 559 406 559 401 l 560 417 l 559 417 l 553 419 l 549 419 l 541 408 l 541 405 q 545 397 541 401 l 541 392 l 541 387 l 539 387 l 532 393 l 533 397 l 529 400 l 532 405 l 532 407 q 526 424 528 410 l 526 424 l 521 422 m 900 422 l 900 419 l 903 419 l 903 422 l 900 422 m 907 422 l 907 418 l 909 418 l 909 422 l 907 422 m 80 416 l 82 416 l 82 418 l 80 416 m 87 417 l 87 412 l 94 412 l 95 412 q 104 406 97 406 l 104 407 q 98 410 104 410 l 98 414 q 102 416 98 416 l 102 417 l 100 417 l 97 416 l 87 417 m 129 416 l 131 414 l 131 416 l 129 416 m 610 415 l 610 412 l 608 412 l 610 415 m 52 401 l 53 400 l 58 400 l 57 406 l 57 407 l 60 407 l 60 410 l 57 410 q 52 401 53 409 m 378 412 l 380 412 l 383 408 l 381 406 l 380 406 l 376 409 l 378 412 m 87 408 l 87 406 l 90 402 l 94 402 l 96 405 l 96 406 q 88 408 91 406 l 87 408 m 593 409 l 595 409 l 598 406 l 598 401 l 595 399 q 591 407 591 401 l 593 409 m 650 409 l 654 409 l 651 407 l 650 408 l 650 409 m 610 407 l 613 407 l 613 402 l 610 400 l 610 400 l 610 407 m 827 406 l 826 405 l 826 402 l 827 402 l 829 405 l 829 406 l 827 406 m 75 400 l 75 399 q 81 395 81 399 l 82 395 l 85 398 l 85 400 l 81 404 l 78 404 l 75 400 m 553 401 l 556 399 l 556 397 l 553 393 l 551 395 l 551 395 q 553 401 553 395 m 95 399 l 95 397 l 97 397 l 97 399 l 95 399 m 415 400 l 417 400 l 420 398 l 420 390 l 418 390 q 415 400 416 390 m 387 399 l 388 399 l 390 397 l 389 397 l 387 399 m 56 395 l 58 393 l 60 395 l 60 397 l 56 395 m 105 397 l 105 395 l 109 395 l 106 397 l 105 397 m 459 397 l 459 395 l 462 392 l 462 397 l 459 397 m 492 397 l 492 395 l 491 395 l 492 391 l 490 387 q 501 360 494 387 l 500 359 l 500 358 l 501 351 l 501 349 l 500 349 q 494 359 494 353 l 492 359 l 491 351 l 494 342 q 511 346 511 343 q 503 363 505 353 l 504 368 q 499 384 500 373 q 496 397 497 384 l 492 397 m 60 390 l 60 387 l 64 387 l 64 392 l 63 392 l 60 390 m 585 392 l 590 387 l 590 385 l 587 385 q 582 391 585 386 l 583 392 l 585 392 m 650 392 l 652 392 l 655 390 q 649 384 652 384 l 649 383 l 652 378 l 650 376 q 642 390 642 383 l 642 391 l 648 390 l 650 392 m 556 391 q 560 380 559 391 l 559 378 l 558 378 l 553 389 l 556 391 m 391 390 l 393 390 l 393 387 l 391 387 l 391 390 m 100 387 l 99 387 l 99 383 l 102 383 l 102 385 l 100 387 m 477 387 q 484 376 480 376 l 484 382 l 484 382 l 488 380 l 488 387 l 477 387 m 627 389 q 632 374 630 389 l 631 373 l 630 373 q 627 384 627 373 l 625 385 l 625 387 l 627 389 m 637 389 l 639 382 l 639 380 l 637 380 l 634 382 l 635 383 l 635 384 l 634 387 l 635 389 l 637 389 m 892 387 l 892 385 l 895 383 l 899 384 l 899 382 q 895 380 899 380 l 895 377 q 901 373 895 375 l 908 374 q 892 387 903 387 m 464 385 l 463 384 l 463 383 q 466 374 463 374 l 467 375 l 467 378 q 464 385 467 385 m 600 387 l 602 387 q 605 378 604 387 l 604 378 l 600 382 l 600 387 m 63 380 l 64 376 q 60 374 60 376 l 62 374 q 68 377 68 375 l 68 382 l 66 384 l 63 380 m 878 380 l 878 380 l 881 380 l 883 382 l 882 383 l 881 383 l 878 380 m 910 383 l 910 380 l 913 378 l 913 380 l 910 383 m 397 383 l 398 383 q 408 374 408 376 l 404 374 q 395 380 399 378 l 395 380 l 397 383 m 83 374 q 87 363 87 370 l 88 363 l 90 363 q 94 370 90 369 q 99 376 94 376 l 99 378 l 95 380 l 83 374 m 273 376 l 272 375 l 272 374 l 273 373 l 275 373 l 275 374 l 273 376 m 519 376 l 521 376 l 521 374 l 519 374 l 519 376 m 484 372 l 486 363 l 491 363 l 494 361 l 497 363 l 497 365 q 490 368 497 367 l 490 372 l 484 372 m 560 373 l 564 370 l 564 368 l 562 366 q 558 372 559 366 l 559 373 l 560 373 m 881 372 l 881 370 l 883 368 l 884 368 l 884 370 l 882 372 l 881 372 m 909 370 l 909 367 l 913 367 l 913 370 l 911 372 l 909 370 m 922 370 l 922 370 l 924 370 l 924 370 l 922 370 m 900 367 l 900 365 l 903 365 l 903 367 l 900 367 m 82 363 l 82 360 l 85 360 l 85 363 l 82 363 m 897 363 l 897 360 l 898 360 l 898 363 l 897 363 m 87 358 l 87 356 l 90 357 l 90 358 l 87 358 m 640 356 l 644 356 l 644 358 l 642 358 l 640 356 m 864 358 l 866 356 l 867 356 l 865 358 l 864 358 m 859 350 l 859 347 l 864 342 l 865 343 l 865 347 q 859 350 865 349 m 620 349 l 620 348 l 622 346 l 623 347 l 623 349 l 620 349 m 859 340 l 859 338 l 863 332 l 867 332 l 867 334 l 864 340 l 859 340 m 482 336 l 482 334 l 484 336 l 482 336 m 844 336 l 844 333 l 846 333 l 846 334 l 844 336 m 519 334 l 519 331 l 522 333 l 522 334 l 519 334 m 886 333 l 889 331 l 890 331 l 892 333 l 890 333 l 890 334 l 886 333 m 656 331 l 656 330 q 663 325 659 330 l 664 325 l 664 330 l 659 333 l 656 331 m 916 331 l 918 331 l 920 328 l 920 328 l 918 328 l 916 330 l 916 331 m 580 328 l 580 324 l 582 326 l 582 328 l 580 328 m 588 328 l 588 324 l 590 326 l 590 328 l 588 328 m 926 328 l 928 326 l 928 325 l 926 324 l 925 324 l 924 325 l 924 326 l 925 328 l 926 328 m 910 326 q 922 321 922 323 l 917 319 q 908 325 909 322 l 909 326 l 910 326 m 814 323 l 814 321 l 815 321 l 815 323 l 814 323 m 899 324 q 910 321 903 321 l 911 319 l 911 318 l 909 316 l 903 316 l 898 321 l 899 323 l 899 324 m 667 321 l 667 319 l 669 319 l 669 321 l 667 321 m 654 319 l 654 318 l 656 316 l 657 317 l 657 318 l 656 319 l 654 319 m 324 319 l 324 317 l 322 317 l 324 319 m 827 318 q 837 309 831 309 l 838 311 l 838 311 q 834 318 834 311 l 833 318 l 832 317 l 831 317 l 827 318 m 817 316 l 817 314 l 822 315 l 822 316 l 817 316 m 897 317 l 899 315 l 897 313 l 895 315 l 897 317 m 804 314 l 806 311 l 807 311 l 807 314 l 804 314 m 648 311 l 648 311 q 654 308 654 311 l 656 308 l 656 311 l 651 313 l 648 311 m 809 311 l 809 309 q 819 300 812 304 l 822 302 q 814 311 814 302 l 809 311 m 869 311 l 869 309 l 871 309 l 871 311 l 869 311 m 846 308 l 846 306 l 849 307 l 849 308 l 846 308 m 637 304 l 637 301 l 644 301 l 646 306 l 642 306 l 637 304 m 824 306 l 824 304 l 826 306 l 824 306 m 387 306 l 389 304 l 389 302 l 387 300 l 385 302 l 385 304 l 387 306 m 113 304 l 114 304 l 117 302 l 114 300 l 113 300 l 111 302 l 113 304 m 649 304 l 649 302 l 651 302 l 651 304 l 649 304 m 858 302 l 858 301 l 861 301 l 861 302 l 858 302 m 792 293 l 792 292 l 795 292 l 795 293 l 792 293 m 739 289 l 741 289 l 741 288 l 739 288 l 739 289 m 373 286 l 374 284 l 374 281 l 371 281 l 371 283 l 373 286 m 766 283 l 768 281 l 770 281 l 770 283 l 766 283 m 823 279 l 823 277 l 826 277 l 824 279 l 823 279 m 802 271 l 804 269 l 805 269 q 807 273 805 273 l 812 272 l 810 273 l 810 274 l 814 275 l 814 279 l 808 279 q 802 271 802 275 m 829 272 l 829 271 l 833 267 l 833 269 l 831 272 l 829 272 m 819 269 l 819 269 l 822 269 l 822 269 l 819 269 m 799 265 q 806 262 800 262 l 806 264 l 807 264 l 806 267 l 804 267 l 799 265 m 823 266 l 823 264 l 824 264 l 824 266 l 823 266 m 829 264 l 831 262 l 831 264 l 829 264 m 822 260 l 822 258 l 826 258 l 824 260 l 822 260 m 810 259 l 812 255 l 815 255 l 817 257 l 817 259 l 810 259 m 698 255 l 698 254 l 701 254 l 701 255 l 698 255 m 779 252 l 779 250 l 781 248 l 782 248 l 782 249 l 779 252 m 787 248 l 787 247 l 790 247 l 792 249 l 792 250 l 790 250 l 787 248 m 410 243 l 414 243 l 414 245 l 413 245 l 410 243 m 816 243 l 816 240 l 817 240 l 819 242 l 819 243 l 816 243 m 787 239 l 787 237 l 787 235 l 789 233 l 791 235 l 791 237 l 787 239 m 807 240 l 812 233 l 812 232 l 810 232 q 808 235 808 232 l 807 235 q 802 230 802 233 l 799 230 l 799 231 q 807 240 801 236 m 787 232 l 787 231 l 789 229 l 790 229 l 790 230 l 787 232 l 787 232 m 420 225 l 420 224 l 424 224 l 424 225 l 420 225 m 454 225 l 457 222 l 457 223 l 455 225 l 454 225 m 774 225 l 774 224 l 777 224 l 777 225 l 774 225 m 46 220 l 48 217 l 48 216 l 46 216 l 46 220 m 201 210 l 205 207 l 204 205 l 201 205 l 198 210 l 199 210 l 201 210 m 477 201 l 477 200 l 481 200 l 480 203 l 479 203 l 477 201 m 782 205 l 783 205 l 783 202 l 782 202 l 782 205 m 454 200 l 456 198 l 458 200 l 457 201 l 454 200 m 127 200 l 130 197 l 127 195 l 124 198 l 127 200 m 189 197 l 190 197 l 190 195 l 189 195 l 189 197 m 439 195 l 439 192 l 441 192 l 441 193 l 439 195 m 713 180 l 714 176 l 718 176 l 718 178 l 714 180 l 713 180 m 701 172 l 701 166 l 701 166 l 703 172 l 701 172 m 694 171 l 694 170 l 696 168 l 696 171 l 694 171 m 431 168 l 431 168 l 433 165 l 435 165 l 435 168 l 431 168 m 644 165 q 649 161 644 163 l 649 159 l 651 159 l 651 163 l 647 165 l 644 165 m 612 156 l 612 155 l 614 157 l 614 158 l 612 156 m 724 158 l 726 156 l 728 156 l 728 158 l 724 158 m 587 156 l 587 153 l 589 153 l 587 156 m 711 153 l 711 151 l 714 151 l 714 153 l 711 153 m 204 151 l 205 150 l 205 149 l 201 149 l 204 151 m 661 146 l 661 144 l 662 144 l 662 146 l 661 146 m 714 146 l 714 144 l 716 144 l 716 146 l 714 146 m 723 144 l 723 143 l 725 143 l 725 144 l 723 144 m 615 140 l 615 139 l 618 139 l 618 142 l 617 142 l 615 140 m 627 142 l 627 140 l 630 140 l 630 142 l 627 142 m 650 142 l 650 139 l 648 131 l 649 131 l 652 129 l 654 129 l 652 134 l 652 136 q 656 138 652 138 l 656 142 l 650 142 m 155 141 l 155 139 l 153 139 l 155 141 m 165 139 l 166 138 l 166 136 l 164 134 l 163 136 l 163 136 l 165 139 m 666 136 l 666 134 l 667 134 l 669 136 l 669 138 l 669 138 l 666 136 m 709 136 l 709 134 l 711 132 l 715 132 q 711 138 713 138 l 709 136 m 627 133 l 624 126 l 629 126 l 630 133 l 627 133 m 703 133 l 703 132 l 705 132 l 705 133 l 703 133 m 454 131 l 455 130 l 455 129 l 452 125 l 450 125 l 448 127 q 454 131 448 130 m 669 127 l 669 126 l 669 124 l 669 124 l 672 126 l 671 127 l 669 127 m 616 126 l 616 123 l 620 123 l 620 124 l 617 126 l 616 126 m 675 126 l 679 123 l 680 123 l 676 126 l 675 126 m 398 126 l 401 126 l 401 124 l 398 121 l 396 123 l 396 124 l 398 126 m 684 125 l 686 123 l 686 125 l 684 125 m 664 124 l 664 122 l 666 122 l 666 124 l 664 124 m 720 123 l 722 123 l 722 121 l 720 121 l 720 123 m 666 117 l 666 114 l 669 111 l 672 111 q 675 115 672 115 l 675 116 l 672 119 l 666 117 m 637 117 l 637 116 l 639 116 l 639 117 l 637 117 m 650 117 l 650 115 l 652 115 l 652 117 l 650 117 m 390 117 l 391 117 l 393 115 l 393 114 l 391 114 l 390 115 l 390 117 m 239 111 l 241 108 l 239 106 l 237 108 l 239 111 m 73 109 l 75 109 l 75 107 l 73 107 l 73 109 m 595 108 l 595 107 q 602 104 595 104 l 604 104 l 604 107 l 595 108 m 254 108 l 255 108 l 255 106 l 254 106 l 254 108 m 398 108 l 403 108 l 405 106 l 403 104 l 398 104 l 396 106 l 398 108 m 246 107 l 247 107 l 250 104 l 246 101 l 243 101 l 243 104 l 246 107 m 363 106 l 364 106 l 371 101 l 368 99 l 361 99 l 359 101 l 359 102 l 363 106 m 610 102 l 610 96 l 613 92 l 614 92 l 614 102 l 612 104 l 610 102 m 641 104 l 641 100 l 644 100 l 644 104 l 641 104 m 180 102 l 183 102 l 186 100 l 182 96 l 180 96 l 180 97 l 181 98 l 180 99 l 180 102 m 211 102 l 213 100 l 211 98 l 208 100 l 211 102 m 373 100 l 375 98 l 373 98 l 373 100 m 260 99 l 262 98 q 254 91 262 95 l 250 94 q 260 99 250 96 m 134 98 l 138 98 l 140 96 l 138 94 l 134 94 l 132 96 l 134 98 m 644 97 l 644 94 l 646 92 l 647 94 l 647 94 l 644 97 m 70 94 l 72 92 l 71 91 l 70 91 l 68 94 l 68 94 l 70 94 m 355 94 l 355 92 l 357 90 l 358 90 l 358 92 l 355 94 m 610 87 l 610 87 l 612 84 l 618 87 l 618 92 l 617 92 q 610 87 613 87 m 479 90 l 480 90 l 482 87 l 480 85 l 479 85 l 477 87 l 479 90 m 216 87 l 218 87 l 220 85 l 218 84 l 216 84 l 216 87 m 382 87 l 385 85 l 382 83 l 380 85 l 382 87 m 401 87 l 404 87 l 406 85 l 404 83 l 401 83 l 399 85 l 401 87 m 241 87 l 243 87 l 246 84 l 246 83 l 243 81 l 239 84 l 241 87 m 368 85 l 370 85 l 372 83 l 366 77 q 363 84 363 79 l 368 85 m 648 84 l 649 84 l 655 83 l 655 81 q 650 79 650 81 l 655 74 l 654 73 l 649 73 l 647 75 l 649 79 l 648 80 l 648 84 m 235 82 l 238 80 l 238 79 q 231 75 237 75 l 230 75 l 228 77 q 235 82 229 82 m 254 77 l 255 77 l 257 75 l 257 74 l 254 71 l 250 71 l 248 73 l 254 77 m 376 74 l 382 67 l 381 66 l 378 66 l 374 72 l 376 74 m 224 71 l 227 68 l 225 67 l 224 67 l 222 69 l 223 71 l 224 71 m 598 69 l 598 67 l 600 67 l 598 69 m 148 69 l 149 69 l 151 67 l 149 65 l 148 65 l 146 67 l 148 69 m 429 68 l 429 67 l 427 65 l 424 67 l 425 68 l 429 68 m 395 67 l 397 65 l 395 62 l 393 65 l 395 67 m 540 67 l 547 67 l 547 65 l 540 65 l 540 67 m 280 65 l 282 62 q 272 54 277 54 l 271 55 l 271 56 q 280 65 274 62 m 585 62 l 585 60 l 589 60 l 589 62 l 585 62 m 188 62 l 190 62 l 190 60 l 188 60 l 188 62 m 332 58 l 334 58 l 337 56 l 336 55 l 332 55 l 332 58 m 282 55 l 284 52 l 282 50 l 280 50 l 280 52 l 282 55 m 380 54 l 382 54 l 382 52 l 380 49 l 378 52 l 380 54 m 592 54 l 595 54 l 595 52 l 592 54 m 206 52 l 208 52 l 208 50 l 206 48 l 204 50 l 206 52 m 408 52 l 410 50 l 410 49 l 407 49 l 405 52 l 406 52 l 408 52 m 263 52 l 265 49 l 265 48 l 262 45 l 260 47 l 260 48 l 263 52 m 355 48 l 356 48 l 358 45 l 358 43 l 357 43 l 355 45 l 355 48 m 344 45 l 347 45 l 347 42 l 346 42 l 344 45 l 344 45 m 287 45 l 289 42 l 289 41 l 287 41 l 284 43 l 286 45 l 287 45 m 204 40 l 208 40 l 208 39 q 204 31 208 33 l 201 33 l 201 38 l 204 40 m 432 40 l 435 40 l 435 38 l 432 35 l 430 38 l 432 40 m 346 35 l 348 33 l 347 32 l 346 32 l 346 35 m 132 35 l 134 35 l 136 32 l 132 28 l 130 31 l 130 32 l 132 35 m 147 35 l 148 33 l 148 32 l 146 30 l 144 31 l 144 32 l 147 35 m 345 28 l 347 25 l 342 20 l 341 20 q 345 28 342 28 m 83 26 l 85 24 l 83 22 l 82 22 l 80 24 l 83 26 m 195 26 l 197 26 l 199 24 l 189 18 l 186 18 l 195 26 m 238 22 l 240 20 l 237 16 l 235 18 l 238 22 m 361 13 l 361 9 l 359 9 l 357 12 l 358 13 l 361 13 m 239 6 l 241 3 l 240 3 l 239 3 l 237 5 l 238 6 l 239 6 m 273 1 l 274 1 l 277 -1 l 277 -2 l 274 -4 l 272 -4 l 270 -2 l 273 1 m 110 -1 l 110 -3 l 105 -7 l 104 -7 l 102 -5 q 110 -1 103 -1 m 549 -2 l 550 -3 l 550 -5 l 547 -5 l 547 -4 l 549 -2 m 260 -3 l 260 -4 l 260 -5 l 260 -7 l 258 -7 l 257 -5 l 257 -4 l 258 -3 l 260 -3 m 245 -7 l 246 -7 l 246 -9 l 245 -10 l 243 -10 l 242 -9 l 242 -7 l 243 -7 l 245 -7 m 94 -10 l 96 -12 l 94 -14 l 92 -12 l 94 -10 m 227 -11 l 228 -11 l 230 -14 q 225 -17 230 -15 l 224 -16 l 224 -14 l 227 -11 m 237 -12 l 238 -12 l 240 -14 l 238 -17 l 237 -16 l 237 -12 m 420 -19 l 423 -22 l 420 -24 l 418 -22 l 420 -19 m 117 -27 l 120 -29 l 117 -32 l 115 -29 l 117 -27 m 250 -32 l 253 -32 l 253 -33 l 250 -33 l 250 -32 m 164 -44 l 165 -44 l 168 -46 l 168 -47 l 165 -50 l 164 -50 l 162 -47 l 162 -46 l 164 -44 m 188 -44 l 193 -44 l 193 -45 l 189 -49 l 186 -49 l 184 -46 l 188 -44 m 277 -44 l 280 -44 l 280 -45 l 275 -50 l 274 -50 l 274 -49 l 277 -44 m 398 -47 l 401 -47 l 401 -49 l 399 -51 l 398 -50 l 398 -47 m 170 -50 l 171 -51 l 171 -52 l 170 -53 l 169 -53 l 168 -52 l 168 -51 l 169 -50 l 170 -50 m 578 -51 l 580 -51 l 578 -53 l 578 -51 m 598 -51 l 600 -53 l 598 -56 l 595 -53 l 598 -51 m 122 -59 l 123 -59 l 125 -61 l 122 -63 l 120 -61 l 122 -59 m 383 -59 l 385 -59 l 387 -61 l 387 -62 l 385 -64 l 383 -64 l 381 -62 l 381 -61 l 383 -59 m 171 -63 l 172 -64 l 172 -66 l 169 -66 l 171 -63 m 488 -63 l 490 -63 l 490 -67 l 488 -67 l 488 -63 m 406 -71 l 410 -71 l 410 -75 l 406 -75 l 406 -71 m 365 -75 l 368 -75 l 368 -77 l 366 -79 l 365 -78 l 365 -75 m 506 -79 l 507 -81 l 507 -81 l 506 -83 l 505 -83 l 504 -81 l 504 -81 l 505 -79 l 506 -79 m 164 -88 l 165 -88 l 168 -91 l 165 -93 l 164 -93 l 162 -91 l 164 -88 z "}}}
